<?xml version="1.0" standalone="no"?>
<!DOCTYPE svg PUBLIC "-//W3C//DTD SVG 1.1//EN" "http://www.w3.org/Graphics/SVG/1.1/DTD/svg11.dtd" >
<svg>
<metadata>
Created by FontForge 20090622 at Thu Dec  1 18:47:36 2016
 By deploy user
&#194;&#169; 2009, 2010, 2011, 2012 GrandChaos9000. Some Rights Reserved. (Under licensed of Creative Commons CC-BY-NC-SA 3.0)
</metadata>
<defs>
<font id="AeroMaticsLightRegular" horiz-adv-x="1000" >
  <font-face 
    font-family="Aero Matics Light"
    font-weight="300"
    font-stretch="normal"
    units-per-em="2048"
    panose-1="2 11 3 3 6 1 1 1 1 1"
    ascent="1638"
    descent="-410"
    x-height="1000"
    cap-height="1400"
    bbox="-200 -446 2500 1900"
    underline-thickness="150"
    underline-position="-142"
    unicode-range="U+0020-U+2122"
  />
<missing-glyph 
d="M100 1400h800v-1400h-800v1400zM200 1300v-1200h600v1200h-600z" />
    <glyph glyph-name=".notdef" 
d="M100 1400h800v-1400h-800v1400zM200 1300v-1200h600v1200h-600z" />
    <glyph glyph-name="space" unicode=" " horiz-adv-x="400" 
 />
    <glyph glyph-name="exclam" unicode="!" horiz-adv-x="300" 
d="M100 400v1000h100v-1000h-100zM100 0v200h100v-200h-100z" />
    <glyph glyph-name="quotedbl" unicode="&#x22;" horiz-adv-x="600" 
d="M300 1400l-100 -300h-100l100 300h100zM500 1400l-100 -300h-100l100 300h100z" />
    <glyph glyph-name="numbersign" unicode="#" horiz-adv-x="1300" 
d="M465 1050l105 350h100l-105 -350h400l105 350h100l-105 -350h135v-100h-165l-150 -500h215v-100h-245l-105 -350h-100l105 350h-400l-105 -350h-100l105 350h-155v100h185l150 500h-235v100h265zM385 450h400l150 500h-400z" />
    <glyph glyph-name="dollar" unicode="$" horiz-adv-x="1100" 
d="M600 0v-200h-100v200h-400v100h400v550h-100q-300 0 -300 300v150q0 300 300 300h100v200h100v-200h400v-100h-400v-550h100q300 0 300 -300v-150q0 -300 -300 -300h-100zM200 950q0 -200 200 -200h100v550h-100q-200 0 -200 -200v-150zM600 650v-550h100q200 0 200 200
v150q0 200 -200 200h-100z" />
    <glyph glyph-name="percent" unicode="%" horiz-adv-x="1800" 
d="M400 600q-300 0 -300 300v200q0 300 300 300h100q300 0 300 -300v-200q0 -300 -300 -300h-100zM1700 300q0 -300 -300 -300h-100q-300 0 -300 300v200q0 300 300 300h100q300 0 300 -300v-200zM200 900q0 -200 200 -200h100q200 0 200 200v200q0 200 -200 200h-100
q-200 0 -200 -200v-200zM1100 300q0 -200 200 -200h100q200 0 200 200v200q0 200 -200 200h-100q-200 0 -200 -200v-200zM500 0l690 1400h110l-690 -1400h-110z" />
    <glyph glyph-name="ampersand" unicode="&#x26;" horiz-adv-x="1100" 
d="M400 0q-300 0 -300 300v150q0 220 170 250q-170 30 -170 250v150q0 300 300 300h500v-100h-500q-200 0 -200 -200v-150q0 -200 200 -200h400v200h100v-200h100v-100h-100v-650h-500zM200 300q0 -200 200 -200h400v550h-400q-200 0 -200 -200v-150z" />
    <glyph glyph-name="quotesingle" unicode="'" horiz-adv-x="400" 
d="M300 1400l-100 -300h-100l100 300h100z" />
    <glyph glyph-name="parenleft" unicode="(" horiz-adv-x="600" 
d="M380 -200q-280 400 -280 900t280 900h120q-300 -400 -300 -900t300 -900h-120z" />
    <glyph glyph-name="parenright" unicode=")" horiz-adv-x="600" 
d="M100 -200q300 400 300 900t-300 900h120q280 -400 280 -900t-280 -900h-120z" />
    <glyph glyph-name="asterisk" unicode="*" horiz-adv-x="700" 
d="M150 940l119 183l-169 17l10 100l190 -20v180h100v-180l190 20l10 -100l-170 -17l120 -183l-90 -40l-110 170l-110 -170z" />
    <glyph glyph-name="plus" unicode="+" horiz-adv-x="900" 
d="M400 750v300h100v-300h300v-100h-300v-300h-100v300h-300v100h300z" />
    <glyph glyph-name="comma" unicode="," horiz-adv-x="400" 
d="M300 200l-100 -300h-100l100 300h100z" />
    <glyph glyph-name="hyphen" unicode="-" horiz-adv-x="700" 
d="M600 750v-100h-500v100h500z" />
    <glyph glyph-name="period" unicode="." horiz-adv-x="300" 
d="M100 0v200h100v-200h-100z" />
    <glyph glyph-name="slash" unicode="/" horiz-adv-x="820" 
d="M200 -200h-100l520 1800h100z" />
    <glyph glyph-name="zero" unicode="0" horiz-adv-x="1150" 
d="M1050 300q0 -300 -300 -300h-350q-300 0 -300 300v800q0 300 300 300h350q300 0 300 -300v-800zM950 890l-750 -490v-100q0 -200 200 -200h350q200 0 200 200v590zM200 510l750 490v100q0 200 -200 200h-350q-200 0 -200 -200v-590z" />
    <glyph glyph-name="one" unicode="1" horiz-adv-x="500" 
d="M300 1300h-200v100h300v-1400h-100v1300z" />
    <glyph glyph-name="two" unicode="2" horiz-adv-x="1100" 
d="M100 0v450q0 300 300 300h300q200 0 200 200v150q0 200 -200 200h-600v100h600q300 0 300 -300v-150q0 -300 -300 -300h-300q-200 0 -200 -200v-350h800v-100h-900z" />
    <glyph glyph-name="three" unicode="3" 
d="M100 750h500q200 0 200 200v150q0 200 -200 200h-500v100h500q300 0 300 -300v-150q0 -220 -170 -250q170 -30 170 -250v-150q0 -300 -300 -300h-500v100h500q200 0 200 200v150q0 200 -200 200h-500v100z" />
    <glyph glyph-name="four" unicode="4" horiz-adv-x="1100" 
d="M490 1400h110l-390 -800h690v800h100v-1400h-100v500h-800v100z" />
    <glyph glyph-name="five" unicode="5" horiz-adv-x="1050" 
d="M100 0v100h550q200 0 200 200v200q0 200 -200 200h-550v700h850v-100h-750v-500h450q300 0 300 -300v-200q0 -300 -300 -300h-550z" />
    <glyph glyph-name="six" unicode="6" horiz-adv-x="1100" 
d="M200 800h500q300 0 300 -300v-200q0 -300 -300 -300h-300q-300 0 -300 300v700q0 400 400 400h400v-100h-400q-300 0 -300 -300v-200zM200 700v-400q0 -200 200 -200h300q200 0 200 200v200q0 200 -200 200h-500z" />
    <glyph glyph-name="seven" unicode="7" horiz-adv-x="1100" 
d="M1000 1400v-100l-690 -1300h-110l690 1300h-790v100h900z" />
    <glyph glyph-name="eight" unicode="8" horiz-adv-x="1100" 
d="M100 1100q0 300 300 300h300q300 0 300 -300v-150q0 -220 -170 -250q170 -30 170 -250v-150q0 -300 -300 -300h-300q-300 0 -300 300v150q0 220 170 250q-170 30 -170 250v150zM700 750q200 0 200 200v150q0 200 -200 200h-300q-200 0 -200 -200v-150q0 -200 200 -200
h300zM400 650q-200 0 -200 -200v-150q0 -200 200 -200h300q200 0 200 200v150q0 200 -200 200h-300z" />
    <glyph glyph-name="nine" unicode="9" horiz-adv-x="1100" 
d="M900 600h-500q-300 0 -300 300v200q0 300 300 300h300q300 0 300 -300v-700q0 -400 -400 -400h-400v100h400q300 0 300 300v200zM900 700v400q0 200 -200 200h-300q-200 0 -200 -200v-200q0 -200 200 -200h500z" />
    <glyph glyph-name="colon" unicode=":" horiz-adv-x="300" 
d="M100 0v200h100v-200h-100zM100 800v200h100v-200h-100z" />
    <glyph glyph-name="semicolon" unicode=";" horiz-adv-x="400" 
d="M200 800v200h100v-200h-100zM300 200l-100 -300h-100l100 300h100z" />
    <glyph glyph-name="less" unicode="&#x3c;" horiz-adv-x="900" 
d="M100 650v100l700 350v-100l-600 -300l600 -300v-100z" />
    <glyph glyph-name="equal" unicode="=" horiz-adv-x="700" 
d="M600 900v-100h-500v100h500zM600 600v-100h-500v100h500z" />
    <glyph glyph-name="greater" unicode="&#x3e;" horiz-adv-x="900" 
d="M100 300v100l600 300l-600 300v100l700 -350v-100z" />
    <glyph glyph-name="question" unicode="?" horiz-adv-x="1100" 
d="M400 400v350h300q200 0 200 200v150q0 200 -200 200h-600v100h600q300 0 300 -300v-150q0 -300 -300 -300h-200v-250h-100zM500 200v-200h-100v200h100z" />
    <glyph glyph-name="at" unicode="@" horiz-adv-x="1600" 
d="M1300 200q-152 0 -189 115q-136 -115 -311 -115h-100q-300 0 -300 300v400q0 300 300 300h100q200 0 300 -100v100h100v-800q0 -100 100 -100t100 200v500q0 400 -400 400h-400q-400 0 -400 -400v-600q0 -400 400 -400h700v-100h-700q-500 0 -500 500v600q0 500 500 500
h400q500 0 500 -500v-500q0 -300 -200 -300zM800 300q200 0 300 100v600q-100 100 -300 100h-100q-200 0 -200 -200v-400q0 -200 200 -200h100z" />
    <glyph glyph-name="A" unicode="A" 
d="M1000 0h-100l-123 400h-554l-123 -400h-100l420 1400h160zM254 500h492l-246 800z" />
    <glyph glyph-name="B" unicode="B" horiz-adv-x="1100" 
d="M700 1400q300 0 300 -300v-150q0 -220 -170 -250q170 -30 170 -250v-150q0 -300 -300 -300h-600v1400h600zM200 1300v-550h500q200 0 200 200v150q0 200 -200 200h-500zM200 650v-550h500q200 0 200 200v150q0 200 -200 200h-500z" />
    <glyph glyph-name="C" unicode="C" 
d="M200 300q0 -200 200 -200h500v-100h-500q-300 0 -300 300v800q0 300 300 300h500v-100h-500q-200 0 -200 -200v-800z" />
    <glyph glyph-name="D" unicode="D" horiz-adv-x="1100" 
d="M700 1400q300 0 300 -300v-800q0 -300 -300 -300h-600v1400h600zM900 1100q0 200 -200 200h-500v-1200h500q200 0 200 200v800z" />
    <glyph glyph-name="E" unicode="E" 
d="M900 750v-100h-700v-550h700v-100h-800v1400h800v-100h-700v-550h700z" />
    <glyph glyph-name="F" unicode="F" 
d="M900 750v-100h-700v-650h-100v1400h800v-100h-700v-550h700z" />
    <glyph glyph-name="G" unicode="G" horiz-adv-x="1100" 
d="M200 300q0 -200 200 -200h300q200 0 200 200v350h-400v100h500v-450q0 -300 -300 -300h-300q-300 0 -300 300v800q0 300 300 300h600v-100h-600q-200 0 -200 -200v-800z" />
    <glyph glyph-name="H" unicode="H" horiz-adv-x="1100" 
d="M200 1400v-650h700v650h100v-1400h-100v650h-700v-650h-100v1400h100z" />
    <glyph glyph-name="I" unicode="I" horiz-adv-x="300" 
d="M200 1400v-1400h-100v1400h100z" />
    <glyph glyph-name="J" unicode="J" horiz-adv-x="700" 
d="M500 1400h100v-1100q0 -300 -300 -300h-200v100h200q200 0 200 200v1100z" />
    <glyph glyph-name="K" unicode="K" horiz-adv-x="1050" 
d="M100 0v1400h100v-650h90l590 650h120l-620 -700l620 -700h-120l-590 650h-90v-650h-100z" />
    <glyph glyph-name="L" unicode="L" 
d="M200 100h700v-100h-800v1400h100v-1300z" />
    <glyph glyph-name="M" unicode="M" horiz-adv-x="1400" 
d="M100 1400h170l430 -1300l430 1300h170v-1400h-100v1300l-420 -1300h-160l-420 1300v-1300h-100v1400z" />
    <glyph glyph-name="N" unicode="N" horiz-adv-x="1100" 
d="M200 1400l700 -1200v1200h100v-1400h-100l-700 1200v-1200h-100v1400h100z" />
    <glyph glyph-name="O" unicode="O" horiz-adv-x="1150" 
d="M1050 300q0 -300 -300 -300h-350q-300 0 -300 300v800q0 300 300 300h350q300 0 300 -300v-800zM200 300q0 -200 200 -200h350q200 0 200 200v800q0 200 -200 200h-350q-200 0 -200 -200v-800z" />
    <glyph glyph-name="P" unicode="P" horiz-adv-x="1100" 
d="M200 650v-650h-100v1400h600q300 0 300 -300v-150q0 -300 -300 -300h-500zM200 1300v-550h500q200 0 200 200v150q0 200 -200 200h-500z" />
    <glyph glyph-name="Q" unicode="Q" horiz-adv-x="1150" 
d="M670 0h-270q-300 0 -300 300v800q0 300 300 300h350q300 0 300 -300v-800q0 -290 -280 -300l80 -200h-100zM650 300l80 -200h20q200 0 200 200v800q0 200 -200 200h-350q-200 0 -200 -200v-800q0 -200 200 -200h230l-80 200h100z" />
    <glyph glyph-name="R" unicode="R" horiz-adv-x="1100" 
d="M668 650h-468v-650h-100v1400h600q300 0 300 -300v-150q0 -265 -234 -296l234 -654h-100zM200 1300v-550h500q200 0 200 200v150q0 200 -200 200h-500z" />
    <glyph glyph-name="S" unicode="S" horiz-adv-x="1100" 
d="M100 0v100h600q200 0 200 200v150q0 200 -200 200h-300q-300 0 -300 300v150q0 300 300 300h600v-100h-600q-200 0 -200 -200v-150q0 -200 200 -200h300q300 0 300 -300v-150q0 -300 -300 -300h-600z" />
    <glyph glyph-name="T" unicode="T" horiz-adv-x="1100" 
d="M1000 1400v-100h-400v-1300h-100v1300h-400v100h900z" />
    <glyph glyph-name="U" unicode="U" horiz-adv-x="1100" 
d="M200 1400v-1100q0 -200 200 -200h300q200 0 200 200v1100h100v-1100q0 -300 -300 -300h-300q-300 0 -300 300v1100h100z" />
    <glyph glyph-name="V" unicode="V" 
d="M580 0h-160l-420 1400h100l400 -1300l400 1300h100z" />
    <glyph glyph-name="W" unicode="W" horiz-adv-x="1500" 
d="M1180 0h-160l-270 1181l-270 -1181h-160l-320 1400h100l300 -1300l300 1300h100l300 -1300l300 1300h100z" />
    <glyph glyph-name="X" unicode="X" horiz-adv-x="1200" 
d="M100 0l435 700l-435 700h130l370 -596l370 596h130l-435 -700l435 -700h-130l-370 595l-370 -595h-130z" />
    <glyph glyph-name="Y" unicode="Y" 
d="M110 1400l390 -700l390 700h110l-450 -800v-600h-100v600l-450 800h110z" />
    <glyph glyph-name="Z" unicode="Z" horiz-adv-x="1100" 
d="M1000 1400v-100l-780 -1200h780v-100h-900v100l780 1200h-780v100h900z" />
    <glyph glyph-name="bracketleft" unicode="[" horiz-adv-x="500" 
d="M400 1500h-200v-1600h200v-100h-300v1800h300v-100z" />
    <glyph glyph-name="backslash" unicode="\" horiz-adv-x="820" 
d="M100 1600h100l520 -1800h-100z" />
    <glyph glyph-name="bracketright" unicode="]" horiz-adv-x="500" 
d="M100 1600h300v-1800h-300v100h200v1600h-200v100z" />
    <glyph glyph-name="asciicircum" unicode="^" 
d="M450 1400h100l350 -700h-100l-300 600l-300 -600h-100z" />
    <glyph glyph-name="underscore" unicode="_" horiz-adv-x="700" 
d="M700 -300v-100h-700v100h700z" />
    <glyph glyph-name="grave" unicode="`" horiz-adv-x="400" 
d="M190 1100l-90 300h110l90 -300h-110z" />
    <glyph glyph-name="a" unicode="a" 
d="M800 600q0 300 -300 300h-300v100h300q400 0 400 -400v-600h-70l-30 100q-100 -100 -300 -100h-100q-300 0 -300 300t300 300h100q200 0 300 -100v100zM500 100q200 0 300 100v200q-100 100 -300 100h-100q-200 0 -200 -200t200 -200h100z" />
    <glyph glyph-name="b" unicode="b" 
d="M200 1400v-500q100 100 300 100h100q300 0 300 -300v-400q0 -300 -300 -300h-100q-200 0 -300 100l-30 -100h-70v1400h100zM500 900q-200 0 -300 -100v-600q100 -100 300 -100h100q200 0 200 200v400q0 200 -200 200h-100z" />
    <glyph glyph-name="c" unicode="c" horiz-adv-x="900" 
d="M200 300q0 -200 200 -200h400v-100h-400q-300 0 -300 300v400q0 300 300 300h400v-100h-400q-200 0 -200 -200v-400z" />
    <glyph glyph-name="d" unicode="d" 
d="M900 1400v-1400h-70l-30 100q-100 -100 -300 -100h-100q-300 0 -300 300v400q0 300 300 300h100q200 0 300 -100v500h100zM500 100q200 0 300 100v600q-100 100 -300 100h-100q-200 0 -200 -200v-400q0 -200 200 -200h100z" />
    <glyph glyph-name="e" unicode="e" 
d="M200 450v-150q0 -200 200 -200h450v-100h-450q-300 0 -300 300v400q0 300 300 300h200q300 0 300 -300v-250h-700zM200 550h600v150q0 200 -200 200h-200q-200 0 -200 -200v-150z" />
    <glyph glyph-name="f" unicode="f" horiz-adv-x="800" 
d="M350 950h350v-100h-350v-850h-100v850h-150v100h150v150q0 300 300 300h150v-100h-150q-200 0 -200 -200v-150z" />
    <glyph glyph-name="g" unicode="g" 
d="M200 -400v100h300q300 0 300 300v100q-100 -100 -300 -100h-100q-300 0 -300 300v400q0 300 300 300h100q200 0 300 -100l30 100h70v-1000q0 -400 -400 -400h-300zM500 100q200 0 300 100v600q-100 100 -300 100h-100q-200 0 -200 -200v-400q0 -200 200 -200h100z" />
    <glyph glyph-name="h" unicode="h" 
d="M200 1400v-500q100 100 300 100h100q300 0 300 -300v-700h-100v700q0 200 -200 200h-100q-200 0 -300 -100v-800h-100v1400h100z" />
    <glyph glyph-name="i" unicode="i" horiz-adv-x="300" 
d="M200 1000v-1000h-100v1000h100zM200 1400v-200h-100v200h100z" />
    <glyph glyph-name="j" unicode="j" horiz-adv-x="300" 
d="M-200 -400v100h100q200 0 200 200v1100h100v-1100q0 -300 -300 -300h-100zM200 1400v-200h-100v200h100z" />
    <glyph glyph-name="k" unicode="k" horiz-adv-x="950" 
d="M200 1400v-850h100l470 450h130l-510 -500l510 -500h-130l-470 450h-100v-450h-100v1400h100z" />
    <glyph glyph-name="l" unicode="l" horiz-adv-x="300" 
d="M200 1400v-1400h-100v1400h100z" />
    <glyph glyph-name="m" unicode="m" horiz-adv-x="1500" 
d="M170 1000l30 -100q100 100 300 100q173 0 246 -100q128 100 304 100q350 0 350 -300v-700h-100v700q0 200 -221 200t-279 -100v-800h-100v710q-5 190 -200 190q-200 0 -300 -100v-800h-100v1000h70z" />
    <glyph glyph-name="n" unicode="n" 
d="M170 1000l30 -100q100 100 300 100h100q300 0 300 -300v-700h-100v700q0 200 -200 200h-100q-200 0 -300 -100v-800h-100v1000h70z" />
    <glyph glyph-name="o" unicode="o" 
d="M900 300q0 -300 -300 -300h-200q-300 0 -300 300v400q0 300 300 300h200q300 0 300 -300v-400zM200 300q0 -200 200 -200h200q200 0 200 200v400q0 200 -200 200h-200q-200 0 -200 -200v-400z" />
    <glyph glyph-name="p" unicode="p" 
d="M100 -400v1400h70l30 -100q100 100 300 100h100q300 0 300 -300v-400q0 -300 -300 -300h-100q-200 0 -300 100v-500h-100zM500 900q-200 0 -300 -100v-600q100 -100 300 -100h100q200 0 200 200v400q0 200 -200 200h-100z" />
    <glyph glyph-name="q" unicode="q" 
d="M800 -400v500q-100 -100 -300 -100h-100q-300 0 -300 300v400q0 300 300 300h100q200 0 300 -100l30 100h70v-1400h-100zM500 100q200 0 300 100v600q-100 100 -300 100h-100q-200 0 -200 -200v-400q0 -200 200 -200h100z" />
    <glyph glyph-name="r" unicode="r" horiz-adv-x="550" 
d="M100 0v1000h70l30 -100q100 100 300 100v-100q-200 0 -300 -100v-800h-100z" />
    <glyph glyph-name="s" unicode="s" horiz-adv-x="950" 
d="M100 0v100h450q200 0 200 160v40q0 160 -200 160h-150q-300 0 -300 240v40q0 260 300 260h450v-100h-450q-200 0 -200 -160v-40q0 -140 200 -140h150q300 0 300 -260v-40q0 -260 -300 -260h-450z" />
    <glyph glyph-name="t" unicode="t" horiz-adv-x="800" 
d="M350 1000h350v-100h-350v-600q0 -200 200 -200h150v-100h-150q-300 0 -300 300v600h-150v100h150v300l100 100v-400z" />
    <glyph glyph-name="u" unicode="u" 
d="M830 0l-30 100q-100 -100 -300 -100h-100q-300 0 -300 300v700h100v-700q0 -200 200 -200h100q200 0 300 100v800h100v-1000h-70z" />
    <glyph glyph-name="v" unicode="v" horiz-adv-x="900" 
d="M520 0h-140l-330 1000h100l300 -900l300 900h100z" />
    <glyph glyph-name="w" unicode="w" horiz-adv-x="1400" 
d="M1000 100l250 900h100l-280 -1000h-140l-230 832l-230 -832h-140l-280 1000h100l250 -900l250 900h100z" />
    <glyph glyph-name="x" unicode="x" 
d="M220 1000l280 -412l280 412h120l-340 -500l340 -500h-120l-280 412l-280 -412h-120l340 500l-340 500h120z" />
    <glyph glyph-name="y" unicode="y" 
d="M200 -400v100h400q200 0 200 200v200q-100 -100 -300 -100h-100q-300 0 -300 300v700h100v-700q0 -200 200 -200h100q200 0 300 100v800h100v-1100q0 -300 -300 -300h-400z" />
    <glyph glyph-name="z" unicode="z" 
d="M900 1000v-100l-670 -800h670v-100h-800v100l670 800h-670v100h800z" />
    <glyph glyph-name="braceleft" unicode="{" horiz-adv-x="700" 
d="M100 750q200 0 200 200v350q0 300 300 300v-100q-200 0 -200 -200v-350q0 -220 -170 -250q170 -30 170 -250v-350q0 -200 200 -200v-100q-300 0 -300 300v350q0 200 -200 200v100z" />
    <glyph glyph-name="bar" unicode="|" horiz-adv-x="300" 
d="M200 1600v-1800h-100v1800h100z" />
    <glyph glyph-name="braceright" unicode="}" horiz-adv-x="700" 
d="M600 650q-200 0 -200 -200v-350q0 -300 -300 -300v100q200 0 200 200v350q0 220 170 250q-170 30 -170 250v350q0 200 -200 200v100q300 0 300 -300v-350q0 -200 200 -200v-100z" />
    <glyph glyph-name="asciitilde" unicode="~" horiz-adv-x="1100" 
d="M100 500q0 300 250 300q130 0 220 -100t190 -100q140 0 140 200h100q0 -300 -250 -300q-130 0 -220 100t-190 100q-140 0 -140 -200h-100z" />
    <glyph glyph-name="uni00A0" unicode="&#xa0;" horiz-adv-x="400" 
 />
    <glyph glyph-name="exclamdown" unicode="&#xa1;" horiz-adv-x="300" 
d="M200 600v-1000h-100v1000h100zM200 1000v-200h-100v200h100z" />
    <glyph glyph-name="cent" unicode="&#xa2;" horiz-adv-x="900" 
d="M550 1400v-200h250v-100h-250v-800h250v-100h-250v-200h-100v200h-50q-300 0 -300 300v400q0 300 300 300h50v200h100zM200 500q0 -200 200 -200h50v800h-50q-200 0 -200 -200v-400z" />
    <glyph glyph-name="sterling" unicode="&#xa3;" horiz-adv-x="1100" 
d="M350 750h650v-100h-650v-550h650v-100h-900v100h150v550h-150v100h150v250q0 400 400 400h350v-100h-350q-300 0 -300 -300v-250z" />
    <glyph glyph-name="yen" unicode="&#xa5;" 
d="M110 1400l390 -700l390 700h110l-450 -800h350v-100h-350v-200h350v-100h-350v-200h-100v200h-350v100h350v200h-350v100h350l-450 800h110z" />
    <glyph glyph-name="brokenbar" unicode="&#xa6;" horiz-adv-x="300" 
d="M200 1600v-800h-100v800h100zM200 600v-800h-100v800h100z" />
    <glyph glyph-name="dieresis" unicode="&#xa8;" horiz-adv-x="600" 
d="M100 1100v200h100v-200h-100zM400 1100v200h100v-200h-100z" />
    <glyph glyph-name="copyright" unicode="&#xa9;" horiz-adv-x="1395" 
d="M1295 699q0 -248 -175 -423t-422 -175q-248 0 -423 175t-175 423q0 247 175 422t423 175q247 0 422 -175t175 -422zM698 1206q-219 0 -363 -144t-144 -363t144 -363t363 -144t363 144t144 363t-144 363t-363 144zM896 745q-12 55 -54 98q-59 58 -142 58t-141.5 -58.5
t-58.5 -141.5t58.5 -141.5t141.5 -58.5t142 59q36 36 49 81h103q-16 -86 -82 -152q-88 -88 -212 -88t-212 88t-88 212t88 212t212 88t212 -88q72 -72 85 -168h-101z" />
    <glyph glyph-name="guillemotleft" unicode="&#xab;" horiz-adv-x="852" 
d="M100 650l280 450h120l-280 -450l280 -450h-120zM352 650l280 450h120l-280 -450l280 -450h-120z" />
    <glyph glyph-name="logicalnot" unicode="&#xac;" horiz-adv-x="900" 
d="M800 750v-400h-100v300h-600v100h700z" />
    <glyph glyph-name="registered" unicode="&#xae;" horiz-adv-x="1395" 
d="M748 1010q211 0 211 -181q0 -156 -136 -185l136 -267h-102l-132 261h-188v-261h-91v633h302zM748 729q120 0 120 100q0 91 -120 91h-211v-191h211zM1295 699q0 -248 -175 -423t-422 -175q-248 0 -423 175t-175 423q0 247 175 422t423 175q247 0 422 -175t175 -422z
M698 1206q-219 0 -363 -144t-144 -363t144 -363t363 -144t363 144t144 363t-144 363t-363 144z" />
    <glyph glyph-name="degree" unicode="&#xb0;" horiz-adv-x="600" 
d="M500 1200q0 -83 -58.5 -141.5t-141.5 -58.5t-141.5 58.5t-58.5 141.5t58.5 141.5t141.5 58.5t141.5 -58.5t58.5 -141.5zM300 1300q-41 0 -70.5 -29.5t-29.5 -70.5t29.5 -70.5t70.5 -29.5t70.5 29.5t29.5 70.5t-29.5 70.5t-70.5 29.5z" />
    <glyph glyph-name="plusminus" unicode="&#xb1;" horiz-adv-x="900" 
d="M400 750v300h100v-300h300v-100h-300v-300h-100v300h-300v100h300zM800 100v-100h-700v100h700z" />
    <glyph glyph-name="acute" unicode="&#xb4;" horiz-adv-x="400" 
d="M100 1100l90 300h110l-90 -300h-110z" />
    <glyph glyph-name="mu" unicode="&#xb5;" 
d="M200 1000v-800q100 -100 300 -100t300 100v800h100v-1000h-100v100q-100 -100 -300 -100q-150 0 -300 84v-530h-100v1446h100z" />
    <glyph glyph-name="paragraph" unicode="&#xb6;" horiz-adv-x="1100" 
d="M1000 1400v-1800h-100v1700h-200v-1700h-100v1000h-100q-400 0 -400 400t400 400h500z" />
    <glyph glyph-name="periodcentered" unicode="&#xb7;" horiz-adv-x="300" 
d="M100 600v200h100v-200h-100z" />
    <glyph glyph-name="cedilla" unicode="&#xb8;" horiz-adv-x="550" 
d="M200 -100q17 1 32 1q218 0 218 -131q0 -150 -170 -150q-100 0 -180 30v80q80 -30 180 -30q90 0 90 70t-170 70v60z" />
    <glyph glyph-name="guillemotright" unicode="&#xbb;" horiz-adv-x="852" 
d="M220 200h-120l280 450l-280 450h120l280 -450zM472 200h-120l280 450l-280 450h120l280 -450z" />
    <glyph glyph-name="questiondown" unicode="&#xbf;" horiz-adv-x="1100" 
d="M700 600v-350h-300q-200 0 -200 -200v-150q0 -200 200 -200h600v-100h-600q-300 0 -300 300v150q0 300 300 300h200v250h100zM600 800v200h100v-200h-100z" />
    <glyph glyph-name="Agrave" unicode="&#xc0;" 
d="M1000 0h-100l-123 400h-554l-123 -400h-100l420 1400h160zM254 500h492l-246 800zM457 1500l-90 300h110l90 -300h-110z" />
    <glyph glyph-name="Aacute" unicode="&#xc1;" 
d="M1000 0h-100l-123 400h-554l-123 -400h-100l420 1400h160zM254 500h492l-246 800zM433 1500l90 300h110l-90 -300h-110z" />
    <glyph glyph-name="Acircumflex" unicode="&#xc2;" 
d="M1000 0h-100l-123 400h-554l-123 -400h-100l420 1400h160zM254 500h492l-246 800zM430 1800h140l180 -300h-120l-130 200l-130 -200h-120z" />
    <glyph glyph-name="Atilde" unicode="&#xc3;" 
d="M1000 0h-100l-123 400h-554l-123 -400h-100l420 1400h160zM254 500h492l-246 800zM130 1500q0 250 190 250q130 0 195 -75t165 -75q90 0 90 150h100q0 -250 -190 -250q-130 0 -195 75t-165 75q-90 0 -90 -150h-100z" />
    <glyph glyph-name="Adieresis" unicode="&#xc4;" 
d="M1000 0h-100l-123 400h-554l-123 -400h-100l420 1400h160zM254 500h492l-246 800zM300 1500v200h100v-200h-100zM600 1500v200h100v-200h-100z" />
    <glyph glyph-name="Aring" unicode="&#xc5;" 
d="M1000 0h-100l-123 400h-554l-123 -400h-100l420 1400h160zM254 500h492l-246 800zM700 1700q0 -83 -58.5 -141.5t-141.5 -58.5t-141.5 58.5t-58.5 141.5t58.5 141.5t141.5 58.5t141.5 -58.5t58.5 -141.5zM500 1800q-41 0 -70.5 -29.5t-29.5 -70.5t29.5 -70.5t70.5 -29.5
t70.5 29.5t29.5 70.5t-29.5 70.5t-70.5 29.5z" />
    <glyph glyph-name="AE" unicode="&#xc6;" horiz-adv-x="1600" 
d="M1500 750v-100h-600v-550h600v-100h-700v400h-577l-123 -400h-100l420 1400h1080v-100h-600v-550h600zM800 1300h-300l-246 -800h546v800z" />
    <glyph glyph-name="Ccedilla" unicode="&#xc7;" 
d="M200 300q0 -200 200 -200h500v-100h-500q-300 0 -300 300v800q0 300 300 300h500v-100h-500q-200 0 -200 -200v-800zM500 -100q17 1 32 1q218 0 218 -131q0 -150 -170 -150q-100 0 -180 30v80q80 -30 180 -30q90 0 90 70t-170 70v60z" />
    <glyph glyph-name="Egrave" unicode="&#xc8;" 
d="M900 750v-100h-700v-550h700v-100h-800v1400h800v-100h-700v-550h700zM457 1500l-90 300h110l90 -300h-110z" />
    <glyph glyph-name="Eacute" unicode="&#xc9;" 
d="M900 750v-100h-700v-550h700v-100h-800v1400h800v-100h-700v-550h700zM433 1500l90 300h110l-90 -300h-110z" />
    <glyph glyph-name="Ecircumflex" unicode="&#xca;" 
d="M900 750v-100h-700v-550h700v-100h-800v1400h800v-100h-700v-550h700zM430 1800h140l180 -300h-120l-130 200l-130 -200h-120z" />
    <glyph glyph-name="Edieresis" unicode="&#xcb;" 
d="M900 750v-100h-700v-550h700v-100h-800v1400h800v-100h-700v-550h700zM300 1500v200h100v-200h-100zM600 1500v200h100v-200h-100z" />
    <glyph glyph-name="Igrave" unicode="&#xcc;" horiz-adv-x="300" 
d="M200 1400v-1400h-100v1400h100zM108 1500l-90 300h110l90 -300h-110z" />
    <glyph glyph-name="Iacute" unicode="&#xcd;" horiz-adv-x="300" 
d="M200 1400v-1400h-100v1400h100zM84 1500l90 300h110l-90 -300h-110z" />
    <glyph glyph-name="Icircumflex" unicode="&#xce;" horiz-adv-x="300" 
d="M200 1400v-1400h-100v1400h100zM81 1800h140l180 -300h-120l-130 200l-130 -200h-120z" />
    <glyph glyph-name="Idieresis" unicode="&#xcf;" horiz-adv-x="300" 
d="M200 1400v-1400h-100v1400h100zM-49 1500v200h100v-200h-100zM251 1500v200h100v-200h-100z" />
    <glyph glyph-name="Eth" unicode="&#xd0;" horiz-adv-x="1100" 
d="M700 1400q300 0 300 -300v-800q0 -300 -300 -300h-600v650h-200v100h200v650h600zM900 1100q0 200 -200 200h-500v-550h200v-100h-200v-550h500q200 0 200 200v800z" />
    <glyph glyph-name="Ntilde" unicode="&#xd1;" horiz-adv-x="1100" 
d="M200 1400l700 -1200v1200h100v-1400h-100l-700 1200v-1200h-100v1400h100zM180 1500q0 250 190 250q130 0 195 -75t165 -75q90 0 90 150h100q0 -250 -190 -250q-130 0 -195 75t-165 75q-90 0 -90 -150h-100z" />
    <glyph glyph-name="Ograve" unicode="&#xd2;" horiz-adv-x="1150" 
d="M1050 300q0 -300 -300 -300h-350q-300 0 -300 300v800q0 300 300 300h350q300 0 300 -300v-800zM200 300q0 -200 200 -200h350q200 0 200 200v800q0 200 -200 200h-350q-200 0 -200 -200v-800zM532 1500l-90 300h110l90 -300h-110z" />
    <glyph glyph-name="Oacute" unicode="&#xd3;" horiz-adv-x="1150" 
d="M1050 300q0 -300 -300 -300h-350q-300 0 -300 300v800q0 300 300 300h350q300 0 300 -300v-800zM200 300q0 -200 200 -200h350q200 0 200 200v800q0 200 -200 200h-350q-200 0 -200 -200v-800zM508 1500l90 300h110l-90 -300h-110z" />
    <glyph glyph-name="Ocircumflex" unicode="&#xd4;" horiz-adv-x="1150" 
d="M1050 300q0 -300 -300 -300h-350q-300 0 -300 300v800q0 300 300 300h350q300 0 300 -300v-800zM200 300q0 -200 200 -200h350q200 0 200 200v800q0 200 -200 200h-350q-200 0 -200 -200v-800zM505 1800h140l180 -300h-120l-130 200l-130 -200h-120z" />
    <glyph glyph-name="Otilde" unicode="&#xd5;" horiz-adv-x="1150" 
d="M1050 300q0 -300 -300 -300h-350q-300 0 -300 300v800q0 300 300 300h350q300 0 300 -300v-800zM200 300q0 -200 200 -200h350q200 0 200 200v800q0 200 -200 200h-350q-200 0 -200 -200v-800zM205 1500q0 250 190 250q130 0 195 -75t165 -75q90 0 90 150h100
q0 -250 -190 -250q-130 0 -195 75t-165 75q-90 0 -90 -150h-100z" />
    <glyph glyph-name="Odieresis" unicode="&#xd6;" horiz-adv-x="1150" 
d="M1050 300q0 -300 -300 -300h-350q-300 0 -300 300v800q0 300 300 300h350q300 0 300 -300v-800zM200 300q0 -200 200 -200h350q200 0 200 200v800q0 200 -200 200h-350q-200 0 -200 -200v-800zM375 1500v200h100v-200h-100zM675 1500v200h100v-200h-100z" />
    <glyph glyph-name="multiply" unicode="&#xd7;" horiz-adv-x="907" 
d="M383 700l-283 283l71 71l283 -283l282 283l71 -71l-283 -283l283 -283l-71 -71l-282 283l-283 -283l-71 71z" />
    <glyph glyph-name="Oslash" unicode="&#xd8;" horiz-adv-x="1150" 
d="M849 1390q201 -45 201 -290v-800q0 -300 -300 -300h-302l-58 -200h-100l58 202q-248 25 -248 298v800q0 300 300 300h352l58 200h100zM200 300q0 -188 177 -200l346 1200h-323q-200 0 -200 -200v-800zM950 1100q0 160 -129 192l-344 -1192h273q200 0 200 200v800z" />
    <glyph glyph-name="Ugrave" unicode="&#xd9;" horiz-adv-x="1100" 
d="M200 1400v-1100q0 -200 200 -200h300q200 0 200 200v1100h100v-1100q0 -300 -300 -300h-300q-300 0 -300 300v1100h100zM507 1500l-90 300h110l90 -300h-110z" />
    <glyph glyph-name="Uacute" unicode="&#xda;" horiz-adv-x="1100" 
d="M200 1400v-1100q0 -200 200 -200h300q200 0 200 200v1100h100v-1100q0 -300 -300 -300h-300q-300 0 -300 300v1100h100zM483 1500l90 300h110l-90 -300h-110z" />
    <glyph glyph-name="Ucircumflex" unicode="&#xdb;" horiz-adv-x="1100" 
d="M200 1400v-1100q0 -200 200 -200h300q200 0 200 200v1100h100v-1100q0 -300 -300 -300h-300q-300 0 -300 300v1100h100zM480 1800h140l180 -300h-120l-130 200l-130 -200h-120z" />
    <glyph glyph-name="Udieresis" unicode="&#xdc;" horiz-adv-x="1100" 
d="M200 1400v-1100q0 -200 200 -200h300q200 0 200 200v1100h100v-1100q0 -300 -300 -300h-300q-300 0 -300 300v1100h100zM350 1500v200h100v-200h-100zM650 1500v200h100v-200h-100z" />
    <glyph glyph-name="Yacute" unicode="&#xdd;" 
d="M110 1400l390 -700l390 700h110l-450 -800v-600h-100v600l-450 800h110zM433 1500l90 300h110l-90 -300h-110z" />
    <glyph glyph-name="Thorn" unicode="&#xde;" horiz-adv-x="1100" 
d="M700 320h-500v-320h-100v1400h100v-330h500q300 0 300 -300v-150q0 -300 -300 -300zM200 970v-550h500q200 0 200 200v150q0 200 -200 200h-500z" />
    <glyph glyph-name="germandbls" unicode="&#xdf;" horiz-adv-x="1100" 
d="M700 100q200 0 200 200v150q0 200 -200 200h-300v100h300q200 0 200 200v150q0 200 -200 200h-300q-200 0 -200 -200v-1100h-100v1100q0 300 300 300h300q300 0 300 -300v-150q0 -220 -170 -250q170 -30 170 -250v-150q0 -300 -300 -300h-300v100h300z" />
    <glyph glyph-name="agrave" unicode="&#xe0;" 
d="M800 600q0 300 -300 300h-300v100h300q400 0 400 -400v-600h-70l-30 100q-100 -100 -300 -100h-100q-300 0 -300 300t300 300h100q200 0 300 -100v100zM500 100q200 0 300 100v200q-100 100 -300 100h-100q-200 0 -200 -200t200 -200h100zM457 1100l-90 300h110l90 -300
h-110z" />
    <glyph glyph-name="aacute" unicode="&#xe1;" 
d="M800 600q0 300 -300 300h-300v100h300q400 0 400 -400v-600h-70l-30 100q-100 -100 -300 -100h-100q-300 0 -300 300t300 300h100q200 0 300 -100v100zM500 100q200 0 300 100v200q-100 100 -300 100h-100q-200 0 -200 -200t200 -200h100zM433 1100l90 300h110l-90 -300
h-110z" />
    <glyph glyph-name="acircumflex" unicode="&#xe2;" 
d="M800 600q0 300 -300 300h-300v100h300q400 0 400 -400v-600h-70l-30 100q-100 -100 -300 -100h-100q-300 0 -300 300t300 300h100q200 0 300 -100v100zM500 100q200 0 300 100v200q-100 100 -300 100h-100q-200 0 -200 -200t200 -200h100zM430 1400h140l180 -300h-120
l-130 200l-130 -200h-120z" />
    <glyph glyph-name="atilde" unicode="&#xe3;" 
d="M800 600q0 300 -300 300h-300v100h300q400 0 400 -400v-600h-70l-30 100q-100 -100 -300 -100h-100q-300 0 -300 300t300 300h100q200 0 300 -100v100zM500 100q200 0 300 100v200q-100 100 -300 100h-100q-200 0 -200 -200t200 -200h100zM130 1100q0 250 190 250
q130 0 195 -75t165 -75q90 0 90 150h100q0 -250 -190 -250q-130 0 -195 75t-165 75q-90 0 -90 -150h-100z" />
    <glyph glyph-name="adieresis" unicode="&#xe4;" 
d="M800 600q0 300 -300 300h-300v100h300q400 0 400 -400v-600h-70l-30 100q-100 -100 -300 -100h-100q-300 0 -300 300t300 300h100q200 0 300 -100v100zM500 100q200 0 300 100v200q-100 100 -300 100h-100q-200 0 -200 -200t200 -200h100zM300 1100v200h100v-200h-100z
M600 1100v200h100v-200h-100z" />
    <glyph glyph-name="aring" unicode="&#xe5;" 
d="M800 600q0 300 -300 300h-300v100h300q400 0 400 -400v-600h-70l-30 100q-100 -100 -300 -100h-100q-300 0 -300 300t300 300h100q200 0 300 -100v100zM500 100q200 0 300 100v200q-100 100 -300 100h-100q-200 0 -200 -200t200 -200h100zM700 1300q0 -83 -58.5 -141.5
t-141.5 -58.5t-141.5 58.5t-58.5 141.5t58.5 141.5t141.5 58.5t141.5 -58.5t58.5 -141.5zM500 1400q-41 0 -70.5 -29.5t-29.5 -70.5t29.5 -70.5t70.5 -29.5t70.5 29.5t29.5 70.5t-29.5 70.5t-70.5 29.5z" />
    <glyph glyph-name="ae" unicode="&#xe6;" horiz-adv-x="1550" 
d="M830 450v-150q0 -200 200 -200h370v-100h-370q-182 0 -246 126q-96 -126 -254 -126h-130q-300 0 -300 300t300 300h130q100 0 200 -100v200q0 200 -200 200h-330v100h330q188 0 245 -147q59 147 255 147h120q300 0 300 -300v-250h-620zM400 500q-200 0 -200 -200
t200 -200h130q150 0 200 100v200q-100 100 -200 100h-130zM830 550h520v150q0 200 -200 200h-120q-200 0 -200 -200v-150z" />
    <glyph glyph-name="ccedilla" unicode="&#xe7;" horiz-adv-x="900" 
d="M200 300q0 -200 200 -200h400v-100h-400q-300 0 -300 300v400q0 300 300 300h400v-100h-400q-200 0 -200 -200v-400zM450 -100q17 1 32 1q218 0 218 -131q0 -150 -170 -150q-100 0 -180 30v80q80 -30 180 -30q90 0 90 70t-170 70v60z" />
    <glyph glyph-name="egrave" unicode="&#xe8;" 
d="M200 450v-150q0 -200 200 -200h450v-100h-450q-300 0 -300 300v400q0 300 300 300h200q300 0 300 -300v-250h-700zM200 550h600v150q0 200 -200 200h-200q-200 0 -200 -200v-150zM457 1100l-90 300h110l90 -300h-110z" />
    <glyph glyph-name="eacute" unicode="&#xe9;" 
d="M200 450v-150q0 -200 200 -200h450v-100h-450q-300 0 -300 300v400q0 300 300 300h200q300 0 300 -300v-250h-700zM200 550h600v150q0 200 -200 200h-200q-200 0 -200 -200v-150zM433 1100l90 300h110l-90 -300h-110z" />
    <glyph glyph-name="ecircumflex" unicode="&#xea;" 
d="M200 450v-150q0 -200 200 -200h450v-100h-450q-300 0 -300 300v400q0 300 300 300h200q300 0 300 -300v-250h-700zM200 550h600v150q0 200 -200 200h-200q-200 0 -200 -200v-150zM430 1400h140l180 -300h-120l-130 200l-130 -200h-120z" />
    <glyph glyph-name="edieresis" unicode="&#xeb;" 
d="M200 450v-150q0 -200 200 -200h450v-100h-450q-300 0 -300 300v400q0 300 300 300h200q300 0 300 -300v-250h-700zM200 550h600v150q0 200 -200 200h-200q-200 0 -200 -200v-150zM300 1100v200h100v-200h-100zM600 1100v200h100v-200h-100z" />
    <glyph glyph-name="igrave" unicode="&#xec;" horiz-adv-x="300" 
d="M200 1000v-1000h-100v1000h100zM108 1100l-90 300h110l90 -300h-110z" />
    <glyph glyph-name="iacute" unicode="&#xed;" horiz-adv-x="300" 
d="M200 1000v-1000h-100v1000h100zM84 1100l90 300h110l-90 -300h-110z" />
    <glyph glyph-name="icircumflex" unicode="&#xee;" horiz-adv-x="300" 
d="M200 1000v-1000h-100v1000h100zM81 1400h140l180 -300h-120l-130 200l-130 -200h-120z" />
    <glyph glyph-name="idieresis" unicode="&#xef;" horiz-adv-x="300" 
d="M200 1000v-1000h-100v1000h100zM-49 1100v200h100v-200h-100zM251 1100v200h100v-200h-100z" />
    <glyph glyph-name="eth" unicode="&#xf0;" 
d="M800 1150h-200v100h200v150h100v-150h200v-100h-200v-1150h-70l-30 100q-100 -100 -300 -100h-100q-300 0 -300 300v400q0 300 300 300h100q200 0 300 -100v250zM500 100q200 0 300 100v600q-100 100 -300 100h-100q-200 0 -200 -200v-400q0 -200 200 -200h100z" />
    <glyph glyph-name="ntilde" unicode="&#xf1;" 
d="M170 1000l30 -100q100 100 300 100h100q300 0 300 -300v-700h-100v700q0 200 -200 200h-100q-200 0 -300 -100v-800h-100v1000h70zM130 1100q0 250 190 250q130 0 195 -75t165 -75q90 0 90 150h100q0 -250 -190 -250q-130 0 -195 75t-165 75q-90 0 -90 -150h-100z" />
    <glyph glyph-name="ograve" unicode="&#xf2;" 
d="M900 300q0 -300 -300 -300h-200q-300 0 -300 300v400q0 300 300 300h200q300 0 300 -300v-400zM200 300q0 -200 200 -200h200q200 0 200 200v400q0 200 -200 200h-200q-200 0 -200 -200v-400zM457 1100l-90 300h110l90 -300h-110z" />
    <glyph glyph-name="oacute" unicode="&#xf3;" 
d="M900 300q0 -300 -300 -300h-200q-300 0 -300 300v400q0 300 300 300h200q300 0 300 -300v-400zM200 300q0 -200 200 -200h200q200 0 200 200v400q0 200 -200 200h-200q-200 0 -200 -200v-400zM433 1100l90 300h110l-90 -300h-110z" />
    <glyph glyph-name="ocircumflex" unicode="&#xf4;" 
d="M900 300q0 -300 -300 -300h-200q-300 0 -300 300v400q0 300 300 300h200q300 0 300 -300v-400zM200 300q0 -200 200 -200h200q200 0 200 200v400q0 200 -200 200h-200q-200 0 -200 -200v-400zM430 1400h140l180 -300h-120l-130 200l-130 -200h-120z" />
    <glyph glyph-name="otilde" unicode="&#xf5;" 
d="M900 300q0 -300 -300 -300h-200q-300 0 -300 300v400q0 300 300 300h200q300 0 300 -300v-400zM200 300q0 -200 200 -200h200q200 0 200 200v400q0 200 -200 200h-200q-200 0 -200 -200v-400zM130 1100q0 250 190 250q130 0 195 -75t165 -75q90 0 90 150h100
q0 -250 -190 -250q-130 0 -195 75t-165 75q-90 0 -90 -150h-100z" />
    <glyph glyph-name="odieresis" unicode="&#xf6;" 
d="M900 300q0 -300 -300 -300h-200q-300 0 -300 300v400q0 300 300 300h200q300 0 300 -300v-400zM200 300q0 -200 200 -200h200q200 0 200 200v400q0 200 -200 200h-200q-200 0 -200 -200v-400zM300 1100v200h100v-200h-100zM600 1100v200h100v-200h-100z" />
    <glyph glyph-name="divide" unicode="&#xf7;" horiz-adv-x="900" 
d="M800 750v-100h-700v100h700zM400 200v200h100v-200h-100zM400 1000v200h100v-200h-100z" />
    <glyph glyph-name="oslash" unicode="&#xf8;" 
d="M692 992q208 -42 208 -292v-400q0 -300 -300 -300h-195l-65 -200h-100l68 208q-208 42 -208 292v400q0 300 300 300h194l66 200h100zM200 300q0 -165 136 -194l229 794h-165q-200 0 -200 -200v-400zM800 700q0 165 -136 194l-230 -794h166q200 0 200 200v400z" />
    <glyph glyph-name="ugrave" unicode="&#xf9;" 
d="M830 0l-30 100q-100 -100 -300 -100h-100q-300 0 -300 300v700h100v-700q0 -200 200 -200h100q200 0 300 100v800h100v-1000h-70zM457 1100l-90 300h110l90 -300h-110z" />
    <glyph glyph-name="uacute" unicode="&#xfa;" 
d="M830 0l-30 100q-100 -100 -300 -100h-100q-300 0 -300 300v700h100v-700q0 -200 200 -200h100q200 0 300 100v800h100v-1000h-70zM433 1100l90 300h110l-90 -300h-110z" />
    <glyph glyph-name="ucircumflex" unicode="&#xfb;" 
d="M830 0l-30 100q-100 -100 -300 -100h-100q-300 0 -300 300v700h100v-700q0 -200 200 -200h100q200 0 300 100v800h100v-1000h-70zM430 1400h140l180 -300h-120l-130 200l-130 -200h-120z" />
    <glyph glyph-name="udieresis" unicode="&#xfc;" 
d="M830 0l-30 100q-100 -100 -300 -100h-100q-300 0 -300 300v700h100v-700q0 -200 200 -200h100q200 0 300 100v800h100v-1000h-70zM300 1100v200h100v-200h-100zM600 1100v200h100v-200h-100z" />
    <glyph glyph-name="yacute" unicode="&#xfd;" 
d="M200 -400v100h400q200 0 200 200v200q-100 -100 -300 -100h-100q-300 0 -300 300v700h100v-700q0 -200 200 -200h100q200 0 300 100v800h100v-1100q0 -300 -300 -300h-400zM433 1100l90 300h110l-90 -300h-110z" />
    <glyph glyph-name="thorn" unicode="&#xfe;" 
d="M100 -400v1800h100v-500q100 100 300 100h100q300 0 300 -300v-400q0 -300 -300 -300h-100q-200 0 -300 100v-500h-100zM500 900q-200 0 -300 -100v-600q100 -100 300 -100h100q200 0 200 200v400q0 200 -200 200h-100z" />
    <glyph glyph-name="ydieresis" unicode="&#xff;" 
d="M200 -400v100h400q200 0 200 200v200q-100 -100 -300 -100h-100q-300 0 -300 300v700h100v-700q0 -200 200 -200h100q200 0 300 100v800h100v-1100q0 -300 -300 -300h-400zM300 1100v200h100v-200h-100zM600 1100v200h100v-200h-100z" />
    <glyph glyph-name="dotlessi" unicode="&#x131;" horiz-adv-x="300" 
d="M200 1000v-1000h-100v1000h100z" />
    <glyph glyph-name="OE" unicode="&#x152;" horiz-adv-x="1700" 
d="M1600 750v-100h-600v-550h600v-100h-700v91q-62 -91 -200 -91h-300q-300 0 -300 300v800q0 300 300 300h300q138 0 200 -92v92h700v-100h-600v-550h600zM200 300q0 -200 200 -200h300q200 0 200 200v800q0 200 -200 200h-300q-200 0 -200 -200v-800z" />
    <glyph glyph-name="oe" unicode="&#x153;" horiz-adv-x="1500" 
d="M800 450v-150q0 -200 200 -200h350v-100h-350q-189 0 -250 135q-62 -135 -250 -135h-100q-300 0 -300 300v400q0 300 300 300h100q188 0 250 -136q61 136 250 136h100q300 0 300 -300v-250h-600zM200 300q0 -200 200 -200h100q200 0 200 200v400q0 200 -200 200h-100
q-200 0 -200 -200v-400zM800 550h500v150q0 200 -200 200h-100q-200 0 -200 -200v-150z" />
    <glyph glyph-name="Scaron" unicode="&#x160;" horiz-adv-x="1100" 
d="M100 0v100h600q200 0 200 200v150q0 200 -200 200h-300q-300 0 -300 300v150q0 300 300 300h600v-100h-600q-200 0 -200 -200v-150q0 -200 200 -200h300q300 0 300 -300v-150q0 -300 -300 -300h-600zM300 1800h120l130 -200l130 200h120l-180 -300h-140z" />
    <glyph glyph-name="scaron" unicode="&#x161;" horiz-adv-x="950" 
d="M100 0v100h450q200 0 200 160v40q0 160 -200 160h-150q-300 0 -300 240v40q0 260 300 260h450v-100h-450q-200 0 -200 -160v-40q0 -140 200 -140h150q300 0 300 -260v-40q0 -260 -300 -260h-450zM225 1400h120l130 -200l130 200h120l-180 -300h-140z" />
    <glyph glyph-name="Ydieresis" unicode="&#x178;" 
d="M110 1400l390 -700l390 700h110l-450 -800v-600h-100v600l-450 800h110zM300 1500v200h100v-200h-100zM600 1500v200h100v-200h-100z" />
    <glyph glyph-name="Zcaron" unicode="&#x17d;" horiz-adv-x="1100" 
d="M1000 1400v-100l-780 -1200h780v-100h-900v100l780 1200h-780v100h900zM300 1800h120l130 -200l130 200h120l-180 -300h-140z" />
    <glyph glyph-name="zcaron" unicode="&#x17e;" 
d="M900 1000v-100l-670 -800h670v-100h-800v100l670 800h-670v100h800zM250 1400h120l130 -200l130 200h120l-180 -300h-140z" />
    <glyph glyph-name="florin" unicode="&#x192;" horiz-adv-x="799" 
d="M349 950h350v-100h-350v-950q0 -300 -300 -300h-100v100h100q200 0 200 200v950h-150v100h150v150q0 300 300 300h150v-100h-150q-200 0 -200 -200v-150z" />
    <glyph glyph-name="circumflex" unicode="&#x2c6;" horiz-adv-x="700" 
d="M280 1400h140l180 -300h-120l-130 200l-130 -200h-120z" />
    <glyph glyph-name="caron" unicode="&#x2c7;" horiz-adv-x="700" 
d="M100 1400h120l130 -200l130 200h120l-180 -300h-140z" />
    <glyph glyph-name="breve" unicode="&#x2d8;" horiz-adv-x="700" 
d="M100 1400h100q0 -200 150 -200t150 200h100q0 -300 -250 -300t-250 300z" />
    <glyph glyph-name="dotaccent" unicode="&#x2d9;" horiz-adv-x="300" 
d="M100 1200v200h100v-200h-100z" />
    <glyph glyph-name="ring" unicode="&#x2da;" horiz-adv-x="600" 
d="M500 1300q0 -83 -58.5 -141.5t-141.5 -58.5t-141.5 58.5t-58.5 141.5t58.5 141.5t141.5 58.5t141.5 -58.5t58.5 -141.5zM300 1400q-41 0 -70.5 -29.5t-29.5 -70.5t29.5 -70.5t70.5 -29.5t70.5 29.5t29.5 70.5t-29.5 70.5t-70.5 29.5z" />
    <glyph glyph-name="ogonek" unicode="&#x2db;" horiz-adv-x="550" 
d="M300 -100q-120 -60 -120 -130t90 -70q100 0 180 30v-80q-80 -30 -180 -30q-170 0 -170 150q0 80 100 130h100z" />
    <glyph glyph-name="tilde" unicode="&#x2dc;" horiz-adv-x="940" 
d="M100 1100q0 250 190 250q130 0 195 -75t165 -75q90 0 90 150h100q0 -250 -190 -250q-130 0 -195 75t-165 75q-90 0 -90 -150h-100z" />
    <glyph glyph-name="hungarumlaut" unicode="&#x2dd;" horiz-adv-x="600" 
d="M100 1100l90 300h110l-90 -300h-110zM300 1100l90 300h110l-90 -300h-110z" />
    <glyph glyph-name="endash" unicode="&#x2013;" horiz-adv-x="700" 
d="M600 750v-100h-500v100h500z" />
    <glyph glyph-name="emdash" unicode="&#x2014;" horiz-adv-x="900" 
d="M800 750v-100h-700v100h700z" />
    <glyph glyph-name="quoteleft" unicode="&#x2018;" horiz-adv-x="400" 
d="M200 1400l100 -300h-100l-100 300h100z" />
    <glyph glyph-name="quoteright" unicode="&#x2019;" horiz-adv-x="400" 
d="M300 1400l-100 -300h-100l100 300h100z" />
    <glyph glyph-name="quotesinglbase" unicode="&#x201a;" horiz-adv-x="400" 
d="M300 200l-100 -300h-100l100 300h100z" />
    <glyph glyph-name="quotedblleft" unicode="&#x201c;" horiz-adv-x="600" 
d="M400 1400l100 -300h-100l-100 300h100zM200 1400l100 -300h-100l-100 300h100z" />
    <glyph glyph-name="quotedblright" unicode="&#x201d;" horiz-adv-x="600" 
d="M300 1400l-100 -300h-100l100 300h100zM500 1400l-100 -300h-100l100 300h100z" />
    <glyph glyph-name="quotedblbase" unicode="&#x201e;" horiz-adv-x="600" 
d="M300 100l-100 -300h-100l100 300h100zM500 100l-100 -300h-100l100 300h100z" />
    <glyph glyph-name="dagger" unicode="&#x2020;" horiz-adv-x="1100" 
d="M1000 1000h-400v-1000h-100v1000h-400v100h400v300h100v-300h400v-100z" />
    <glyph glyph-name="daggerdbl" unicode="&#x2021;" horiz-adv-x="1100" 
d="M1000 300h-400v-300h-100v300h-400v100h400v600h-400v100h400v300h100v-300h400v-100h-400v-600h400v-100z" />
    <glyph glyph-name="bullet" unicode="&#x2022;" horiz-adv-x="500" 
d="M400 900v-300h-300v300h300z" />
    <glyph glyph-name="ellipsis" unicode="&#x2026;" horiz-adv-x="900" 
d="M100 0v200h100v-200h-100zM400 0v200h100v-200h-100zM700 0v200h100v-200h-100z" />
    <glyph glyph-name="perthousand" unicode="&#x2030;" horiz-adv-x="2600" 
d="M2100 0q-300 0 -300 300v200q0 300 300 300h100q300 0 300 -300v-200q0 -300 -300 -300h-100zM800 900q0 -300 -300 -300h-100q-300 0 -300 300v200q0 300 300 300h100q300 0 300 -300v-200zM1300 0q-300 0 -300 300v200q0 300 300 300h100q300 0 300 -300v-200
q0 -300 -300 -300h-100zM1100 300q0 -200 200 -200h100q200 0 200 200v200q0 200 -200 200h-100q-200 0 -200 -200v-200zM1900 300q0 -200 200 -200h100q200 0 200 200v200q0 200 -200 200h-100q-200 0 -200 -200v-200zM200 900q0 -200 200 -200h100q200 0 200 200v200
q0 200 -200 200h-100q-200 0 -200 -200v-200zM500 0l690 1400h110l-690 -1400h-110z" />
    <glyph glyph-name="guilsinglleft" unicode="&#x2039;" horiz-adv-x="600" 
d="M100 650l280 450h120l-280 -450l280 -450h-120z" />
    <glyph glyph-name="guilsinglright" unicode="&#x203a;" horiz-adv-x="600" 
d="M220 200h-120l280 450l-280 450h120l280 -450z" />
    <glyph glyph-name="Euro" unicode="&#x20ac;" horiz-adv-x="1100" 
d="M350 800v-200h500l-26 -100h-474v-200q0 -200 200 -200h450v-100h-450q-300 0 -300 300v200h-150v100h150v200h-150v100h150v200q0 300 300 300h450v-100h-450q-200 0 -200 -200v-200h575l-25 -100h-550z" />
    <glyph glyph-name="trademark" unicode="&#x2122;" horiz-adv-x="1300" 
d="M750 1400l150 -450l150 450h150v-600h-100v450l-150 -450h-100l-150 450v-450h-100v600h150zM500 1400v-100h-150v-500h-100v500h-150v100h400z" />
  </font>
</defs>
</svg>
