<?xml version="1.0" standalone="no"?>
<!DOCTYPE svg PUBLIC "-//W3C//DTD SVG 1.1//EN" "http://www.w3.org/Graphics/SVG/1.1/DTD/svg11.dtd" >
<svg>
<metadata>
Created by FontForge 20090622 at Thu Dec  1 18:43:38 2016
 By deploy user
&#194;&#169; 2009, 2010, 2011, 2012 GrandChaos9000. Some Rights Reserved. (Under licensed of Creative Commons CC-BY-NC-SA 3.0)
</metadata>
<defs>
<font id="AeroMaticsBoldItalic" horiz-adv-x="1100" >
  <font-face 
    font-family="Aero Matics"
    font-weight="700"
    font-style="italic"
    font-stretch="normal"
    units-per-em="2048"
    panose-1="2 11 8 3 6 1 1 1 1 1"
    ascent="1638"
    descent="-410"
    x-height="1000"
    cap-height="1400"
    bbox="-156 -446 2675 1910"
    underline-thickness="150"
    underline-position="-142"
    slope="-8"
    unicode-range="U+0020-U+2122"
  />
<missing-glyph horiz-adv-x="1000" 
d="M100 1400h800v-1400h-800v1400zM200 1300v-1200h600v1200h-600z" />
    <glyph glyph-name=".notdef" horiz-adv-x="1000" 
d="M100 1400h800v-1400h-800v1400zM200 1300v-1200h600v1200h-600z" />
    <glyph glyph-name="space" unicode=" " horiz-adv-x="400" 
 />
    <glyph glyph-name="exclam" unicode="!" horiz-adv-x="500" 
d="M156 400l141 1000h300l-141 -1000h-300zM100 0l42 300h300l-42 -300h-300z" />
    <glyph glyph-name="quotedbl" unicode="&#x22;" horiz-adv-x="1000" 
d="M697 1400l-142 -300h-300l142 300h300zM1097 1400l-142 -300h-300l142 300h300z" />
    <glyph glyph-name="numbersign" unicode="#" horiz-adv-x="1500" 
d="M613 1050l154 350h300l-154 -350h200l154 350h300l-154 -350h135l-36 -250h-215l-88 -200h175l-35 -250h-245l-154 -350h-300l154 350h-200l-154 -350h-300l154 350h-155l35 250h235l88 200h-195l36 250h265zM719 600h190l88 200h-190z" />
    <glyph glyph-name="dollar" unicode="$" horiz-adv-x="1200" 
d="M700 0l-28 -200h-200l28 200h-400l42 300h400l35 250q-349 0 -349 319q0 47 8 101q61 430 461 430l28 200h200l-28 -200h400l-42 -300h-400l-36 -250q348 0 348 -325q0 -49 -8 -105q-59 -420 -459 -420zM536 970q-2 -17 -2 -32q0 -88 85 -88l36 250q-100 0 -119 -130z
M777 550l-35 -250q100 0 117 120q3 20 3 37q0 93 -85 93z" />
    <glyph glyph-name="percent" unicode="%" horiz-adv-x="1900" 
d="M484 600q-263 0 -263 231q0 32 5 69l29 200q42 300 342 300h100q263 0 263 -231q0 -32 -5 -69l-29 -200q-42 -300 -342 -300h-100zM504 920q-1 -10 -1 -18q0 -62 70 -62t81 80l23 160q1 11 1 20q0 60 -60 60q-80 0 -91 -80zM500 0l787 1400h310l-787 -1400h-310zM1400 0
q-263 0 -263 231q0 32 5 69l28 200q42 300 342 300h100q263 0 263 -231q0 -32 -5 -69l-28 -200q-42 -300 -342 -300h-100zM1420 320q-1 -10 -1 -18q0 -62 70 -62t81 80l22 160q2 12 2 22q0 58 -60 58q-80 0 -92 -80z" />
    <glyph glyph-name="ampersand" unicode="&#x26;" horiz-adv-x="1300" 
d="M500 0q-351 0 -351 308q0 43 7 92q38 270 212 300q-134 24 -134 207q0 42 7 93q56 400 456 400h500l-42 -300h-500q-100 0 -114 -100l-7 -50q-2 -13 -2 -24q0 -76 87 -76h300l15 100h300l-15 -100h100l-42 -300h-100l-77 -550h-600zM456 400q-2 -12 -2 -23q0 -77 88 -77
h300l35 250h-300q-100 0 -114 -100z" />
    <glyph glyph-name="quotesingle" unicode="'" horiz-adv-x="600" 
d="M697 1400l-142 -300h-300l142 300h300z" />
    <glyph glyph-name="parenleft" unicode="(" horiz-adv-x="800" 
d="M352 -200q-171 305 -171 668q0 113 17 232q71 500 407 900h320q-356 -400 -427 -900q-16 -111 -16 -218q0 -371 190 -682h-320z" />
    <glyph glyph-name="parenright" unicode=")" horiz-adv-x="800" 
d="M72 -200q356 400 426 900q16 113 16 220q0 370 -189 680h320q170 -304 170 -665q0 -115 -17 -235q-70 -500 -406 -900h-320z" />
    <glyph glyph-name="asterisk" unicode="*" horiz-adv-x="762" 
d="M296 926l109 159l-147 36l48 120l168 -10l24 169h160l-34 -169l180 10l16 -120l-160 -36l66 -159l-119 -69l-87 135l-125 -135z" />
    <glyph glyph-name="plus" unicode="+" horiz-adv-x="1000" 
d="M469 850l36 250h300l-36 -250h250l-42 -300h-250l-35 -250h-300l35 250h-250l42 300h250z" />
    <glyph glyph-name="comma" unicode="," horiz-adv-x="600" 
d="M528 200l-142 -300h-300l142 300h300z" />
    <glyph glyph-name="hyphen" unicode="-" horiz-adv-x="800" 
d="M819 850l-42 -300h-600l42 300h600z" />
    <glyph glyph-name="period" unicode="." horiz-adv-x="500" 
d="M100 0l42 300h300l-42 -300h-300z" />
    <glyph glyph-name="slash" unicode="/" horiz-adv-x="1020" 
d="M372 -200h-300l773 1800h300z" />
    <glyph glyph-name="zero" unicode="0" horiz-adv-x="1150" 
d="M1106 400q-56 -400 -456 -400h-150q-351 0 -351 308q0 43 7 92l85 600q56 400 456 400h150q351 0 351 -308q0 -43 -7 -92zM847 690l-391 -290q-2 -12 -2 -23q0 -77 88 -77h150q100 0 114 100zM500 710l391 290q2 12 2 23q0 77 -88 77h-150q-100 0 -114 -100z" />
    <glyph glyph-name="one" unicode="1" horiz-adv-x="700" 
d="M455 1100h-200l42 300h500l-197 -1400h-300z" />
    <glyph glyph-name="two" unicode="2" horiz-adv-x="1150" 
d="M100 0l63 450q56 400 456 400h150q100 0 115 100l7 50q2 12 2 23q0 77 -88 77h-550l42 300h550q351 0 351 -308q0 -43 -7 -92l-7 -50q-57 -400 -457 -400h-150q-100 0 -114 -100l-21 -150h650l-42 -300h-950z" />
    <glyph glyph-name="three" unicode="3" 
d="M219 850h500q100 0 115 100l7 50q2 12 2 23q0 77 -88 77h-500l42 300h500q351 0 351 -308q0 -43 -7 -92q-38 -270 -213 -300q135 -24 135 -208q0 -42 -7 -92q-56 -400 -456 -400h-500l42 300h500q100 0 114 100l7 50q2 12 2 23q0 77 -88 77h-500z" />
    <glyph glyph-name="four" unicode="4" horiz-adv-x="1200" 
d="M487 1400h310l-289 -700h390l99 700h300l-197 -1400h-300l56 400h-700l42 300z" />
    <glyph glyph-name="five" unicode="5" horiz-adv-x="1150" 
d="M100 0l42 300h550q100 0 114 100l7 50q2 12 2 23q0 77 -88 77h-550l120 850h950l-42 -300h-650l-36 -250h250q351 0 351 -308q0 -43 -7 -92l-7 -50q-56 -400 -456 -400h-550z" />
    <glyph glyph-name="six" unicode="6" horiz-adv-x="1200" 
d="M519 850h300q351 0 351 -308q0 -43 -7 -92l-7 -50q-56 -400 -456 -400h-200q-351 0 -351 308q0 43 7 92l70 500q71 500 571 500h400l-42 -300h-400q-200 0 -229 -200zM477 550l-21 -150q-2 -12 -2 -23q0 -77 88 -77h200q100 0 114 100l7 50q2 12 2 23q0 77 -88 77h-300z
" />
    <glyph glyph-name="seven" unicode="7" horiz-adv-x="1200" 
d="M1297 1400l-42 -300l-615 -1100h-340l615 1100h-660l42 300h1000z" />
    <glyph glyph-name="eight" unicode="8" horiz-adv-x="1200" 
d="M241 1000q56 400 456 400h200q351 0 351 -308q0 -43 -7 -92q-38 -270 -213 -300q135 -24 135 -208q0 -42 -7 -92q-56 -400 -456 -400h-200q-351 0 -351 308q0 43 7 92q38 270 212 300q-134 24 -134 207q0 42 7 93zM819 850q100 0 115 100l7 50q2 12 2 23q0 77 -88 77
h-200q-100 0 -114 -100l-7 -50q-2 -13 -2 -24q0 -76 87 -76h200zM577 550q-100 0 -114 -100l-7 -50q-2 -12 -2 -23q0 -77 88 -77h200q100 0 114 100l7 50q2 12 2 23q0 77 -88 77h-200z" />
    <glyph glyph-name="nine" unicode="9" horiz-adv-x="1200" 
d="M877 550h-300q-350 0 -350 306q0 44 7 94l7 50q56 400 456 400h200q351 0 351 -308q0 -43 -7 -92l-71 -500q-70 -500 -570 -500h-400l42 300h400q200 0 228 200zM919 850l22 150q2 12 2 23q0 77 -88 77h-200q-100 0 -114 -100l-7 -50q-2 -13 -2 -24q0 -76 87 -76h300z
" />
    <glyph glyph-name="colon" unicode=":" horiz-adv-x="500" 
d="M100 0l42 300h300l-42 -300h-300zM198 700l43 300h300l-43 -300h-300z" />
    <glyph glyph-name="semicolon" unicode=";" horiz-adv-x="600" 
d="M298 700l43 300h300l-43 -300h-300zM528 200l-142 -300h-300l142 300h300z" />
    <glyph glyph-name="less" unicode="&#x3c;" horiz-adv-x="1000" 
d="M184 600l28 200l857 400l-43 -300l-478 -200l422 -200l-42 -300z" />
    <glyph glyph-name="equal" unicode="=" horiz-adv-x="800" 
d="M855 1100l-43 -300h-600l43 300h600zM784 600l-42 -300h-600l42 300h600z" />
    <glyph glyph-name="greater" unicode="&#x3e;" horiz-adv-x="1000" 
d="M128 200l42 300l478 200l-422 200l43 300l743 -400l-28 -200z" />
    <glyph glyph-name="question" unicode="?" 
d="M356 400l56 400h300q100 0 114 100l15 100q2 12 2 23q0 77 -88 77h-500l42 300h500q351 0 351 -308q0 -43 -7 -92l-15 -100q-56 -400 -456 -400l-14 -100h-300zM642 300l-42 -300h-300l42 300h300z" />
    <glyph glyph-name="at" unicode="@" horiz-adv-x="1500" 
d="M1192 300q-202 0 -223 115q-77 -115 -227 -115q-263 0 -263 231q0 32 5 69l28 200q43 300 343 300q150 0 186 -100l14 100h200l-71 -500q-3 -22 -3 -39q0 -61 39 -61q50 0 64 100l42 300q5 38 5 70q0 230 -262 230h-300q-300 0 -343 -300l-56 -400q-5 -37 -5 -69
q0 -231 263 -231h600l-28 -200h-600q-439 0 -439 385q0 54 9 115l56 400q71 500 571 500h300q438 0 438 -383q0 -55 -9 -117l-42 -300q-42 -300 -292 -300zM770 500q150 0 214 100l28 200q-36 100 -186 100q-100 0 -114 -100l-28 -200q-2 -12 -2 -23q0 -77 88 -77z" />
    <glyph glyph-name="A" unicode="A" horiz-adv-x="1300" 
d="M1300 0h-300l-51 300h-514l-135 -300h-300l617 1400h460zM568 600h332l-95 500z" />
    <glyph glyph-name="B" unicode="B" horiz-adv-x="1200" 
d="M897 1400q351 0 351 -308q0 -43 -7 -92q-38 -270 -213 -300q135 -24 135 -208q0 -42 -7 -92q-56 -400 -456 -400h-600l197 1400h600zM555 1100l-36 -250h300q100 0 115 100l7 50q2 12 2 23q0 77 -88 77h-300zM477 550l-35 -250h300q100 0 114 100l7 50q2 12 2 23
q0 77 -88 77h-300z" />
    <glyph glyph-name="C" unicode="C" 
d="M456 400q-2 -12 -2 -23q0 -77 88 -77h500l-42 -300h-500q-351 0 -351 308q0 43 7 92l85 600q56 400 456 400h500l-42 -300h-500q-100 0 -114 -100z" />
    <glyph glyph-name="D" unicode="D" horiz-adv-x="1200" 
d="M897 1400q351 0 351 -308q0 -43 -7 -92l-85 -600q-56 -400 -456 -400h-600l197 1400h600zM941 1000q2 12 2 23q0 77 -88 77h-300l-113 -800h300q100 0 114 100z" />
    <glyph glyph-name="E" unicode="E" 
d="M1119 850l-42 -300h-600l-35 -250h600l-42 -300h-900l197 1400h900l-42 -300h-600l-36 -250h600z" />
    <glyph glyph-name="F" unicode="F" 
d="M1119 850l-42 -300h-600l-77 -550h-300l197 1400h900l-42 -300h-600l-36 -250h600z" />
    <glyph glyph-name="G" unicode="G" horiz-adv-x="1200" 
d="M456 400q-2 -12 -2 -23q0 -77 88 -77h200q100 0 114 100l21 150h-200l42 300h500l-63 -450q-56 -400 -456 -400h-200q-351 0 -351 308q0 43 7 92l85 600q56 400 456 400h600l-42 -300h-600q-100 0 -114 -100z" />
    <glyph glyph-name="H" unicode="H" horiz-adv-x="1200" 
d="M597 1400l-78 -550h400l78 550h300l-197 -1400h-300l77 550h-400l-77 -550h-300l197 1400h300z" />
    <glyph glyph-name="I" unicode="I" horiz-adv-x="500" 
d="M597 1400l-197 -1400h-300l197 1400h300z" />
    <glyph glyph-name="J" unicode="J" horiz-adv-x="800" 
d="M597 1400h300l-141 -1000q-56 -400 -456 -400h-200l42 300h200q100 0 114 100z" />
    <glyph glyph-name="K" unicode="K" horiz-adv-x="1150" 
d="M100 0l197 1400h300l-92 -650l472 650h320l-519 -700l322 -700h-320l-289 650l-91 -650h-300z" />
    <glyph glyph-name="L" unicode="L" 
d="M442 300h600l-42 -300h-900l197 1400h300z" />
    <glyph glyph-name="M" unicode="M" horiz-adv-x="1700" 
d="M297 1400h420l210 -850l450 850h420l-197 -1400h-300l119 850l-439 -850h-260l-201 850l-119 -850h-300z" />
    <glyph glyph-name="N" unicode="N" horiz-adv-x="1300" 
d="M597 1400l380 -850l120 850h300l-197 -1400h-300l-381 850l-119 -850h-300l197 1400h300z" />
    <glyph glyph-name="O" unicode="O" horiz-adv-x="1250" 
d="M1206 400q-56 -400 -456 -400h-250q-351 0 -351 308q0 43 7 92l85 600q56 400 456 400h250q351 0 351 -308q0 -43 -7 -92zM456 400q-2 -12 -2 -23q0 -77 88 -77h250q100 0 114 100l85 600q2 12 2 23q0 77 -88 77h-250q-100 0 -114 -100z" />
    <glyph glyph-name="P" unicode="P" horiz-adv-x="1200" 
d="M470 500l-70 -500h-300l197 1400h600q351 0 351 -308q0 -43 -7 -92l-15 -100q-56 -400 -456 -400h-300zM555 1100l-43 -300h300q100 0 114 100l15 100q2 12 2 23q0 77 -88 77h-300z" />
    <glyph glyph-name="Q" unicode="Q" horiz-adv-x="1250" 
d="M690 0h-190q-351 0 -351 308q0 43 7 92l85 600q56 400 456 400h250q351 0 351 -308q0 -43 -7 -92l-85 -600q-42 -300 -306 -400l42 -200h-200zM780 500l42 -200q73 20 84 100l85 600q2 12 2 23q0 77 -88 77h-250q-100 0 -114 -100l-85 -600q-2 -12 -2 -23q0 -77 88 -77
h80l-42 200h200z" />
    <glyph glyph-name="R" unicode="R" horiz-adv-x="1200" 
d="M670 500h-200l-70 -500h-300l197 1400h600q351 0 351 -308q0 -43 -7 -92l-15 -100q-34 -245 -232 -346l106 -554h-300zM555 1100l-43 -300h300q100 0 114 100l15 100q2 12 2 23q0 77 -88 77h-300z" />
    <glyph glyph-name="S" unicode="S" horiz-adv-x="1200" 
d="M100 0l42 300h600q100 0 114 100l7 50q2 12 2 23q0 77 -88 77h-200q-350 0 -350 306q0 44 7 94l7 50q56 400 456 400h600l-42 -300h-600q-100 0 -114 -100l-7 -50q-2 -13 -2 -24q0 -76 87 -76h200q351 0 351 -308q0 -43 -7 -92l-7 -50q-56 -400 -456 -400h-600z" />
    <glyph glyph-name="T" unicode="T" horiz-adv-x="1200" 
d="M1297 1400l-42 -300h-350l-155 -1100h-300l155 1100h-350l42 300h1000z" />
    <glyph glyph-name="U" unicode="U" horiz-adv-x="1200" 
d="M597 1400l-141 -1000q-2 -12 -2 -23q0 -77 88 -77h200q100 0 114 100l141 1000h300l-141 -1000q-56 -400 -456 -400h-200q-351 0 -351 308q0 43 7 92l141 1000h300z" />
    <glyph glyph-name="V" unicode="V" horiz-adv-x="1200" 
d="M1097 1400h300l-567 -1400h-460l-173 1400h300l145 -1100z" />
    <glyph glyph-name="W" unicode="W" horiz-adv-x="1800" 
d="M1530 0h-460l-46 881l-294 -881h-460l-73 1400h300l59 -1000l341 1000h400l59 -1000l341 1000h300z" />
    <glyph glyph-name="X" unicode="X" horiz-adv-x="1400" 
d="M100 0l463 700l-266 700h330l200 -496l340 496h330l-464 -700l267 -700h-330l-200 495l-340 -495h-330z" />
    <glyph glyph-name="Y" unicode="Y" horiz-adv-x="1200" 
d="M507 1400l219 -500l361 500h310l-563 -800l-84 -600h-300l84 600l-337 800h310z" />
    <glyph glyph-name="Z" unicode="Z" horiz-adv-x="1200" 
d="M1297 1400l-42 -300l-743 -800h630l-42 -300h-1000l42 300l743 800h-630l42 300h1000z" />
    <glyph glyph-name="bracketleft" unicode="[" horiz-adv-x="700" 
d="M783 1300h-200l-169 -1200h200l-42 -300h-500l253 1800h500z" />
    <glyph glyph-name="backslash" unicode="\" horiz-adv-x="1020" 
d="M325 1600h300l267 -1800h-300z" />
    <glyph glyph-name="bracketright" unicode="]" horiz-adv-x="700" 
d="M325 1600h500l-253 -1800h-500l42 300h200l169 1200h-200z" />
    <glyph glyph-name="asciicircum" unicode="^" horiz-adv-x="1200" 
d="M647 1400h300l251 -700h-300l-136 450l-264 -450h-300z" />
    <glyph glyph-name="underscore" unicode="_" horiz-adv-x="800" 
d="M772 -200l-28 -200h-800l28 200h800z" />
    <glyph glyph-name="grave" unicode="`" horiz-adv-x="600" 
d="M345 1100l-48 300h310l48 -300h-310z" />
    <glyph glyph-name="a" unicode="a" 
d="M601 720h-300l40 280h300q442 0 442 -360q0 -47 -7 -100l-76 -540h-280l-9 80q-61 -80 -211 -80h-100q-262 0 -262 236q0 34 6 74q43 310 343 310h100q150 0 189 -80q3 20 3 38q0 142 -178 142zM534 240q150 0 207 50l8 60q-43 50 -193 50q-100 0 -111 -80q-1 -8 -1 -15
q0 -65 90 -65z" />
    <glyph glyph-name="b" unicode="b" 
d="M529 920q62 80 212 80q350 0 350 -306q0 -44 -7 -94l-28 -200q-56 -400 -456 -400q-150 0 -189 80l-31 -80h-280l197 1400h300zM642 300q100 0 114 100l28 200q2 12 2 23q0 77 -88 77q-150 0 -207 -50l-42 -300q43 -50 193 -50z" />
    <glyph glyph-name="c" unicode="c" horiz-adv-x="1000" 
d="M456 400q-2 -12 -2 -23q0 -77 88 -77h400l-42 -300h-400q-351 0 -351 308q0 43 7 92l28 200q57 400 457 400h400l-43 -300h-400q-100 0 -114 -100z" />
    <glyph glyph-name="d" unicode="d" 
d="M897 1400h300l-197 -1400h-280l-9 80q-61 -80 -211 -80q-351 0 -351 308q0 43 7 92l28 200q57 400 457 400q150 0 188 -80zM542 300q150 0 207 50l42 300q-43 50 -193 50q-100 0 -114 -100l-28 -200q-2 -12 -2 -23q0 -77 88 -77z" />
    <glyph glyph-name="e" unicode="e" 
d="M453 380l-4 -30q-2 -12 -2 -23q0 -77 88 -77h450l-35 -250h-450q-351 0 -351 308q0 43 7 92l28 200q57 400 457 400h100q350 0 350 -306q0 -44 -7 -94l-31 -220h-600zM490 640l-6 -40h300l6 40q2 12 2 23q0 77 -88 77h-100q-100 0 -114 -100z" />
    <glyph glyph-name="f" unicode="f" horiz-adv-x="900" 
d="M691 1000h250l-43 -300h-250l-98 -700h-300l98 700h-150l43 300h150q56 400 456 400h150l-42 -300h-150q-100 0 -114 -100z" />
    <glyph glyph-name="g" unicode="g" 
d="M711 80q-71 -80 -211 -80q-400 0 -344 400l28 200q57 400 457 400q140 0 188 -80l42 80h270l-127 -900q-70 -500 -570 -500h-300l42 300h300q200 0 228 200zM598 700q-100 0 -114 -100l-28 -200q-14 -100 86 -100q140 0 207 50l42 300q-53 50 -193 50z" />
    <glyph glyph-name="h" unicode="h" 
d="M400 0h-300l197 1400h300l-68 -480q62 80 212 80q350 0 350 -306q0 -44 -7 -94l-84 -600h-300l84 600q2 12 2 23q0 77 -88 77q-150 0 -207 -50z" />
    <glyph glyph-name="i" unicode="i" horiz-adv-x="500" 
d="M541 1000l-141 -1000h-300l141 1000h300zM597 1400l-42 -300h-300l42 300h300z" />
    <glyph glyph-name="j" unicode="j" horiz-adv-x="500" 
d="M-156 -400l42 300h100q100 0 114 100l141 1000h300l-141 -1000q-56 -400 -456 -400h-100zM597 1400l-42 -300h-300l42 300h300z" />
    <glyph glyph-name="k" unicode="k" 
d="M597 1400l-120 -850l334 450h330l-381 -500l240 -500h-330l-207 450l-63 -450h-300l197 1400h300z" />
    <glyph glyph-name="l" unicode="l" horiz-adv-x="500" 
d="M597 1400l-197 -1400h-300l197 1400h300z" />
    <glyph glyph-name="m" unicode="m" horiz-adv-x="1700" 
d="M521 1000l5 -100q65 100 215 100q173 0 237 -130q137 130 363 130q356 0 356 -277q0 -34 -6 -73l-91 -650h-300l84 600q1 9 1 16q0 84 -137 84q-150 0 -164 -100l-84 -600h-300l86 610q1 8 1 15q0 75 -119 75q-120 0 -184 -100l-84 -600h-300l141 1000h280z" />
    <glyph glyph-name="n" unicode="n" 
d="M400 0h-300l141 1000h280l8 -80q62 80 212 80q350 0 350 -306q0 -44 -7 -94l-84 -600h-300l84 600q2 12 2 23q0 77 -88 77q-150 0 -207 -50z" />
    <glyph glyph-name="o" unicode="o" 
d="M1056 400q-56 -400 -456 -400h-100q-351 0 -351 308q0 43 7 92l28 200q57 400 457 400h100q350 0 350 -306q0 -44 -7 -94zM456 400q-2 -12 -2 -23q0 -77 88 -77h100q100 0 114 100l28 200q1 10 1 20q0 70 -88 70h-100q-100 0 -113 -90z" />
    <glyph glyph-name="p" unicode="p" 
d="M344 -400h-300l197 1400h280l8 -80q62 80 212 80q350 0 350 -306q0 -44 -7 -94l-28 -200q-56 -400 -456 -400q-150 0 -189 80zM698 700q-150 0 -207 -50l-42 -300q43 -50 193 -50q100 0 114 100l28 200q2 12 2 23q0 77 -88 77z" />
    <glyph glyph-name="q" unicode="q" 
d="M711 80q-61 -80 -211 -80q-351 0 -351 308q0 43 7 92l28 200q57 400 457 400q150 0 188 -80l32 80h280l-197 -1400h-300zM598 700q-100 0 -114 -100l-28 -200q-2 -12 -2 -23q0 -77 88 -77q150 0 207 50l42 300q-43 50 -193 50z" />
    <glyph glyph-name="r" unicode="r" horiz-adv-x="750" 
d="M400 0h-300l141 1000h280l8 -80q62 80 212 80h100l-43 -300h-100q-150 0 -207 -50z" />
    <glyph glyph-name="s" unicode="s" horiz-adv-x="1050" 
d="M100 0l35 250h480q70 0 79 60q1 8 1 15q0 55 -62 55h-180q-266 0 -266 213q0 27 4 57l12 80q38 270 338 270h500l-36 -250h-430q-70 0 -78 -60q-1 -5 -1 -9q0 -41 64 -41h180q264 0 264 -225q0 -30 -5 -65l-11 -80q-38 -270 -338 -270h-550z" />
    <glyph glyph-name="t" unicode="t" horiz-adv-x="900" 
d="M606 400q-2 -12 -2 -23q0 -77 88 -77h150l-42 -300h-150q-351 0 -351 308q0 43 7 92l42 300h-150l43 300h150l42 300l314 100l-56 -400h250l-43 -300h-250z" />
    <glyph glyph-name="u" unicode="u" 
d="M841 1000h300l-141 -1000h-280l-9 80q-61 -80 -211 -80q-351 0 -351 308q0 43 7 92l85 600h300l-85 -600q-2 -12 -2 -23q0 -77 88 -77q150 0 207 50z" />
    <glyph glyph-name="v" unicode="v" 
d="M770 0h-440l-139 1000h300l94 -750l306 750h300z" />
    <glyph glyph-name="w" unicode="w" horiz-adv-x="1500" 
d="M1084 310l207 690h300l-371 -1000h-350l-31 632l-209 -632h-350l-89 1000h300l14 -680l216 680h340z" />
    <glyph glyph-name="x" unicode="x" horiz-adv-x="1200" 
d="M561 1000l129 -362l231 362h320l-331 -500l190 -500h-320l-129 362l-231 -362h-320l330 500l-189 500h320z" />
    <glyph glyph-name="y" unicode="y" 
d="M841 1000h300l-141 -1000q-56 -400 -456 -400h-400l42 300h300q200 0 214 100l11 80q-71 -80 -211 -80q-351 0 -351 308q0 43 7 92l85 600h300l-85 -600q-2 -12 -2 -23q0 -77 88 -77q140 0 207 50z" />
    <glyph glyph-name="z" unicode="z" horiz-adv-x="1000" 
d="M1041 1000l-43 -300l-476 -400h420l-42 -300h-800l42 300l476 400h-420l43 300h800z" />
    <glyph glyph-name="braceleft" unicode="{" horiz-adv-x="900" 
d="M219 850q200 0 222 150l14 100q70 500 570 500l-42 -300q-200 0 -228 -200l-21 -150q-31 -220 -236 -250q169 -26 169 -193q0 -27 -4 -57l-21 -150q-3 -25 -3 -46q0 -154 175 -154l-42 -300q-439 0 -439 385q0 54 9 115l14 100q2 14 2 27q0 123 -181 123z" />
    <glyph glyph-name="bar" unicode="|" horiz-adv-x="500" 
d="M625 1600l-253 -1800h-300l253 1800h300z" />
    <glyph glyph-name="braceright" unicode="}" horiz-adv-x="900" 
d="M877 550q-200 0 -221 -150l-14 -100q-70 -500 -570 -500l42 300q200 0 228 200l21 150q31 220 235 250q-168 26 -168 193q0 27 4 57l21 150q3 25 3 46q0 154 -175 154l42 300q439 0 439 -385q0 -54 -9 -115l-14 -100q-2 -15 -2 -28q0 -122 180 -122z" />
    <glyph glyph-name="asciitilde" unicode="~" horiz-adv-x="1200" 
d="M170 500q56 400 356 400q130 0 206 -100t176 -100q90 0 118 200h200q-56 -400 -356 -400q-130 0 -206.5 95t-176.5 95q-90 0 -117 -190h-200z" />
    <glyph glyph-name="uni00A0" unicode="&#xa0;" horiz-adv-x="400" 
 />
    <glyph glyph-name="exclamdown" unicode="&#xa1;" horiz-adv-x="500" 
d="M484 600l-140 -1000h-300l140 1000h300zM541 1000l-43 -300h-300l43 300h300z" />
    <glyph glyph-name="cent" unicode="&#xa2;" horiz-adv-x="1000" 
d="M847 1400l-28 -200h250l-43 -300h-250l-56 -400h250l-42 -300h-250l-28 -200h-100l28 200h-50q-351 0 -351 308q0 43 7 92l28 200q57 400 457 400h50l28 200h100zM484 600q-2 -12 -2 -23q0 -77 88 -77h50l56 400h-50q-100 0 -114 -100z" />
    <glyph glyph-name="sterling" unicode="&#xa3;" 
d="M669 850h450l-42 -300h-450l-35 -250h450l-42 -300h-900l42 300h150l35 250h-150l42 300h150l22 150q56 400 456 400h350l-42 -300h-350q-100 0 -114 -100z" />
    <glyph glyph-name="yen" unicode="&#xa5;" horiz-adv-x="1200" 
d="M507 1400l219 -500l361 500h310l-493 -700h244l-28 -200h-300l-21 -150h300l-28 -200h-300l-21 -150h-300l21 150h-300l28 200h300l21 150h-300l28 200h243l-294 700h310z" />
    <glyph glyph-name="brokenbar" unicode="&#xa6;" horiz-adv-x="500" 
d="M625 1600l-113 -800h-300l113 800h300zM484 600l-112 -800h-300l112 800h300z" />
    <glyph glyph-name="dieresis" unicode="&#xa8;" horiz-adv-x="1000" 
d="M255 1100l42 300h300l-42 -300h-300zM755 1100l42 300h300l-42 -300h-300z" />
    <glyph glyph-name="copyright" unicode="&#xa9;" horiz-adv-x="1395" 
d="M1393 698q-35 -248 -234.5 -423t-446.5 -175q-248 0 -398 175q-123 142 -123 332q0 44 7 91q35 247 234.5 422t447.5 175q247 0 398 -175q122 -142 122 -331q0 -44 -7 -91zM860 1155q-189 0 -341.5 -134t-179.5 -323q-5 -35 -5 -68q0 -146 94 -255q115 -134 304 -134
t342 134t179 323q5 36 5 70q0 144 -93 253q-116 134 -305 134zM968 767q-8 30 -30 55q-44 52 -117 52t-132 -51.5t-69 -124.5q-2 -14 -2 -26q0 -57 36 -98q44 -52 117 -52t132 51q31 28 48 61h146q-31 -91 -109 -160q-105 -93 -236 -93t-211 93q-65 76 -65 177q0 23 3 47
q19 131 125 223.5t237 92.5t209 -93q59 -67 65 -154h-147z" />
    <glyph glyph-name="guillemotleft" unicode="&#xab;" horiz-adv-x="1328" 
d="M191 650l344 450h320l-344 -450l217 -450h-320zM719 650l344 450h320l-344 -450l217 -450h-320z" />
    <glyph glyph-name="logicalnot" unicode="&#xac;" horiz-adv-x="1000" 
d="M1019 850l-77 -550h-300l35 250h-500l42 300h800z" />
    <glyph glyph-name="registered" unicode="&#xae;" horiz-adv-x="1395" 
d="M1392 693q-34 -248 -234 -423t-447 -175q-248 0 -398 175q-122 143 -122 334q0 43 6 89q35 247 234.5 422t447.5 175q247 0 398 -175q122 -142 122 -331q0 -44 -7 -91zM860 1150q-189 0 -342 -134t-180 -323q-5 -35 -5 -68q0 -146 94 -255q115 -134 304 -134t342 134
t179 323q5 36 5 70q0 144 -93 253q-115 134 -304 134zM890 1009q185 0 185 -162q0 -23 -4 -49q-19 -136 -122 -185l63 -237h-152l-53 211h-138l-29 -211h-141l89 633h302zM850 728q70 0 80 70q1 9 1 17q0 54 -61 54h-161l-20 -141h161z" />
    <glyph glyph-name="degree" unicode="&#xb0;" horiz-adv-x="620" 
d="M689 1200q-13 -87 -83 -148.5t-157 -61.5t-140 62q-43 49 -43 115q0 16 3 33q12 87 82 148.5t157 61.5t140 -61q43 -51 43 -118q0 -15 -2 -31zM491 1290q-37 0 -67 -26.5t-35 -63.5q-1 -8 -1 -15q0 -27 18 -48q23 -27 60 -27t67 26.5t36 63.5q1 7 1 13q0 29 -19 51
q-23 26 -60 26z" />
    <glyph glyph-name="plusminus" unicode="&#xb1;" horiz-adv-x="1000" 
d="M491 1000l35 250h300l-35 -250h250l-43 -300h-250l-35 -250h-300l35 250h-250l43 300h250zM943 303l-43 -300h-800l43 300h800z" />
    <glyph glyph-name="acute" unicode="&#xb4;" horiz-adv-x="600" 
d="M255 1100l132 300h310l-132 -300h-310z" />
    <glyph glyph-name="mu" unicode="&#xb5;" horiz-adv-x="1200" 
d="M541 1000l-85 -600q36 -100 186 -100t214 100l85 600h300l-141 -1000h-300l14 100q-64 -100 -214 -100t-188 84l-75 -530h-300l204 1446h300z" />
    <glyph glyph-name="paragraph" unicode="&#xb6;" horiz-adv-x="1500" 
d="M1597 1400l-253 -1800h-300l211 1500h-200l-211 -1500h-300l112 800q-439 0 -439 385q0 54 9 115q71 500 571 500h800z" />
    <glyph glyph-name="periodcentered" unicode="&#xb7;" horiz-adv-x="500" 
d="M177 550l42 300h300l-42 -300h-300z" />
    <glyph glyph-name="cedilla" unicode="&#xb8;" horiz-adv-x="600" 
d="M186 -100q17 1 32 1q251 0 251 -115q0 -8 -1 -16q-28 -200 -248 -200q-100 0 -176 30l18 130q76 -30 176 -30q90 0 98 60v6q0 54 -161 54z" />
    <glyph glyph-name="guillemotright" unicode="&#xbb;" horiz-adv-x="1328" 
d="M448 200h-320l343 450l-216 450h320l216 -450zM976 200h-320l343 450l-216 450h320l216 -450z" />
    <glyph glyph-name="questiondown" unicode="&#xbf;" 
d="M884 600l-56 -400h-300q-100 0 -114 -100l-14 -100q-2 -12 -2 -23q0 -77 88 -77h500l-42 -300h-500q-351 0 -351 308q0 43 7 92l14 100q56 400 456 400l14 100h300zM598 700l43 300h300l-43 -300h-300z" />
    <glyph glyph-name="Agrave" unicode="&#xc0;" horiz-adv-x="1300" 
d="M1300 0h-300l-51 300h-514l-135 -300h-300l617 1400h460zM568 600h332l-95 500zM684 1500l-48 300h310l48 -300h-310z" />
    <glyph glyph-name="Aacute" unicode="&#xc1;" horiz-adv-x="1300" 
d="M1300 0h-300l-51 300h-514l-135 -300h-300l617 1400h460zM568 600h332l-95 500zM728 1500l132 300h310l-132 -300h-310z" />
    <glyph glyph-name="Acircumflex" unicode="&#xc2;" horiz-adv-x="1300" 
d="M1300 0h-300l-51 300h-514l-135 -300h-300l617 1400h460zM568 600h332l-95 500zM763 1800h280l118 -300h-200l-72 200l-128 -200h-200z" />
    <glyph glyph-name="Atilde" unicode="&#xc3;" horiz-adv-x="1300" 
d="M1300 0h-300l-51 300h-514l-135 -300h-300l617 1400h460zM568 600h332l-95 500zM491 1500q35 250 225 250q100 0 174.5 -40t144.5 -40t81 80h150q-35 -250 -225 -250q-100 0 -174.5 40t-144.5 40t-81 -80h-150z" />
    <glyph glyph-name="Adieresis" unicode="&#xc4;" horiz-adv-x="1300" 
d="M1300 0h-300l-51 300h-514l-135 -300h-300l617 1400h460zM568 600h332l-95 500zM461 1500l42 300h300l-42 -300h-300zM961 1500l42 300h300l-42 -300h-300z" />
    <glyph glyph-name="Aring" unicode="&#xc5;" horiz-adv-x="1300" 
d="M1300 0h-300l-51 300h-514l-135 -300h-300l617 1400h460zM568 600h332l-95 500zM1099 1700q-12 -87 -82.5 -148.5t-157.5 -61.5t-139 62q-43 50 -43 116q0 16 2 32q12 87 82 148.5t157 61.5t140 -61q43 -51 43 -118q0 -15 -2 -31zM902 1790q-37 0 -67.5 -26.5
t-35.5 -63.5q-1 -7 -1 -13q0 -29 19 -50q22 -27 59 -27t67.5 26.5t35.5 63.5q1 7 1 13q0 29 -18 51q-23 26 -60 26z" />
    <glyph glyph-name="AE" unicode="&#xc6;" horiz-adv-x="1700" 
d="M1719 850l-42 -300h-500l-35 -250h500l-42 -300h-800l42 300h-407l-135 -300h-300l617 1400h1180l-42 -300h-500l-36 -250h500zM955 1100h-150l-227 -500h306z" />
    <glyph glyph-name="Ccedilla" unicode="&#xc7;" 
d="M456 400q-2 -12 -2 -23q0 -77 88 -77h500l-42 -300h-500q-351 0 -351 308q0 43 7 92l85 600q56 400 456 400h500l-42 -300h-500q-100 0 -114 -100zM486 -100q17 1 32 1q251 0 251 -115q0 -8 -1 -16q-28 -200 -248 -200q-100 0 -176 30l18 130q76 -30 176 -30q90 0 98 60
v6q0 54 -161 54z" />
    <glyph glyph-name="Egrave" unicode="&#xc8;" 
d="M1119 850l-42 -300h-600l-35 -250h600l-42 -300h-900l197 1400h900l-42 -300h-600l-36 -250h600zM584 1500l-48 300h310l48 -300h-310z" />
    <glyph glyph-name="Eacute" unicode="&#xc9;" 
d="M1119 850l-42 -300h-600l-35 -250h600l-42 -300h-900l197 1400h900l-42 -300h-600l-36 -250h600zM628 1500l132 300h310l-132 -300h-310z" />
    <glyph glyph-name="Ecircumflex" unicode="&#xca;" 
d="M1119 850l-42 -300h-600l-35 -250h600l-42 -300h-900l197 1400h900l-42 -300h-600l-36 -250h600zM663 1800h280l118 -300h-200l-72 200l-128 -200h-200z" />
    <glyph glyph-name="Edieresis" unicode="&#xcb;" 
d="M1119 850l-42 -300h-600l-35 -250h600l-42 -300h-900l197 1400h900l-42 -300h-600l-36 -250h600zM361 1500l42 300h300l-42 -300h-300zM861 1500l42 300h300l-42 -300h-300z" />
    <glyph glyph-name="Igrave" unicode="&#xcc;" horiz-adv-x="500" 
d="M597 1400l-197 -1400h-300l197 1400h300zM286 1500l-48 300h310l48 -300h-310z" />
    <glyph glyph-name="Iacute" unicode="&#xcd;" horiz-adv-x="500" 
d="M597 1400l-197 -1400h-300l197 1400h300zM328 1500l132 300h310l-132 -300h-310z" />
    <glyph glyph-name="Icircumflex" unicode="&#xce;" horiz-adv-x="500" 
d="M597 1400l-197 -1400h-300l197 1400h300zM365 1800h280l118 -300h-200l-72 200l-128 -200h-200z" />
    <glyph glyph-name="Idieresis" unicode="&#xcf;" horiz-adv-x="500" 
d="M597 1400l-197 -1400h-300l197 1400h300zM63 1500l42 300h300l-42 -300h-300zM563 1500l42 300h300l-42 -300h-300z" />
    <glyph glyph-name="Eth" unicode="&#xd0;" horiz-adv-x="1200" 
d="M897 1400q351 0 351 -308q0 -43 -7 -92l-85 -600q-56 -400 -456 -400h-600l84 600h-200l28 200h200l85 600h600zM941 1000q2 12 2 23q0 77 -88 77h-300l-43 -300h200l-28 -200h-200l-42 -300h300q100 0 114 100z" />
    <glyph glyph-name="Ntilde" unicode="&#xd1;" horiz-adv-x="1300" 
d="M597 1400l380 -850l120 850h300l-197 -1400h-300l-381 850l-119 -850h-300l197 1400h300zM491 1500q35 250 225 250q100 0 174.5 -40t144.5 -40t81 80h150q-35 -250 -225 -250q-100 0 -174.5 40t-144.5 40t-81 -80h-150z" />
    <glyph glyph-name="Ograve" unicode="&#xd2;" horiz-adv-x="1250" 
d="M1206 400q-56 -400 -456 -400h-250q-351 0 -351 308q0 43 7 92l85 600q56 400 456 400h250q351 0 351 -308q0 -43 -7 -92zM456 400q-2 -12 -2 -23q0 -77 88 -77h250q100 0 114 100l85 600q2 12 2 23q0 77 -88 77h-250q-100 0 -114 -100zM659 1500l-48 300h310l48 -300
h-310z" />
    <glyph glyph-name="Oacute" unicode="&#xd3;" horiz-adv-x="1250" 
d="M1206 400q-56 -400 -456 -400h-250q-351 0 -351 308q0 43 7 92l85 600q56 400 456 400h250q351 0 351 -308q0 -43 -7 -92zM456 400q-2 -12 -2 -23q0 -77 88 -77h250q100 0 114 100l85 600q2 12 2 23q0 77 -88 77h-250q-100 0 -114 -100zM703 1500l132 300h310l-132 -300
h-310z" />
    <glyph glyph-name="Ocircumflex" unicode="&#xd4;" horiz-adv-x="1250" 
d="M1206 400q-56 -400 -456 -400h-250q-351 0 -351 308q0 43 7 92l85 600q56 400 456 400h250q351 0 351 -308q0 -43 -7 -92zM456 400q-2 -12 -2 -23q0 -77 88 -77h250q100 0 114 100l85 600q2 12 2 23q0 77 -88 77h-250q-100 0 -114 -100zM738 1800h280l118 -300h-200
l-72 200l-128 -200h-200z" />
    <glyph glyph-name="Otilde" unicode="&#xd5;" horiz-adv-x="1250" 
d="M1206 400q-56 -400 -456 -400h-250q-351 0 -351 308q0 43 7 92l85 600q56 400 456 400h250q351 0 351 -308q0 -43 -7 -92zM456 400q-2 -12 -2 -23q0 -77 88 -77h250q100 0 114 100l85 600q2 12 2 23q0 77 -88 77h-250q-100 0 -114 -100zM466 1500q35 250 225 250
q100 0 174.5 -40t144.5 -40t81 80h150q-35 -250 -225 -250q-100 0 -174.5 40t-144.5 40t-81 -80h-150z" />
    <glyph glyph-name="Odieresis" unicode="&#xd6;" horiz-adv-x="1250" 
d="M1206 400q-56 -400 -456 -400h-250q-351 0 -351 308q0 43 7 92l85 600q56 400 456 400h250q351 0 351 -308q0 -43 -7 -92zM456 400q-2 -12 -2 -23q0 -77 88 -77h250q100 0 114 100l85 600q2 12 2 23q0 77 -88 77h-250q-100 0 -114 -100zM436 1500l42 300h300l-42 -300
h-300zM936 1500l42 300h300l-42 -300h-300z" />
    <glyph glyph-name="multiply" unicode="&#xd7;" horiz-adv-x="1119" 
d="M445 700l-212 247l242 213l213 -248l282 248l182 -213l-282 -247l213 -247l-242 -213l-212 248l-283 -248l-182 213z" />
    <glyph glyph-name="Oslash" unicode="&#xd8;" horiz-adv-x="1250" 
d="M1192 300q-42 -300 -342 -300h-352l-86 -200h-150l86 202q-211 22 -211 229q0 32 5 69l113 800q42 300 342 300h352l86 200h150l-88 -203q213 -21 213 -228q0 -32 -5 -69zM456 400q-2 -12 -2 -22q0 -45 28 -64l338 786h-165q-100 0 -114 -100zM963 1085l-337 -785h166
q100 0 114 100l85 600z" />
    <glyph glyph-name="Ugrave" unicode="&#xd9;" horiz-adv-x="1200" 
d="M597 1400l-141 -1000q-2 -12 -2 -23q0 -77 88 -77h200q100 0 114 100l141 1000h300l-141 -1000q-56 -400 -456 -400h-200q-351 0 -351 308q0 43 7 92l141 1000h300zM634 1500l-48 300h310l48 -300h-310z" />
    <glyph glyph-name="Uacute" unicode="&#xda;" horiz-adv-x="1200" 
d="M597 1400l-141 -1000q-2 -12 -2 -23q0 -77 88 -77h200q100 0 114 100l141 1000h300l-141 -1000q-56 -400 -456 -400h-200q-351 0 -351 308q0 43 7 92l141 1000h300zM678 1500l132 300h310l-132 -300h-310z" />
    <glyph glyph-name="Ucircumflex" unicode="&#xdb;" horiz-adv-x="1200" 
d="M597 1400l-141 -1000q-2 -12 -2 -23q0 -77 88 -77h200q100 0 114 100l141 1000h300l-141 -1000q-56 -400 -456 -400h-200q-351 0 -351 308q0 43 7 92l141 1000h300zM713 1800h280l118 -300h-200l-72 200l-128 -200h-200z" />
    <glyph glyph-name="Udieresis" unicode="&#xdc;" horiz-adv-x="1200" 
d="M597 1400l-141 -1000q-2 -12 -2 -23q0 -77 88 -77h200q100 0 114 100l141 1000h300l-141 -1000q-56 -400 -456 -400h-200q-351 0 -351 308q0 43 7 92l141 1000h300zM411 1500l42 300h300l-42 -300h-300zM911 1500l42 300h300l-42 -300h-300z" />
    <glyph glyph-name="Yacute" unicode="&#xdd;" horiz-adv-x="1200" 
d="M507 1400l219 -500l361 500h310l-563 -800l-84 -600h-300l84 600l-337 800h310zM678 1500l132 300h310l-132 -300h-310z" />
    <glyph glyph-name="Thorn" unicode="&#xde;" horiz-adv-x="1200" 
d="M731 220h-300l-31 -220h-300l197 1400h300l-33 -230h300q351 0 351 -308q0 -43 -7 -92l-21 -150q-56 -400 -456 -400zM522 870l-49 -350h300q100 0 114 100l21 150q2 12 2 23q0 77 -88 77h-300z" />
    <glyph glyph-name="germandbls" unicode="&#xdf;" horiz-adv-x="1200" 
d="M742 300q100 0 114 100l7 50q2 12 2 23q0 77 -88 77h-200l42 300h200q100 0 115 100l7 50q2 12 2 23q0 77 -88 77h-200q-100 0 -114 -100l-141 -1000h-300l141 1000q56 400 456 400h200q351 0 351 -308q0 -43 -7 -92q-38 -270 -213 -300q135 -24 135 -208q0 -42 -7 -92
q-56 -400 -456 -400h-200l42 300h200z" />
    <glyph glyph-name="agrave" unicode="&#xe0;" 
d="M601 720h-300l40 280h300q442 0 442 -360q0 -47 -7 -100l-76 -540h-280l-9 80q-61 -80 -211 -80h-100q-262 0 -262 236q0 34 6 74q43 310 343 310h100q150 0 189 -80q3 20 3 38q0 142 -178 142zM534 240q150 0 207 50l8 60q-43 50 -193 50q-100 0 -111 -80q-1 -8 -1 -15
q0 -65 90 -65zM528 1100l-48 300h310l48 -300h-310z" />
    <glyph glyph-name="aacute" unicode="&#xe1;" 
d="M601 720h-300l40 280h300q442 0 442 -360q0 -47 -7 -100l-76 -540h-280l-9 80q-61 -80 -211 -80h-100q-262 0 -262 236q0 34 6 74q43 310 343 310h100q150 0 189 -80q3 20 3 38q0 142 -178 142zM534 240q150 0 207 50l8 60q-43 50 -193 50q-100 0 -111 -80q-1 -8 -1 -15
q0 -65 90 -65zM572 1100l132 300h310l-132 -300h-310z" />
    <glyph glyph-name="acircumflex" unicode="&#xe2;" 
d="M601 720h-300l40 280h300q442 0 442 -360q0 -47 -7 -100l-76 -540h-280l-9 80q-61 -80 -211 -80h-100q-262 0 -262 236q0 34 6 74q43 310 343 310h100q150 0 189 -80q3 20 3 38q0 142 -178 142zM534 240q150 0 207 50l8 60q-43 50 -193 50q-100 0 -111 -80q-1 -8 -1 -15
q0 -65 90 -65zM607 1400h280l118 -300h-200l-72 200l-128 -200h-200z" />
    <glyph glyph-name="atilde" unicode="&#xe3;" 
d="M601 720h-300l40 280h300q442 0 442 -360q0 -47 -7 -100l-76 -540h-280l-9 80q-61 -80 -211 -80h-100q-262 0 -262 236q0 34 6 74q43 310 343 310h100q150 0 189 -80q3 20 3 38q0 142 -178 142zM534 240q150 0 207 50l8 60q-43 50 -193 50q-100 0 -111 -80q-1 -8 -1 -15
q0 -65 90 -65zM335 1100q35 250 225 250q100 0 174 -40t144 -40t82 80h150q-35 -250 -225 -250q-100 0 -174.5 40t-144.5 40t-81 -80h-150z" />
    <glyph glyph-name="adieresis" unicode="&#xe4;" 
d="M601 720h-300l40 280h300q442 0 442 -360q0 -47 -7 -100l-76 -540h-280l-9 80q-61 -80 -211 -80h-100q-262 0 -262 236q0 34 6 74q43 310 343 310h100q150 0 189 -80q3 20 3 38q0 142 -178 142zM534 240q150 0 207 50l8 60q-43 50 -193 50q-100 0 -111 -80q-1 -8 -1 -15
q0 -65 90 -65zM305 1100l42 300h300l-42 -300h-300zM805 1100l42 300h300l-42 -300h-300z" />
    <glyph glyph-name="aring" unicode="&#xe5;" 
d="M601 720h-300l40 280h300q442 0 442 -360q0 -47 -7 -100l-76 -540h-280l-9 80q-61 -80 -211 -80h-100q-262 0 -262 236q0 34 6 74q43 310 343 310h100q150 0 189 -80q3 20 3 38q0 142 -178 142zM534 240q150 0 207 50l8 60q-43 50 -193 50q-100 0 -111 -80q-1 -8 -1 -15
q0 -65 90 -65zM943 1300q-13 -87 -83 -148.5t-157 -61.5t-140 62q-43 49 -43 115q0 16 3 33q12 87 82 148.5t157 61.5t140 -61q43 -51 43 -118q0 -15 -2 -31zM745 1390q-37 0 -67 -26.5t-35 -63.5q-1 -7 -1 -13q0 -29 19 -50q22 -27 59 -27t67.5 26.5t35.5 63.5q1 7 1 13
q0 29 -19 51q-23 26 -60 26z" />
    <glyph glyph-name="ae" unicode="&#xe6;" horiz-adv-x="1655" 
d="M301 720l40 280h300q217 0 296 -136q105 136 309 136h50q350 0 350 -306q0 -44 -7 -94l-31 -220h-550l-4 -30q-2 -12 -2 -23q0 -77 88 -77h400l-35 -250h-400q-192 0 -261 119q-151 -119 -344 -119h-100q-262 0 -262 236q0 34 6 74q43 310 343 310h100q150 0 189 -80
q3 20 3 38q0 142 -178 142h-300zM534 240q150 0 207 50l8 60q-43 50 -193 50q-100 0 -111 -80q-1 -8 -1 -15q0 -65 90 -65zM1089 600h250l6 40q2 12 2 23q0 77 -88 77h-50q-100 0 -114 -100z" />
    <glyph glyph-name="ccedilla" unicode="&#xe7;" horiz-adv-x="1000" 
d="M456 400q-2 -12 -2 -23q0 -77 88 -77h400l-42 -300h-400q-351 0 -351 308q0 43 7 92l28 200q57 400 457 400h400l-43 -300h-400q-100 0 -114 -100zM486 -100q17 1 32 1q251 0 251 -115q0 -8 -1 -16q-28 -200 -248 -200q-100 0 -176 30l18 130q76 -30 176 -30q90 0 98 60
v6q0 54 -161 54z" />
    <glyph glyph-name="egrave" unicode="&#xe8;" 
d="M453 380l-4 -30q-2 -12 -2 -23q0 -77 88 -77h450l-35 -250h-450q-351 0 -351 308q0 43 7 92l28 200q57 400 457 400h100q350 0 350 -306q0 -44 -7 -94l-31 -220h-600zM490 640l-6 -40h300l6 40q2 12 2 23q0 77 -88 77h-100q-100 0 -114 -100zM528 1100l-48 300h310
l48 -300h-310z" />
    <glyph glyph-name="eacute" unicode="&#xe9;" 
d="M453 380l-4 -30q-2 -12 -2 -23q0 -77 88 -77h450l-35 -250h-450q-351 0 -351 308q0 43 7 92l28 200q57 400 457 400h100q350 0 350 -306q0 -44 -7 -94l-31 -220h-600zM490 640l-6 -40h300l6 40q2 12 2 23q0 77 -88 77h-100q-100 0 -114 -100zM572 1100l132 300h310
l-132 -300h-310z" />
    <glyph glyph-name="ecircumflex" unicode="&#xea;" 
d="M453 380l-4 -30q-2 -12 -2 -23q0 -77 88 -77h450l-35 -250h-450q-351 0 -351 308q0 43 7 92l28 200q57 400 457 400h100q350 0 350 -306q0 -44 -7 -94l-31 -220h-600zM490 640l-6 -40h300l6 40q2 12 2 23q0 77 -88 77h-100q-100 0 -114 -100zM607 1400h280l118 -300h-200
l-72 200l-128 -200h-200z" />
    <glyph glyph-name="edieresis" unicode="&#xeb;" 
d="M453 380l-4 -30q-2 -12 -2 -23q0 -77 88 -77h450l-35 -250h-450q-351 0 -351 308q0 43 7 92l28 200q57 400 457 400h100q350 0 350 -306q0 -44 -7 -94l-31 -220h-600zM490 640l-6 -40h300l6 40q2 12 2 23q0 77 -88 77h-100q-100 0 -114 -100zM305 1100l42 300h300
l-42 -300h-300zM805 1100l42 300h300l-42 -300h-300z" />
    <glyph glyph-name="igrave" unicode="&#xec;" horiz-adv-x="500" 
d="M541 1000l-141 -1000h-300l141 1000h300zM230 1100l-48 300h310l48 -300h-310z" />
    <glyph glyph-name="iacute" unicode="&#xed;" horiz-adv-x="500" 
d="M541 1000l-141 -1000h-300l141 1000h300zM272 1100l132 300h310l-132 -300h-310z" />
    <glyph glyph-name="icircumflex" unicode="&#xee;" horiz-adv-x="500" 
d="M541 1000l-141 -1000h-300l141 1000h300zM309 1400h280l118 -300h-200l-72 200l-128 -200h-200z" />
    <glyph glyph-name="idieresis" unicode="&#xef;" horiz-adv-x="500" 
d="M541 1000l-141 -1000h-300l141 1000h300zM7 1100l42 300h300l-42 -300h-300zM507 1100l42 300h300l-42 -300h-300z" />
    <glyph glyph-name="eth" unicode="&#xf0;" 
d="M855 1100h-200l28 200h200l14 100h300l-14 -100h200l-28 -200h-200l-155 -1100h-270l-19 80q-61 -80 -211 -80q-351 0 -351 308q0 43 7 92l28 200q57 400 457 400q150 0 188 -80zM542 300q150 0 207 50l42 300q-43 50 -193 50q-100 0 -114 -100l-28 -200q-2 -12 -2 -23
q0 -77 88 -77z" />
    <glyph glyph-name="ntilde" unicode="&#xf1;" 
d="M400 0h-300l141 1000h280l8 -80q62 80 212 80q350 0 350 -306q0 -44 -7 -94l-84 -600h-300l84 600q2 12 2 23q0 77 -88 77q-150 0 -207 -50zM335 1100q35 250 225 250q100 0 174 -40t144 -40t82 80h150q-35 -250 -225 -250q-100 0 -174.5 40t-144.5 40t-81 -80h-150z" />
    <glyph glyph-name="ograve" unicode="&#xf2;" 
d="M1056 400q-56 -400 -456 -400h-100q-351 0 -351 308q0 43 7 92l28 200q57 400 457 400h100q350 0 350 -306q0 -44 -7 -94zM456 400q-2 -12 -2 -23q0 -77 88 -77h100q100 0 114 100l28 200q1 10 1 20q0 70 -88 70h-100q-100 0 -113 -90zM528 1100l-48 300h310l48 -300
h-310z" />
    <glyph glyph-name="oacute" unicode="&#xf3;" 
d="M1056 400q-56 -400 -456 -400h-100q-351 0 -351 308q0 43 7 92l28 200q57 400 457 400h100q350 0 350 -306q0 -44 -7 -94zM456 400q-2 -12 -2 -23q0 -77 88 -77h100q100 0 114 100l28 200q1 10 1 20q0 70 -88 70h-100q-100 0 -113 -90zM572 1100l132 300h310l-132 -300
h-310z" />
    <glyph glyph-name="ocircumflex" unicode="&#xf4;" 
d="M1056 400q-56 -400 -456 -400h-100q-351 0 -351 308q0 43 7 92l28 200q57 400 457 400h100q350 0 350 -306q0 -44 -7 -94zM456 400q-2 -12 -2 -23q0 -77 88 -77h100q100 0 114 100l28 200q1 10 1 20q0 70 -88 70h-100q-100 0 -113 -90zM607 1400h280l118 -300h-200
l-72 200l-128 -200h-200z" />
    <glyph glyph-name="otilde" unicode="&#xf5;" 
d="M1056 400q-56 -400 -456 -400h-100q-351 0 -351 308q0 43 7 92l28 200q57 400 457 400h100q350 0 350 -306q0 -44 -7 -94zM456 400q-2 -12 -2 -23q0 -77 88 -77h100q100 0 114 100l28 200q1 10 1 20q0 70 -88 70h-100q-100 0 -113 -90zM335 1100q35 250 225 250
q100 0 174 -40t144 -40t82 80h150q-35 -250 -225 -250q-100 0 -174.5 40t-144.5 40t-81 -80h-150z" />
    <glyph glyph-name="odieresis" unicode="&#xf6;" 
d="M1056 400q-56 -400 -456 -400h-100q-351 0 -351 308q0 43 7 92l28 200q57 400 457 400h100q350 0 350 -306q0 -44 -7 -94zM456 400q-2 -12 -2 -23q0 -77 88 -77h100q100 0 114 100l28 200q1 10 1 20q0 70 -88 70h-100q-100 0 -113 -90zM305 1100l42 300h300l-42 -300
h-300zM805 1100l42 300h300l-42 -300h-300z" />
    <glyph glyph-name="divide" unicode="&#xf7;" horiz-adv-x="1000" 
d="M1012 800l-28 -200h-800l28 200h800zM428 200l28 200h200l-28 -200h-200zM541 1000l28 200h200l-28 -200h-200z" />
    <glyph glyph-name="oslash" unicode="&#xf8;" 
d="M1056 400q-56 -400 -456 -400h-100q-31 0 -60 2l-103 -202h-150l119 233q-157 69 -157 274q0 44 7 93l28 200q57 400 457 400h100q31 0 58 -3l105 203h150l-120 -234q157 -68 157 -273q0 -44 -7 -93zM784 600q1 9 1 18q0 24 -10 40l-183 -358h50q100 0 114 100zM456 400
q-2 -12 -2 -23q0 -23 8 -39l180 352h-45q-100 0 -113 -90z" />
    <glyph glyph-name="ugrave" unicode="&#xf9;" 
d="M841 1000h300l-141 -1000h-280l-9 80q-61 -80 -211 -80q-351 0 -351 308q0 43 7 92l85 600h300l-85 -600q-2 -12 -2 -23q0 -77 88 -77q150 0 207 50zM528 1100l-48 300h310l48 -300h-310z" />
    <glyph glyph-name="uacute" unicode="&#xfa;" 
d="M841 1000h300l-141 -1000h-280l-9 80q-61 -80 -211 -80q-351 0 -351 308q0 43 7 92l85 600h300l-85 -600q-2 -12 -2 -23q0 -77 88 -77q150 0 207 50zM572 1100l132 300h310l-132 -300h-310z" />
    <glyph glyph-name="ucircumflex" unicode="&#xfb;" 
d="M841 1000h300l-141 -1000h-280l-9 80q-61 -80 -211 -80q-351 0 -351 308q0 43 7 92l85 600h300l-85 -600q-2 -12 -2 -23q0 -77 88 -77q150 0 207 50zM607 1400h280l118 -300h-200l-72 200l-128 -200h-200z" />
    <glyph glyph-name="udieresis" unicode="&#xfc;" 
d="M841 1000h300l-141 -1000h-280l-9 80q-61 -80 -211 -80q-351 0 -351 308q0 43 7 92l85 600h300l-85 -600q-2 -12 -2 -23q0 -77 88 -77q150 0 207 50zM305 1100l42 300h300l-42 -300h-300zM805 1100l42 300h300l-42 -300h-300z" />
    <glyph glyph-name="yacute" unicode="&#xfd;" 
d="M841 1000h300l-141 -1000q-56 -400 -456 -400h-400l42 300h300q200 0 214 100l11 80q-71 -80 -211 -80q-351 0 -351 308q0 43 7 92l85 600h300l-85 -600q-2 -12 -2 -23q0 -77 88 -77q140 0 207 50zM572 1100l132 300h310l-132 -300h-310z" />
    <glyph glyph-name="thorn" unicode="&#xfe;" 
d="M344 -400h-300l253 1800h300l-68 -480q62 80 212 80q350 0 350 -306q0 -44 -7 -94l-28 -200q-56 -400 -456 -400q-150 0 -189 80zM698 700q-150 0 -207 -50l-42 -300q43 -50 193 -50q100 0 114 100l28 200q2 12 2 23q0 77 -88 77z" />
    <glyph glyph-name="ydieresis" unicode="&#xff;" 
d="M841 1000h300l-141 -1000q-56 -400 -456 -400h-400l42 300h300q200 0 214 100l11 80q-71 -80 -211 -80q-351 0 -351 308q0 43 7 92l85 600h300l-85 -600q-2 -12 -2 -23q0 -77 88 -77q140 0 207 50zM305 1100l42 300h300l-42 -300h-300zM805 1100l42 300h300l-42 -300
h-300z" />
    <glyph glyph-name="dotlessi" unicode="&#x131;" horiz-adv-x="500" 
d="M541 1000l-141 -1000h-300l141 1000h300z" />
    <glyph glyph-name="OE" unicode="&#x152;" horiz-adv-x="1800" 
d="M1819 850l-42 -300h-550l-35 -250h550l-42 -300h-850l13 91q-75 -91 -213 -91h-150q-351 0 -351 308q0 43 7 92l85 600q56 400 456 400h150q138 0 187 -92l13 92h850l-42 -300h-550l-36 -250h550zM456 400q-2 -12 -2 -23q0 -77 88 -77h150q200 0 214 100l85 600q1 7 1 13
q0 87 -187 87h-150q-100 0 -114 -100z" />
    <glyph glyph-name="oe" unicode="&#x153;" horiz-adv-x="1700" 
d="M1053 380l-4 -30q-2 -12 -2 -23q0 -77 88 -77h450l-35 -250h-450q-178 0 -230 140q-93 -140 -270 -140h-100q-351 0 -351 308q0 43 7 92l28 200q57 400 457 400h100q177 0 230 -140q92 140 270 140h100q350 0 350 -306q0 -44 -7 -94l-31 -220h-600zM456 400
q-2 -12 -2 -23q0 -77 88 -77h100q100 0 114 100l28 200q1 10 1 20q0 70 -88 70h-100q-100 0 -113 -90zM1084 600h300l7 50q2 12 2 23q0 77 -88 77h-100q-100 0 -114 -100z" />
    <glyph glyph-name="Scaron" unicode="&#x160;" horiz-adv-x="1200" 
d="M100 0l42 300h600q100 0 114 100l7 50q2 12 2 23q0 77 -88 77h-200q-350 0 -350 306q0 44 7 94l7 50q56 400 456 400h600l-42 -300h-600q-100 0 -114 -100l-7 -50q-2 -13 -2 -24q0 -76 87 -76h200q351 0 351 -308q0 -43 -7 -92l-7 -50q-56 -400 -456 -400h-600zM553 1800
h200l72 -200l128 200h200l-202 -300h-280z" />
    <glyph glyph-name="scaron" unicode="&#x161;" horiz-adv-x="1050" 
d="M100 0l35 250h480q70 0 79 60q1 8 1 15q0 55 -62 55h-180q-266 0 -266 213q0 27 4 57l12 80q38 270 338 270h500l-36 -250h-430q-70 0 -78 -60q-1 -5 -1 -9q0 -41 64 -41h180q264 0 264 -225q0 -30 -5 -65l-11 -80q-38 -270 -338 -270h-550zM422 1400h200l72 -200
l128 200h200l-202 -300h-280z" />
    <glyph glyph-name="Ydieresis" unicode="&#x178;" horiz-adv-x="1200" 
d="M507 1400l219 -500l361 500h310l-563 -800l-84 -600h-300l84 600l-337 800h310zM411 1500l42 300h300l-42 -300h-300zM911 1500l42 300h300l-42 -300h-300z" />
    <glyph glyph-name="Zcaron" unicode="&#x17d;" horiz-adv-x="1200" 
d="M1297 1400l-42 -300l-743 -800h630l-42 -300h-1000l42 300l743 800h-630l42 300h1000zM553 1800h200l72 -200l128 200h200l-202 -300h-280z" />
    <glyph glyph-name="zcaron" unicode="&#x17e;" horiz-adv-x="1000" 
d="M1041 1000l-43 -300l-476 -400h420l-42 -300h-800l42 300l476 400h-420l43 300h800zM397 1400h200l72 -200l128 200h200l-202 -300h-280z" />
    <glyph glyph-name="florin" unicode="&#x192;" horiz-adv-x="900" 
d="M691 1000h250l-43 -300h-250l-99 -710q-55 -390 -455 -390h-100l42 300h100q100 0 114 100l98 700h-150l43 300h150q56 400 456 400h150l-42 -300h-150q-100 0 -114 -100z" />
    <glyph glyph-name="circumflex" unicode="&#x2c6;" horiz-adv-x="800" 
d="M457 1400h280l118 -300h-200l-72 200l-128 -200h-200z" />
    <glyph glyph-name="caron" unicode="&#x2c7;" horiz-adv-x="800" 
d="M297 1400h200l72 -200l128 200h200l-202 -300h-280z" />
    <glyph glyph-name="breve" unicode="&#x2d8;" horiz-adv-x="800" 
d="M297 1400h180q-2 -15 -2 -28q0 -92 105 -92q120 0 137 120h180q-42 -300 -342 -300q-263 0 -263 231q0 32 5 69z" />
    <glyph glyph-name="dotaccent" unicode="&#x2d9;" horiz-adv-x="500" 
d="M255 1100l42 300h300l-42 -300h-300z" />
    <glyph glyph-name="ring" unicode="&#x2da;" horiz-adv-x="620" 
d="M703 1300q-13 -87 -83 -148.5t-157 -61.5t-140 62q-43 49 -43 115q0 16 3 33q12 87 82 148.5t157 61.5t140 -61q43 -51 43 -118q0 -15 -2 -31zM505 1390q-37 0 -67 -26.5t-35 -63.5q-1 -7 -1 -13q0 -29 19 -50q22 -27 59 -27t67.5 26.5t35.5 63.5q1 7 1 13q0 29 -19 51
q-23 26 -60 26z" />
    <glyph glyph-name="ogonek" unicode="&#x2db;" horiz-adv-x="550" 
d="M286 -100q-58 -60 -64 -100q-1 -6 -1 -12q0 -38 44 -38q80 0 154 30l-18 -130q-74 -30 -154 -30q-181 0 -181 123q0 13 2 27q11 80 118 130h100z" />
    <glyph glyph-name="tilde" unicode="&#x2dc;" horiz-adv-x="940" 
d="M255 1100q35 250 225 250q100 0 174 -40t144 -40t82 80h150q-35 -250 -225 -250q-100 0 -174.5 40t-144.5 40t-81 -80h-150z" />
    <glyph glyph-name="hungarumlaut" unicode="&#x2dd;" horiz-adv-x="1000" 
d="M255 1100l132 300h310l-132 -300h-310zM655 1100l132 300h310l-132 -300h-310z" />
    <glyph glyph-name="endash" unicode="&#x2013;" horiz-adv-x="800" 
d="M819 850l-42 -300h-600l42 300h600z" />
    <glyph glyph-name="emdash" unicode="&#x2014;" horiz-adv-x="1000" 
d="M1019 850l-42 -300h-800l42 300h800z" />
    <glyph glyph-name="quoteleft" unicode="&#x2018;" horiz-adv-x="600" 
d="M597 1400l58 -300h-300l-58 300h300z" />
    <glyph glyph-name="quoteright" unicode="&#x2019;" horiz-adv-x="600" 
d="M697 1400l-142 -300h-300l142 300h300z" />
    <glyph glyph-name="quotesinglbase" unicode="&#x201a;" horiz-adv-x="600" 
d="M528 200l-142 -300h-300l142 300h300z" />
    <glyph glyph-name="quotedblleft" unicode="&#x201c;" horiz-adv-x="1000" 
d="M997 1400l58 -300h-300l-58 300h300zM597 1400l58 -300h-300l-58 300h300z" />
    <glyph glyph-name="quotedblright" unicode="&#x201d;" horiz-adv-x="1000" 
d="M697 1400l-142 -300h-300l142 300h300zM1097 1400l-142 -300h-300l142 300h300z" />
    <glyph glyph-name="quotedblbase" unicode="&#x201e;" horiz-adv-x="1000" 
d="M528 200l-142 -300h-300l142 300h300zM928 200l-142 -300h-300l142 300h300z" />
    <glyph glyph-name="dagger" unicode="&#x2020;" 
d="M1112 800h-300l-112 -800h-300l112 800h-300l43 300h300l42 300h300l-42 -300h300z" />
    <glyph glyph-name="daggerdbl" unicode="&#x2021;" 
d="M1042 300h-300l-42 -300h-300l42 300h-300l42 300h300l28 200h-300l43 300h300l42 300h300l-42 -300h300l-43 -300h-300l-28 -200h300z" />
    <glyph glyph-name="bullet" unicode="&#x2022;" horiz-adv-x="500" 
d="M526 900l-42 -300h-300l42 300h300z" />
    <glyph glyph-name="ellipsis" unicode="&#x2026;" horiz-adv-x="1500" 
d="M100 0l42 300h300l-42 -300h-300zM600 0l42 300h300l-42 -300h-300zM1100 0l42 300h300l-42 -300h-300z" />
    <glyph glyph-name="perthousand" unicode="&#x2030;" horiz-adv-x="2700" 
d="M484 600q-263 0 -263 231q0 32 5 69l29 200q42 300 342 300h100q263 0 263 -231q0 -32 -5 -69l-29 -200q-42 -300 -342 -300h-100zM504 920q-1 -10 -1 -18q0 -62 70 -62t81 80l23 160q1 11 1 20q0 60 -60 60q-80 0 -91 -80zM500 0l787 1400h310l-787 -1400h-310zM1400 0
q-263 0 -263 231q0 32 5 69l28 200q42 300 342 300h100q263 0 263 -231q0 -32 -5 -69l-28 -200q-42 -300 -342 -300h-100zM1420 320q-1 -10 -1 -18q0 -62 70 -62t81 80l22 160q2 12 2 22q0 58 -60 58q-80 0 -92 -80zM2200 0q-263 0 -263 231q0 32 5 69l28 200
q42 300 342 300h100q263 0 263 -231q0 -32 -5 -69l-28 -200q-42 -300 -342 -300h-100zM2220 320q-1 -10 -1 -18q0 -62 70 -62t81 80l22 160q2 12 2 22q0 58 -60 58q-80 0 -92 -80z" />
    <glyph glyph-name="guilsinglleft" unicode="&#x2039;" horiz-adv-x="800" 
d="M191 650l344 450h320l-344 -450l217 -450h-320z" />
    <glyph glyph-name="guilsinglright" unicode="&#x203a;" horiz-adv-x="800" 
d="M448 200h-320l343 450l-216 450h320l216 -450z" />
    <glyph glyph-name="Euro" unicode="&#x20ac;" horiz-adv-x="1200" 
d="M659 775l-21 -150h390l-64 -200h-354l-4 -25q-2 -12 -2 -23q0 -77 88 -77h450l-42 -300h-450q-351 0 -351 308q0 43 7 92l4 25h-150l28 200h150l21 150h-150l28 200h150q71 425 460 425h450l-42 -300h-450q-92 0 -118 -125h475l-63 -200h-440z" />
    <glyph glyph-name="trademark" unicode="&#x2122;" horiz-adv-x="1450" 
d="M1047 1400l101 -350l199 350h200l-85 -600h-150l50 350l-200 -350h-100l-100 350l-50 -350h-150l85 600h200zM747 1400l-21 -150h-150l-64 -450h-150l64 450h-150l21 150h450z" />
  </font>
</defs>
</svg>
