<?xml version="1.0" standalone="no"?>
<!DOCTYPE svg PUBLIC "-//W3C//DTD SVG 1.1//EN" "http://www.w3.org/Graphics/SVG/1.1/DTD/svg11.dtd" >
<svg>
<metadata>
Created by FontForge 20090622 at Thu Dec  1 18:46:41 2016
 By deploy user
&#194;&#169; 2009, 2010, 2011, 2012 GrandChaos9000. Some Rights Reserved. (Under licensed of Creative Commons CC-BY-NC-SA 3.0)
</metadata>
<defs>
<font id="AeroMaticsLightItalic" horiz-adv-x="1000" >
  <font-face 
    font-family="Aero Matics Light"
    font-weight="300"
    font-style="italic"
    font-stretch="normal"
    units-per-em="2048"
    panose-1="2 11 3 3 6 1 1 1 1 1"
    ascent="1638"
    descent="-410"
    x-height="1000"
    cap-height="1400"
    bbox="-256 -446 2575 1900"
    underline-thickness="150"
    underline-position="-142"
    slope="-8"
    unicode-range="U+0020-U+2122"
  />
<missing-glyph 
d="M100 1400h800v-1400h-800v1400zM200 1300v-1200h600v1200h-600z" />
    <glyph glyph-name=".notdef" 
d="M100 1400h800v-1400h-800v1400zM200 1300v-1200h600v1200h-600z" />
    <glyph glyph-name="space" unicode=" " horiz-adv-x="400" 
 />
    <glyph glyph-name="exclam" unicode="!" horiz-adv-x="300" 
d="M156 400l141 1000h100l-141 -1000h-100zM100 0l28 200h100l-28 -200h-100z" />
    <glyph glyph-name="quotedbl" unicode="&#x22;" horiz-adv-x="600" 
d="M497 1400l-142 -300h-100l142 300h100zM697 1400l-142 -300h-100l142 300h100z" />
    <glyph glyph-name="numbersign" unicode="#" horiz-adv-x="1300" 
d="M613 1050l154 350h100l-154 -350h400l154 350h100l-154 -350h135l-14 -100h-165l-221 -500h215l-14 -100h-245l-154 -350h-100l154 350h-400l-154 -350h-100l154 350h-155l14 100h185l221 500h-235l14 100h265zM448 450h400l221 500h-400z" />
    <glyph glyph-name="dollar" unicode="$" horiz-adv-x="1100" 
d="M600 0l-28 -200h-100l28 200h-400l14 100h400l77 550h-100q-262 0 -262 230q0 32 5 70l21 150q42 300 342 300h100l28 200h100l-28 -200h400l-14 -100h-400l-78 -550h100q263 0 263 -231q0 -32 -5 -69l-21 -150q-42 -300 -342 -300h-100zM334 950q-4 -25 -4 -47
q0 -153 175 -153h100l78 550h-100q-200 0 -228 -200zM691 650l-77 -550h100q200 0 228 200l21 150q3 25 3 46q0 154 -175 154h-100z" />
    <glyph glyph-name="percent" unicode="%" horiz-adv-x="1800" 
d="M484 600q-263 0 -263 231q0 32 5 69l29 200q42 300 342 300h100q263 0 263 -231q0 -32 -5 -69l-29 -200q-42 -300 -342 -300h-100zM1742 300q-42 -300 -342 -300h-100q-263 0 -263 231q0 32 5 69l28 200q42 300 342 300h100q263 0 263 -231q0 -32 -5 -69zM326 900
q-3 -25 -3 -46q0 -154 175 -154h100q200 0 228 200l29 200q3 25 3 46q0 154 -175 154h-100q-200 0 -228 -200zM1142 300q-3 -25 -3 -46q0 -154 175 -154h100q200 0 228 200l28 200q3 25 3 46q0 154 -175 154h-100q-200 0 -228 -200zM500 0l887 1400h110l-887 -1400h-110z
" />
    <glyph glyph-name="ampersand" unicode="&#x26;" horiz-adv-x="1100" 
d="M400 0q-263 0 -263 231q0 32 5 69l21 150q31 220 205 250q-139 25 -139 185q0 30 5 65l21 150q42 300 342 300h500l-14 -100h-500q-200 0 -228 -200l-21 -150q-4 -25 -4 -47q0 -153 175 -153h400l29 200h100l-29 -200h100l-14 -100h-100l-91 -650h-500zM242 300
q-3 -25 -3 -46q0 -154 175 -154h400l77 550h-400q-200 0 -228 -200z" />
    <glyph glyph-name="quotesingle" unicode="'" horiz-adv-x="400" 
d="M497 1400l-142 -300h-100l142 300h100z" />
    <glyph glyph-name="parenleft" unicode="(" horiz-adv-x="600" 
d="M352 -200q-171 305 -171 668q0 113 17 232q71 500 407 900h120q-356 -400 -427 -900q-16 -111 -16 -218q0 -371 190 -682h-120z" />
    <glyph glyph-name="parenright" unicode=")" horiz-adv-x="600" 
d="M72 -200q356 400 426 900q16 113 16 220q0 370 -189 680h120q170 -304 170 -665q0 -115 -17 -235q-70 -500 -406 -900h-120z" />
    <glyph glyph-name="asterisk" unicode="*" horiz-adv-x="700" 
d="M282 940l145 183l-167 17l24 100l187 -20l26 180h100l-26 -180l193 20l-4 -100l-172 -17l94 -183l-96 -40l-86 170l-134 -170z" />
    <glyph glyph-name="plus" unicode="+" horiz-adv-x="900" 
d="M505 750l43 300h100l-43 -300h300l-14 -100h-300l-42 -300h-100l42 300h-300l14 100h300z" />
    <glyph glyph-name="comma" unicode="," horiz-adv-x="400" 
d="M328 200l-142 -300h-100l142 300h100z" />
    <glyph glyph-name="hyphen" unicode="-" horiz-adv-x="700" 
d="M705 750l-14 -100h-500l14 100h500z" />
    <glyph glyph-name="period" unicode="." horiz-adv-x="300" 
d="M100 0l28 200h100l-28 -200h-100z" />
    <glyph glyph-name="slash" unicode="/" horiz-adv-x="820" 
d="M172 -200h-100l773 1800h100z" />
    <glyph glyph-name="zero" unicode="0" horiz-adv-x="1150" 
d="M1092 300q-42 -300 -342 -300h-350q-263 0 -263 231q0 32 5 69l113 800q42 300 342 300h350q263 0 263 -231q0 -32 -5 -69zM1075 890l-819 -490l-14 -100q-3 -25 -3 -46q0 -154 175 -154h350q200 0 228 200zM272 510l819 490l14 100q3 25 3 46q0 154 -175 154h-350
q-200 0 -228 -200z" />
    <glyph glyph-name="one" unicode="1" horiz-adv-x="500" 
d="M483 1300h-200l14 100h300l-197 -1400h-100z" />
    <glyph glyph-name="two" unicode="2" horiz-adv-x="1100" 
d="M100 0l63 450q42 300 342 300h300q200 0 229 200l21 150q3 25 3 46q0 154 -175 154h-600l14 100h600q263 0 263 -231q0 -32 -5 -69l-21 -150q-43 -300 -343 -300h-300q-200 0 -228 -200l-49 -350h800l-14 -100h-900z" />
    <glyph glyph-name="three" unicode="3" 
d="M205 750h500q200 0 229 200l21 150q3 25 3 46q0 154 -175 154h-500l14 100h500q263 0 263 -231q0 -32 -5 -69l-21 -150q-31 -220 -206 -250q140 -25 140 -186q0 -29 -5 -64l-21 -150q-42 -300 -342 -300h-500l14 100h500q200 0 228 200l21 150q3 25 3 46q0 154 -175 154
h-500z" />
    <glyph glyph-name="four" unicode="4" horiz-adv-x="1100" 
d="M687 1400h110l-503 -800h690l113 800h100l-197 -1400h-100l70 500h-800l14 100z" />
    <glyph glyph-name="five" unicode="5" horiz-adv-x="1050" 
d="M100 0l14 100h550q200 0 228 200l28 200q3 25 3 46q0 154 -175 154h-550l99 700h850l-14 -100h-750l-71 -500h450q263 0 263 -231q0 -32 -5 -69l-28 -200q-42 -300 -342 -300h-550z" />
    <glyph glyph-name="six" unicode="6" horiz-adv-x="1100" 
d="M312 800h500q263 0 263 -231q0 -32 -5 -69l-28 -200q-42 -300 -342 -300h-300q-263 0 -263 231q0 32 5 69l99 700q56 400 456 400h400l-14 -100h-400q-300 0 -342 -300zM298 700l-56 -400q-3 -25 -3 -46q0 -154 175 -154h300q200 0 228 200l28 200q3 25 3 46
q0 154 -175 154h-500z" />
    <glyph glyph-name="seven" unicode="7" horiz-adv-x="1100" 
d="M1197 1400l-14 -100l-873 -1300h-110l873 1300h-790l14 100h900z" />
    <glyph glyph-name="eight" unicode="8" horiz-adv-x="1100" 
d="M255 1100q42 300 342 300h300q263 0 263 -231q0 -32 -5 -69l-21 -150q-31 -220 -206 -250q140 -25 140 -186q0 -29 -5 -64l-21 -150q-42 -300 -342 -300h-300q-263 0 -263 231q0 32 5 69l21 150q31 220 205 250q-139 25 -139 185q0 30 5 65zM805 750q200 0 229 200
l21 150q3 25 3 46q0 154 -175 154h-300q-200 0 -228 -200l-21 -150q-4 -25 -4 -47q0 -153 175 -153h300zM491 650q-200 0 -228 -200l-21 -150q-3 -25 -3 -46q0 -154 175 -154h300q200 0 228 200l21 150q3 25 3 46q0 154 -175 154h-300z" />
    <glyph glyph-name="nine" unicode="9" horiz-adv-x="1100" 
d="M984 600h-500q-263 0 -263 231q0 32 5 69l29 200q42 300 342 300h300q263 0 263 -231q0 -32 -5 -69l-99 -700q-56 -400 -456 -400h-400l14 100h400q300 0 342 300zM998 700l57 400q3 25 3 46q0 154 -175 154h-300q-200 0 -228 -200l-29 -200q-3 -25 -3 -46
q0 -154 175 -154h500z" />
    <glyph glyph-name="colon" unicode=":" horiz-adv-x="300" 
d="M100 0l28 200h100l-28 -200h-100zM212 800l29 200h100l-29 -200h-100z" />
    <glyph glyph-name="semicolon" unicode=";" horiz-adv-x="400" 
d="M312 800l29 200h100l-29 -200h-100zM328 200l-142 -300h-100l142 300h100z" />
    <glyph glyph-name="less" unicode="&#x3c;" horiz-adv-x="900" 
d="M191 650l14 100l750 350l-14 -100l-643 -300l558 -300l-14 -100z" />
    <glyph glyph-name="equal" unicode="=" horiz-adv-x="700" 
d="M726 900l-14 -100h-500l14 100h500zM684 600l-14 -100h-500l14 100h500z" />
    <glyph glyph-name="greater" unicode="&#x3e;" horiz-adv-x="900" 
d="M142 300l14 100l642 300l-557 300l14 100l650 -350l-14 -100z" />
    <glyph glyph-name="question" unicode="?" horiz-adv-x="1100" 
d="M456 400l49 350h300q200 0 229 200l21 150q3 25 3 46q0 154 -175 154h-600l14 100h600q263 0 263 -231q0 -32 -5 -69l-21 -150q-43 -300 -343 -300h-200l-35 -250h-100zM528 200l-28 -200h-100l28 200h100z" />
    <glyph glyph-name="at" unicode="@" horiz-adv-x="1600" 
d="M1328 200q-152 0 -173 115q-152 -115 -327 -115h-100q-263 0 -263 231q0 32 5 69l56 400q43 300 343 300h100q200 0 286 -100l14 100h100l-113 -800q-2 -12 -2 -23q0 -77 88 -77q100 0 128 200l71 500q7 49 7 92q0 308 -351 308h-400q-400 0 -456 -400l-85 -600
q-7 -49 -7 -92q0 -308 351 -308h700l-14 -100h-700q-439 0 -439 385q0 54 9 115l85 600q70 500 570 500h400q439 0 439 -385q0 -54 -9 -115l-71 -500q-42 -300 -242 -300zM842 300q200 0 314 100l85 600q-86 100 -286 100h-100q-200 0 -229 -200l-56 -400q-3 -25 -3 -46
q0 -154 175 -154h100z" />
    <glyph glyph-name="A" unicode="A" 
d="M1000 0h-100l-67 400h-554l-179 -400h-100l617 1400h160zM324 500h492l-133 800z" />
    <glyph glyph-name="B" unicode="B" horiz-adv-x="1100" 
d="M897 1400q263 0 263 -231q0 -32 -5 -69l-21 -150q-31 -220 -206 -250q140 -25 140 -186q0 -29 -5 -64l-21 -150q-42 -300 -342 -300h-600l197 1400h600zM383 1300l-78 -550h500q200 0 229 200l21 150q3 25 3 46q0 154 -175 154h-500zM291 650l-77 -550h500q200 0 228 200
l21 150q3 25 3 46q0 154 -175 154h-500z" />
    <glyph glyph-name="C" unicode="C" 
d="M242 300q-3 -25 -3 -46q0 -154 175 -154h500l-14 -100h-500q-263 0 -263 231q0 32 5 69l113 800q42 300 342 300h500l-14 -100h-500q-200 0 -228 -200z" />
    <glyph glyph-name="D" unicode="D" horiz-adv-x="1100" 
d="M897 1400q263 0 263 -231q0 -32 -5 -69l-113 -800q-42 -300 -342 -300h-600l197 1400h600zM1055 1100q3 25 3 46q0 154 -175 154h-500l-169 -1200h500q200 0 228 200z" />
    <glyph glyph-name="E" unicode="E" 
d="M1005 750l-14 -100h-700l-77 -550h700l-14 -100h-800l197 1400h800l-14 -100h-700l-78 -550h700z" />
    <glyph glyph-name="F" unicode="F" 
d="M1005 750l-14 -100h-700l-91 -650h-100l197 1400h800l-14 -100h-700l-78 -550h700z" />
    <glyph glyph-name="G" unicode="G" horiz-adv-x="1100" 
d="M242 300q-3 -25 -3 -46q0 -154 175 -154h300q200 0 228 200l49 350h-400l14 100h500l-63 -450q-42 -300 -342 -300h-300q-263 0 -263 231q0 32 5 69l113 800q42 300 342 300h600l-14 -100h-600q-200 0 -228 -200z" />
    <glyph glyph-name="H" unicode="H" horiz-adv-x="1100" 
d="M397 1400l-92 -650h700l92 650h100l-197 -1400h-100l91 650h-700l-91 -650h-100l197 1400h100z" />
    <glyph glyph-name="I" unicode="I" horiz-adv-x="300" 
d="M397 1400l-197 -1400h-100l197 1400h100z" />
    <glyph glyph-name="J" unicode="J" horiz-adv-x="700" 
d="M697 1400h100l-155 -1100q-42 -300 -342 -300h-200l14 100h200q200 0 228 200z" />
    <glyph glyph-name="K" unicode="K" horiz-adv-x="1050" 
d="M100 0l197 1400h100l-92 -650h90l682 650h120l-719 -700l522 -700h-120l-499 650h-90l-91 -650h-100z" />
    <glyph glyph-name="L" unicode="L" 
d="M214 100h700l-14 -100h-800l197 1400h100z" />
    <glyph glyph-name="M" unicode="M" horiz-adv-x="1400" 
d="M297 1400h170l247 -1300l613 1300h170l-197 -1400h-100l183 1300l-603 -1300h-160l-237 1300l-183 -1300h-100z" />
    <glyph glyph-name="N" unicode="N" horiz-adv-x="1100" 
d="M397 1400l531 -1200l169 1200h100l-197 -1400h-100l-531 1200l-169 -1200h-100l197 1400h100z" />
    <glyph glyph-name="O" unicode="O" horiz-adv-x="1150" 
d="M1092 300q-42 -300 -342 -300h-350q-263 0 -263 231q0 32 5 69l113 800q42 300 342 300h350q263 0 263 -231q0 -32 -5 -69zM242 300q-3 -25 -3 -46q0 -154 175 -154h350q200 0 228 200l113 800q3 25 3 46q0 154 -175 154h-350q-200 0 -228 -200z" />
    <glyph glyph-name="P" unicode="P" horiz-adv-x="1100" 
d="M291 650l-91 -650h-100l197 1400h600q263 0 263 -231q0 -32 -5 -69l-21 -150q-43 -300 -343 -300h-500zM383 1300l-78 -550h500q200 0 229 200l21 150q3 25 3 46q0 154 -175 154h-500z" />
    <glyph glyph-name="Q" unicode="Q" horiz-adv-x="1150" 
d="M670 0h-270q-263 0 -263 231q0 32 5 69l113 800q42 300 342 300h350q263 0 263 -231q0 -32 -5 -69l-113 -800q-41 -290 -322 -300l52 -200h-100zM692 300l52 -200h20q200 0 228 200l113 800q3 25 3 46q0 154 -175 154h-350q-200 0 -228 -200l-113 -800q-3 -25 -3 -46
q0 -154 175 -154h230l-52 200h100z" />
    <glyph glyph-name="R" unicode="R" horiz-adv-x="1100" 
d="M759 650h-468l-91 -650h-100l197 1400h600q263 0 263 -231q0 -32 -5 -69l-21 -150q-38 -265 -276 -296l142 -654h-100zM383 1300l-78 -550h500q200 0 229 200l21 150q3 25 3 46q0 154 -175 154h-500z" />
    <glyph glyph-name="S" unicode="S" horiz-adv-x="1100" 
d="M100 0l14 100h600q200 0 228 200l21 150q3 25 3 46q0 154 -175 154h-300q-262 0 -262 230q0 32 5 70l21 150q42 300 342 300h600l-14 -100h-600q-200 0 -228 -200l-21 -150q-4 -25 -4 -47q0 -153 175 -153h300q263 0 263 -231q0 -32 -5 -69l-21 -150q-42 -300 -342 -300
h-600z" />
    <glyph glyph-name="T" unicode="T" horiz-adv-x="1100" 
d="M1197 1400l-14 -100h-400l-183 -1300h-100l183 1300h-400l14 100h900z" />
    <glyph glyph-name="U" unicode="U" horiz-adv-x="1100" 
d="M397 1400l-155 -1100q-3 -25 -3 -46q0 -154 175 -154h300q200 0 228 200l155 1100h100l-155 -1100q-42 -300 -342 -300h-300q-263 0 -263 231q0 32 5 69l155 1100h100z" />
    <glyph glyph-name="V" unicode="V" 
d="M580 0h-160l-223 1400h100l217 -1300l583 1300h100z" />
    <glyph glyph-name="W" unicode="W" horiz-adv-x="1500" 
d="M1180 0h-160l-104 1181l-436 -1181h-160l-123 1400h100l117 -1300l483 1300h100l117 -1300l483 1300h100z" />
    <glyph glyph-name="X" unicode="X" horiz-adv-x="1200" 
d="M100 0l533 700l-336 700h130l286 -596l454 596h130l-534 -700l337 -700h-130l-286 595l-454 -595h-130z" />
    <glyph glyph-name="Y" unicode="Y" 
d="M307 1400l291 -700l489 700h110l-563 -800l-84 -600h-100l84 600l-337 800h110z" />
    <glyph glyph-name="Z" unicode="Z" horiz-adv-x="1100" 
d="M1197 1400l-14 -100l-949 -1200h780l-14 -100h-900l14 100l949 1200h-780l14 100h900z" />
    <glyph glyph-name="bracketleft" unicode="[" horiz-adv-x="500" 
d="M611 1500h-200l-225 -1600h200l-14 -100h-300l253 1800h300z" />
    <glyph glyph-name="backslash" unicode="\" horiz-adv-x="820" 
d="M325 1600h100l267 -1800h-100z" />
    <glyph glyph-name="bracketright" unicode="]" horiz-adv-x="500" 
d="M325 1600h300l-253 -1800h-300l14 100h200l225 1600h-200z" />
    <glyph glyph-name="asciicircum" unicode="^" 
d="M647 1400h100l251 -700h-100l-215 600l-385 -600h-100z" />
    <glyph glyph-name="underscore" unicode="_" horiz-adv-x="700" 
d="M658 -300l-14 -100h-700l14 100h700z" />
    <glyph glyph-name="grave" unicode="`" horiz-adv-x="400" 
d="M345 1100l-48 300h110l48 -300h-110z" />
    <glyph glyph-name="a" unicode="a" 
d="M884 600q5 37 5 69q0 231 -263 231h-300l15 100h300q350 0 350 -306q0 -44 -7 -94l-84 -600h-70l-16 100q-114 -100 -314 -100h-100q-263 0 -263 231q0 32 5 69q42 300 342 300h100q200 0 286 -100zM514 100q200 0 314 100l28 200q-86 100 -286 100h-100
q-200 0 -228 -200q-3 -25 -3 -46q0 -154 175 -154h100z" />
    <glyph glyph-name="b" unicode="b" 
d="M397 1400l-71 -500q115 100 315 100h100q262 0 262 -230q0 -32 -5 -70l-56 -400q-42 -300 -342 -300h-100q-200 0 -286 100l-44 -100h-70l197 1400h100zM626 900q-200 0 -314 -100l-84 -600q86 -100 286 -100h100q200 0 228 200l56 400q3 25 3 46q0 154 -175 154h-100z
" />
    <glyph glyph-name="c" unicode="c" horiz-adv-x="900" 
d="M242 300q-3 -25 -3 -46q0 -154 175 -154h400l-14 -100h-400q-263 0 -263 231q0 32 5 69l56 400q43 300 343 300h400l-15 -100h-400q-200 0 -228 -200z" />
    <glyph glyph-name="d" unicode="d" 
d="M1097 1400l-197 -1400h-70l-16 100q-114 -100 -314 -100h-100q-263 0 -263 231q0 32 5 69l56 400q43 300 343 300h100q200 0 285 -100l71 500h100zM514 100q200 0 314 100l84 600q-86 100 -286 100h-100q-200 0 -228 -200l-56 -400q-3 -25 -3 -46q0 -154 175 -154h100z
" />
    <glyph glyph-name="e" unicode="e" 
d="M263 450l-21 -150q-3 -25 -3 -46q0 -154 175 -154h450l-14 -100h-450q-263 0 -263 231q0 32 5 69l56 400q43 300 343 300h200q262 0 262 -230q0 -32 -5 -70l-35 -250h-700zM277 550h600l21 150q3 25 3 46q0 154 -175 154h-200q-200 0 -228 -200z" />
    <glyph glyph-name="f" unicode="f" horiz-adv-x="800" 
d="M484 950h350l-15 -100h-350l-119 -850h-100l119 850h-150l15 100h150l21 150q42 300 342 300h150l-14 -100h-150q-200 0 -228 -200z" />
    <glyph glyph-name="g" unicode="g" 
d="M144 -400l14 100h300q300 0 342 300l14 100q-114 -100 -314 -100h-100q-263 0 -263 231q0 32 5 69l56 400q43 300 343 300h100q200 0 285 -100l45 100h70l-141 -1000q-56 -400 -456 -400h-300zM514 100q200 0 314 100l84 600q-86 100 -286 100h-100q-200 0 -228 -200
l-56 -400q-3 -25 -3 -46q0 -154 175 -154h100z" />
    <glyph glyph-name="h" unicode="h" 
d="M397 1400l-71 -500q115 100 315 100h100q262 0 262 -230q0 -32 -5 -70l-98 -700h-100l98 700q3 25 3 46q0 154 -175 154h-100q-200 0 -314 -100l-112 -800h-100l197 1400h100z" />
    <glyph glyph-name="i" unicode="i" horiz-adv-x="300" 
d="M341 1000l-141 -1000h-100l141 1000h100zM397 1400l-28 -200h-100l28 200h100z" />
    <glyph glyph-name="j" unicode="j" horiz-adv-x="300" 
d="M-256 -400l14 100h100q200 0 228 200l155 1100h100l-155 -1100q-42 -300 -342 -300h-100zM397 1400l-28 -200h-100l28 200h100z" />
    <glyph glyph-name="k" unicode="k" horiz-adv-x="950" 
d="M397 1400l-120 -850h100l534 450h130l-581 -500l440 -500h-130l-407 450h-100l-63 -450h-100l197 1400h100z" />
    <glyph glyph-name="l" unicode="l" horiz-adv-x="300" 
d="M397 1400l-197 -1400h-100l197 1400h100z" />
    <glyph glyph-name="m" unicode="m" horiz-adv-x="1500" 
d="M311 1000l15 -100q115 100 315 100q173 0 231 -100q143 100 319 100q312 0 312 -238q0 -29 -5 -62l-98 -700h-100l98 700q3 22 3 42q0 158 -196 158q-221 0 -293 -100l-112 -800h-100l100 710q2 18 2 35q0 155 -176 155q-200 0 -314 -100l-112 -800h-100l141 1000h70z
" />
    <glyph glyph-name="n" unicode="n" 
d="M311 1000l15 -100q115 100 315 100h100q262 0 262 -230q0 -32 -5 -70l-98 -700h-100l98 700q3 25 3 46q0 154 -175 154h-100q-200 0 -314 -100l-112 -800h-100l141 1000h70z" />
    <glyph glyph-name="o" unicode="o" 
d="M942 300q-42 -300 -342 -300h-200q-263 0 -263 231q0 32 5 69l56 400q43 300 343 300h200q262 0 262 -230q0 -32 -5 -70zM242 300q-3 -25 -3 -46q0 -154 175 -154h200q200 0 228 200l56 400q3 25 3 46q0 154 -175 154h-200q-200 0 -228 -200z" />
    <glyph glyph-name="p" unicode="p" 
d="M44 -400l197 1400h70l15 -100q115 100 315 100h100q262 0 262 -230q0 -32 -5 -70l-56 -400q-42 -300 -342 -300h-100q-200 0 -286 100l-70 -500h-100zM626 900q-200 0 -314 -100l-84 -600q86 -100 286 -100h100q200 0 228 200l56 400q3 25 3 46q0 154 -175 154h-100z" />
    <glyph glyph-name="q" unicode="q" 
d="M744 -400l70 500q-114 -100 -314 -100h-100q-263 0 -263 231q0 32 5 69l56 400q43 300 343 300h100q200 0 285 -100l45 100h70l-197 -1400h-100zM514 100q200 0 314 100l84 600q-86 100 -286 100h-100q-200 0 -228 -200l-56 -400q-3 -25 -3 -46q0 -154 175 -154h100z" />
    <glyph glyph-name="r" unicode="r" horiz-adv-x="550" 
d="M100 0l141 1000h70l15 -100q115 100 315 100l-15 -100q-200 0 -314 -100l-112 -800h-100z" />
    <glyph glyph-name="s" unicode="s" horiz-adv-x="950" 
d="M100 0l14 100h450q200 0 223 160l5 40q2 17 2 31q0 129 -179 129h-150q-270 0 -270 195q0 21 3 45l6 40q37 260 337 260h450l-15 -100h-450q-200 0 -222 -160l-6 -40q-2 -12 -2 -23q0 -117 183 -117h150q267 0 267 -206q0 -25 -4 -54l-5 -40q-37 -260 -337 -260h-450z
" />
    <glyph glyph-name="t" unicode="t" horiz-adv-x="800" 
d="M491 1000h350l-15 -100h-350l-84 -600q-3 -25 -3 -46q0 -154 175 -154h150l-14 -100h-150q-263 0 -263 231q0 32 5 69l84 600h-150l15 100h150l42 300l114 100z" />
    <glyph glyph-name="u" unicode="u" 
d="M830 0l-16 100q-114 -100 -314 -100h-100q-263 0 -263 231q0 32 5 69l99 700h100l-99 -700q-3 -25 -3 -46q0 -154 175 -154h100q200 0 314 100l113 800h100l-141 -1000h-70z" />
    <glyph glyph-name="v" unicode="v" horiz-adv-x="900" 
d="M520 0h-140l-189 1000h100l173 -900l427 900h100z" />
    <glyph glyph-name="w" unicode="w" horiz-adv-x="1400" 
d="M1014 100l377 900h100l-421 -1000h-140l-113 832l-347 -832h-140l-139 1000h100l123 -900l377 900h100z" />
    <glyph glyph-name="x" unicode="x" 
d="M361 1000l222 -412l338 412h120l-411 -500l270 -500h-120l-222 412l-338 -412h-120l410 500l-269 500h120z" />
    <glyph glyph-name="y" unicode="y" 
d="M144 -400l14 100h400q200 0 228 200l28 200q-114 -100 -314 -100h-100q-263 0 -263 231q0 32 5 69l99 700h100l-99 -700q-3 -25 -3 -46q0 -154 175 -154h100q200 0 314 100l113 800h100l-155 -1100q-42 -300 -342 -300h-400z" />
    <glyph glyph-name="z" unicode="z" 
d="M1041 1000l-15 -100l-782 -800h670l-14 -100h-800l14 100l782 800h-670l15 100h800z" />
    <glyph glyph-name="braceleft" unicode="{" horiz-adv-x="700" 
d="M205 750q200 0 229 200l49 350q42 300 342 300l-14 -100q-200 0 -228 -200l-49 -350q-31 -220 -206 -250q140 -25 140 -186q0 -29 -5 -64l-49 -350q-3 -25 -3 -46q0 -154 175 -154l-14 -100q-263 0 -263 231q0 32 5 69l49 350q3 25 3 46q0 154 -175 154z" />
    <glyph glyph-name="bar" unicode="|" horiz-adv-x="300" 
d="M425 1600l-253 -1800h-100l253 1800h100z" />
    <glyph glyph-name="braceright" unicode="}" horiz-adv-x="700" 
d="M691 650q-200 0 -228 -200l-49 -350q-42 -300 -342 -300l14 100q200 0 228 200l49 350q31 220 205 250q-139 25 -139 185q0 30 5 65l49 350q3 25 3 46q0 154 -175 154l14 100q263 0 263 -231q0 -32 -5 -69l-49 -350q-4 -25 -4 -47q0 -153 175 -153z" />
    <glyph glyph-name="asciitilde" unicode="~" horiz-adv-x="1100" 
d="M170 500q42 300 292 300q130 0 206 -100t176 -100q140 0 168 200h100q-42 -300 -292 -300q-130 0 -206 100t-176 100q-140 0 -168 -200h-100z" />
    <glyph glyph-name="uni00A0" unicode="&#xa0;" horiz-adv-x="400" 
 />
    <glyph glyph-name="exclamdown" unicode="&#xa1;" horiz-adv-x="300" 
d="M284 600l-140 -1000h-100l140 1000h100zM341 1000l-29 -200h-100l29 200h100z" />
    <glyph glyph-name="cent" unicode="&#xa2;" horiz-adv-x="900" 
d="M747 1400l-28 -200h250l-14 -100h-250l-113 -800h250l-14 -100h-250l-28 -200h-100l28 200h-50q-263 0 -263 231q0 32 5 69l56 400q43 300 343 300h50l28 200h100zM270 500q-3 -25 -3 -46q0 -154 175 -154h50l113 800h-50q-200 0 -229 -200z" />
    <glyph glyph-name="sterling" unicode="&#xa3;" horiz-adv-x="1100" 
d="M455 750h650l-14 -100h-650l-77 -550h650l-14 -100h-900l14 100h150l77 550h-150l14 100h150l36 250q56 400 456 400h350l-14 -100h-350q-300 0 -342 -300z" />
    <glyph glyph-name="yen" unicode="&#xa5;" 
d="M307 1400l291 -700l489 700h110l-563 -800h350l-14 -100h-350l-28 -200h350l-14 -100h-350l-28 -200h-100l28 200h-350l14 100h350l28 200h-350l14 100h350l-337 800h110z" />
    <glyph glyph-name="brokenbar" unicode="&#xa6;" horiz-adv-x="300" 
d="M425 1600l-113 -800h-100l113 800h100zM284 600l-112 -800h-100l112 800h100z" />
    <glyph glyph-name="dieresis" unicode="&#xa8;" horiz-adv-x="600" 
d="M255 1100l28 200h100l-28 -200h-100zM555 1100l28 200h100l-28 -200h-100z" />
    <glyph glyph-name="copyright" unicode="&#xa9;" horiz-adv-x="1395" 
d="M1393 699q-35 -248 -234.5 -423t-446.5 -175q-248 0 -398 175q-123 142 -123 332q0 44 7 91q35 247 234.5 422t447.5 175q247 0 398 -175q122 -142 122 -331q0 -44 -7 -91zM867 1206q-219 0 -383 -144t-195 -363q-6 -44 -6 -85q0 -163 99 -278q124 -144 343 -144t383 144
t195 363q6 44 6 85q0 163 -99 278q-124 144 -343 144zM1001 745q-5 55 -41 98q-50 58 -133 58t-150 -58.5t-78 -141.5q-2 -16 -2 -31q0 -63 40 -110q50 -59 133 -59t151 59q41 36 60 81h103q-28 -86 -103 -152q-101 -88 -225 -88t-199 88q-61 71 -61 166q0 22 3 46
q17 124 117.5 212t224.5 88t199 -88q62 -72 62 -168h-101z" />
    <glyph glyph-name="guillemotleft" unicode="&#xab;" horiz-adv-x="852" 
d="M191 650l344 450h120l-344 -450l217 -450h-120zM443 650l344 450h120l-344 -450l217 -450h-120z" />
    <glyph glyph-name="logicalnot" unicode="&#xac;" horiz-adv-x="900" 
d="M905 750l-56 -400h-100l42 300h-600l14 100h700z" />
    <glyph glyph-name="registered" unicode="&#xae;" horiz-adv-x="1395" 
d="M890 1010q189 0 189 -145q0 -17 -3 -36q-22 -156 -162 -185l98 -267h-102l-95 261h-188l-37 -261h-91l89 633h302zM850 729q120 0 135 100q1 8 1 16q0 75 -109 75h-211l-27 -191h211zM1393 699q-35 -248 -234.5 -423t-446.5 -175q-248 0 -398 175q-123 142 -123 332
q0 44 7 91q35 247 234.5 422t447.5 175q247 0 398 -175q122 -142 122 -331q0 -44 -7 -91zM867 1206q-219 0 -383 -144t-195 -363q-6 -44 -6 -85q0 -163 99 -278q124 -144 343 -144t383 144t195 363q6 44 6 85q0 163 -99 278q-124 144 -343 144z" />
    <glyph glyph-name="degree" unicode="&#xb0;" horiz-adv-x="600" 
d="M669 1200q-12 -83 -78.5 -141.5t-149.5 -58.5t-133 59q-41 47 -41 110q0 15 2 31q11 83 78 141.5t150 58.5t133 -58q41 -48 41 -113q0 -14 -2 -29zM483 1300q-41 0 -75 -29.5t-39 -70.5q-1 -8 -1 -15q0 -32 21 -55q25 -30 66 -30t74.5 29.5t39.5 70.5q1 7 1 13
q0 33 -21 58q-25 29 -66 29z" />
    <glyph glyph-name="plusminus" unicode="&#xb1;" horiz-adv-x="900" 
d="M505 750l43 300h100l-43 -300h300l-14 -100h-300l-42 -300h-100l42 300h-300l14 100h300zM814 100l-14 -100h-700l14 100h700z" />
    <glyph glyph-name="acute" unicode="&#xb4;" horiz-adv-x="400" 
d="M255 1100l132 300h110l-132 -300h-110z" />
    <glyph glyph-name="mu" unicode="&#xb5;" 
d="M341 1000l-113 -800q86 -100 286 -100t314 100l113 800h100l-141 -1000h-100l14 100q-114 -100 -314 -100q-150 0 -288 84l-75 -530h-100l204 1446h100z" />
    <glyph glyph-name="paragraph" unicode="&#xb6;" horiz-adv-x="1100" 
d="M1197 1400l-253 -1800h-100l239 1700h-200l-239 -1700h-100l140 1000h-100q-350 0 -350 306q0 44 7 94q56 400 456 400h500z" />
    <glyph glyph-name="periodcentered" unicode="&#xb7;" horiz-adv-x="300" 
d="M184 600l28 200h100l-28 -200h-100z" />
    <glyph glyph-name="cedilla" unicode="&#xb8;" horiz-adv-x="550" 
d="M186 -100q17 1 32 1q201 0 201 -112q0 -9 -1 -19q-21 -150 -191 -150q-100 0 -176 30l11 80q76 -30 176 -30q90 0 100 70q1 4 1 8q0 62 -161 62z" />
    <glyph glyph-name="guillemotright" unicode="&#xbb;" horiz-adv-x="852" 
d="M248 200h-120l343 450l-216 450h120l216 -450zM500 200h-120l343 450l-216 450h120l216 -450z" />
    <glyph glyph-name="questiondown" unicode="&#xbf;" horiz-adv-x="1100" 
d="M784 600l-49 -350h-300q-200 0 -228 -200l-21 -150q-3 -25 -3 -46q0 -154 175 -154h600l-14 -100h-600q-263 0 -263 231q0 32 5 69l21 150q42 300 342 300h200l35 250h100zM712 800l29 200h100l-29 -200h-100z" />
    <glyph glyph-name="Agrave" unicode="&#xc0;" 
d="M1000 0h-100l-67 400h-554l-179 -400h-100l617 1400h160zM324 500h492l-133 800zM668 1500l-48 300h110l48 -300h-110z" />
    <glyph glyph-name="Aacute" unicode="&#xc1;" 
d="M1000 0h-100l-67 400h-554l-179 -400h-100l617 1400h160zM324 500h492l-133 800zM644 1500l132 300h110l-132 -300h-110z" />
    <glyph glyph-name="Acircumflex" unicode="&#xc2;" 
d="M1000 0h-100l-67 400h-554l-179 -400h-100l617 1400h160zM324 500h492l-133 800zM683 1800h140l138 -300h-120l-102 200l-158 -200h-120z" />
    <glyph glyph-name="Atilde" unicode="&#xc3;" 
d="M1000 0h-100l-67 400h-554l-179 -400h-100l617 1400h160zM324 500h492l-133 800zM341 1500q35 250 225 250q130 0 184.5 -75t154.5 -75q90 0 111 150h100q-35 -250 -225 -250q-130 0 -184.5 75t-154.5 75q-90 0 -111 -150h-100z" />
    <glyph glyph-name="Adieresis" unicode="&#xc4;" 
d="M1000 0h-100l-67 400h-554l-179 -400h-100l617 1400h160zM324 500h492l-133 800zM511 1500l28 200h100l-28 -200h-100zM811 1500l28 200h100l-28 -200h-100z" />
    <glyph glyph-name="Aring" unicode="&#xc5;" 
d="M1000 0h-100l-67 400h-554l-179 -400h-100l617 1400h160zM324 500h492l-133 800zM939 1700q-12 -83 -78.5 -141.5t-149.5 -58.5t-133 59q-41 47 -41 110q0 15 2 31q12 83 78.5 141.5t149.5 58.5t134 -58q40 -48 40 -111q0 -15 -2 -31zM753 1800q-41 0 -74.5 -29.5
t-39.5 -70.5q-1 -8 -1 -15q0 -32 21 -55q25 -30 66 -30t74.5 29.5t39.5 70.5q1 8 1 15q0 32 -20 56q-26 29 -67 29z" />
    <glyph glyph-name="AE" unicode="&#xc6;" horiz-adv-x="1600" 
d="M1605 750l-14 -100h-600l-77 -550h600l-14 -100h-700l56 400h-577l-179 -400h-100l617 1400h1080l-14 -100h-600l-78 -550h600zM983 1300h-300l-359 -800h546z" />
    <glyph glyph-name="Ccedilla" unicode="&#xc7;" 
d="M242 300q-3 -25 -3 -46q0 -154 175 -154h500l-14 -100h-500q-263 0 -263 231q0 32 5 69l113 800q42 300 342 300h500l-14 -100h-500q-200 0 -228 -200zM486 -100q17 1 32 1q201 0 201 -112q0 -9 -1 -19q-21 -150 -191 -150q-100 0 -176 30l11 80q76 -30 176 -30
q90 0 100 70q1 4 1 8q0 62 -161 62z" />
    <glyph glyph-name="Egrave" unicode="&#xc8;" 
d="M1005 750l-14 -100h-700l-77 -550h700l-14 -100h-800l197 1400h800l-14 -100h-700l-78 -550h700zM668 1500l-48 300h110l48 -300h-110z" />
    <glyph glyph-name="Eacute" unicode="&#xc9;" 
d="M1005 750l-14 -100h-700l-77 -550h700l-14 -100h-800l197 1400h800l-14 -100h-700l-78 -550h700zM644 1500l132 300h110l-132 -300h-110z" />
    <glyph glyph-name="Ecircumflex" unicode="&#xca;" 
d="M1005 750l-14 -100h-700l-77 -550h700l-14 -100h-800l197 1400h800l-14 -100h-700l-78 -550h700zM683 1800h140l138 -300h-120l-102 200l-158 -200h-120z" />
    <glyph glyph-name="Edieresis" unicode="&#xcb;" 
d="M1005 750l-14 -100h-700l-77 -550h700l-14 -100h-800l197 1400h800l-14 -100h-700l-78 -550h700zM511 1500l28 200h100l-28 -200h-100zM811 1500l28 200h100l-28 -200h-100z" />
    <glyph glyph-name="Igrave" unicode="&#xcc;" horiz-adv-x="300" 
d="M397 1400l-197 -1400h-100l197 1400h100zM319 1500l-48 300h110l48 -300h-110z" />
    <glyph glyph-name="Iacute" unicode="&#xcd;" horiz-adv-x="300" 
d="M397 1400l-197 -1400h-100l197 1400h100zM295 1500l132 300h110l-132 -300h-110z" />
    <glyph glyph-name="Icircumflex" unicode="&#xce;" horiz-adv-x="300" 
d="M397 1400l-197 -1400h-100l197 1400h100zM334 1800h140l138 -300h-120l-102 200l-158 -200h-120z" />
    <glyph glyph-name="Idieresis" unicode="&#xcf;" horiz-adv-x="300" 
d="M397 1400l-197 -1400h-100l197 1400h100zM162 1500l28 200h100l-28 -200h-100zM462 1500l28 200h100l-28 -200h-100z" />
    <glyph glyph-name="Eth" unicode="&#xd0;" horiz-adv-x="1100" 
d="M897 1400q263 0 263 -231q0 -32 -5 -69l-113 -800q-42 -300 -342 -300h-600l91 650h-200l14 100h200l92 650h600zM1055 1100q3 25 3 46q0 154 -175 154h-500l-78 -550h200l-14 -100h-200l-77 -550h500q200 0 228 200z" />
    <glyph glyph-name="Ntilde" unicode="&#xd1;" horiz-adv-x="1100" 
d="M397 1400l531 -1200l169 1200h100l-197 -1400h-100l-531 1200l-169 -1200h-100l197 1400h100zM391 1500q35 250 225 250q130 0 184.5 -75t154.5 -75q90 0 111 150h100q-35 -250 -225 -250q-130 0 -184.5 75t-154.5 75q-90 0 -111 -150h-100z" />
    <glyph glyph-name="Ograve" unicode="&#xd2;" horiz-adv-x="1150" 
d="M1092 300q-42 -300 -342 -300h-350q-263 0 -263 231q0 32 5 69l113 800q42 300 342 300h350q263 0 263 -231q0 -32 -5 -69zM242 300q-3 -25 -3 -46q0 -154 175 -154h350q200 0 228 200l113 800q3 25 3 46q0 154 -175 154h-350q-200 0 -228 -200zM743 1500l-48 300h110
l48 -300h-110z" />
    <glyph glyph-name="Oacute" unicode="&#xd3;" horiz-adv-x="1150" 
d="M1092 300q-42 -300 -342 -300h-350q-263 0 -263 231q0 32 5 69l113 800q42 300 342 300h350q263 0 263 -231q0 -32 -5 -69zM242 300q-3 -25 -3 -46q0 -154 175 -154h350q200 0 228 200l113 800q3 25 3 46q0 154 -175 154h-350q-200 0 -228 -200zM719 1500l132 300h110
l-132 -300h-110z" />
    <glyph glyph-name="Ocircumflex" unicode="&#xd4;" horiz-adv-x="1150" 
d="M1092 300q-42 -300 -342 -300h-350q-263 0 -263 231q0 32 5 69l113 800q42 300 342 300h350q263 0 263 -231q0 -32 -5 -69zM242 300q-3 -25 -3 -46q0 -154 175 -154h350q200 0 228 200l113 800q3 25 3 46q0 154 -175 154h-350q-200 0 -228 -200zM758 1800h140l138 -300
h-120l-102 200l-158 -200h-120z" />
    <glyph glyph-name="Otilde" unicode="&#xd5;" horiz-adv-x="1150" 
d="M1092 300q-42 -300 -342 -300h-350q-263 0 -263 231q0 32 5 69l113 800q42 300 342 300h350q263 0 263 -231q0 -32 -5 -69zM242 300q-3 -25 -3 -46q0 -154 175 -154h350q200 0 228 200l113 800q3 25 3 46q0 154 -175 154h-350q-200 0 -228 -200zM416 1500q35 250 225 250
q130 0 184.5 -75t154.5 -75q90 0 111 150h100q-35 -250 -225 -250q-130 0 -184.5 75t-154.5 75q-90 0 -111 -150h-100z" />
    <glyph glyph-name="Odieresis" unicode="&#xd6;" horiz-adv-x="1150" 
d="M1092 300q-42 -300 -342 -300h-350q-263 0 -263 231q0 32 5 69l113 800q42 300 342 300h350q263 0 263 -231q0 -32 -5 -69zM242 300q-3 -25 -3 -46q0 -154 175 -154h350q200 0 228 200l113 800q3 25 3 46q0 154 -175 154h-350q-200 0 -228 -200zM586 1500l28 200h100
l-28 -200h-100zM886 1500l28 200h100l-28 -200h-100z" />
    <glyph glyph-name="multiply" unicode="&#xd7;" horiz-adv-x="907" 
d="M481 700l-243 283l81 71l243 -283l322 283l61 -71l-323 -283l244 -283l-81 -71l-243 283l-322 -283l-61 71z" />
    <glyph glyph-name="Oslash" unicode="&#xd8;" horiz-adv-x="1150" 
d="M1044 1390q166 -38 166 -222q0 -32 -5 -68l-113 -800q-42 -300 -342 -300h-302l-86 -200h-100l86 202q-211 22 -211 229q0 32 5 69l113 800q42 300 342 300h352l86 200h100zM242 300q-3 -24 -3 -46q0 -144 152 -154l515 1200h-323q-200 0 -228 -200zM1105 1100q3 24 3 45
q0 120 -105 147l-512 -1192h273q200 0 228 200z" />
    <glyph glyph-name="Ugrave" unicode="&#xd9;" horiz-adv-x="1100" 
d="M397 1400l-155 -1100q-3 -25 -3 -46q0 -154 175 -154h300q200 0 228 200l155 1100h100l-155 -1100q-42 -300 -342 -300h-300q-263 0 -263 231q0 32 5 69l155 1100h100zM718 1500l-48 300h110l48 -300h-110z" />
    <glyph glyph-name="Uacute" unicode="&#xda;" horiz-adv-x="1100" 
d="M397 1400l-155 -1100q-3 -25 -3 -46q0 -154 175 -154h300q200 0 228 200l155 1100h100l-155 -1100q-42 -300 -342 -300h-300q-263 0 -263 231q0 32 5 69l155 1100h100zM694 1500l132 300h110l-132 -300h-110z" />
    <glyph glyph-name="Ucircumflex" unicode="&#xdb;" horiz-adv-x="1100" 
d="M397 1400l-155 -1100q-3 -25 -3 -46q0 -154 175 -154h300q200 0 228 200l155 1100h100l-155 -1100q-42 -300 -342 -300h-300q-263 0 -263 231q0 32 5 69l155 1100h100zM733 1800h140l138 -300h-120l-102 200l-158 -200h-120z" />
    <glyph glyph-name="Udieresis" unicode="&#xdc;" horiz-adv-x="1100" 
d="M397 1400l-155 -1100q-3 -25 -3 -46q0 -154 175 -154h300q200 0 228 200l155 1100h100l-155 -1100q-42 -300 -342 -300h-300q-263 0 -263 231q0 32 5 69l155 1100h100zM561 1500l28 200h100l-28 -200h-100zM861 1500l28 200h100l-28 -200h-100z" />
    <glyph glyph-name="Yacute" unicode="&#xdd;" 
d="M307 1400l291 -700l489 700h110l-563 -800l-84 -600h-100l84 600l-337 800h110zM644 1500l132 300h110l-132 -300h-110z" />
    <glyph glyph-name="Thorn" unicode="&#xde;" horiz-adv-x="1100" 
d="M745 320h-500l-45 -320h-100l197 1400h100l-47 -330h500q263 0 263 -231q0 -32 -5 -69l-21 -150q-42 -300 -342 -300zM336 970l-77 -550h500q200 0 228 200l21 150q3 25 3 46q0 154 -175 154h-500z" />
    <glyph glyph-name="germandbls" unicode="&#xdf;" horiz-adv-x="1100" 
d="M714 100q200 0 228 200l21 150q3 25 3 46q0 154 -175 154h-300l14 100h300q200 0 229 200l21 150q3 25 3 46q0 154 -175 154h-300q-200 0 -228 -200l-155 -1100h-100l155 1100q42 300 342 300h300q263 0 263 -231q0 -32 -5 -69l-21 -150q-31 -220 -206 -250
q140 -25 140 -186q0 -29 -5 -64l-21 -150q-42 -300 -342 -300h-300l14 100h300z" />
    <glyph glyph-name="agrave" unicode="&#xe0;" 
d="M898 700q3 25 3 46q0 154 -175 154h-400l15 100h400q262 0 262 -230q0 -32 -5 -70l-98 -700h-70l-16 100q-114 -100 -314 -100h-100q-263 0 -263 231q0 32 5 69q42 300 342 300h100q200 0 286 -100zM514 100q200 0 314 100l28 200q-86 100 -286 100h-100
q-200 0 -228 -200q-3 -25 -3 -46q0 -154 175 -154h100zM612 1100l-48 300h110l48 -300h-110z" />
    <glyph glyph-name="aacute" unicode="&#xe1;" 
d="M898 700q3 25 3 46q0 154 -175 154h-400l15 100h400q262 0 262 -230q0 -32 -5 -70l-98 -700h-70l-16 100q-114 -100 -314 -100h-100q-263 0 -263 231q0 32 5 69q42 300 342 300h100q200 0 286 -100zM514 100q200 0 314 100l28 200q-86 100 -286 100h-100
q-200 0 -228 -200q-3 -25 -3 -46q0 -154 175 -154h100zM588 1100l132 300h110l-132 -300h-110z" />
    <glyph glyph-name="acircumflex" unicode="&#xe2;" 
d="M898 700q3 25 3 46q0 154 -175 154h-400l15 100h400q262 0 262 -230q0 -32 -5 -70l-98 -700h-70l-16 100q-114 -100 -314 -100h-100q-263 0 -263 231q0 32 5 69q42 300 342 300h100q200 0 286 -100zM514 100q200 0 314 100l28 200q-86 100 -286 100h-100
q-200 0 -228 -200q-3 -25 -3 -46q0 -154 175 -154h100zM627 1400h140l138 -300h-120l-102 200l-158 -200h-120z" />
    <glyph glyph-name="atilde" unicode="&#xe3;" 
d="M898 700q3 25 3 46q0 154 -175 154h-400l15 100h400q262 0 262 -230q0 -32 -5 -70l-98 -700h-70l-16 100q-114 -100 -314 -100h-100q-263 0 -263 231q0 32 5 69q42 300 342 300h100q200 0 286 -100zM514 100q200 0 314 100l28 200q-86 100 -286 100h-100
q-200 0 -228 -200q-3 -25 -3 -46q0 -154 175 -154h100zM285 1100q35 250 225 250q130 0 184.5 -75t154.5 -75q90 0 111 150h100q-35 -250 -225 -250q-130 0 -184.5 75t-154.5 75q-90 0 -111 -150h-100z" />
    <glyph glyph-name="adieresis" unicode="&#xe4;" 
d="M898 700q3 25 3 46q0 154 -175 154h-400l15 100h400q262 0 262 -230q0 -32 -5 -70l-98 -700h-70l-16 100q-114 -100 -314 -100h-100q-263 0 -263 231q0 32 5 69q42 300 342 300h100q200 0 286 -100zM514 100q200 0 314 100l28 200q-86 100 -286 100h-100
q-200 0 -228 -200q-3 -25 -3 -46q0 -154 175 -154h100zM455 1100l28 200h100l-28 -200h-100zM755 1100l28 200h100l-28 -200h-100z" />
    <glyph glyph-name="aring" unicode="&#xe5;" 
d="M898 700q3 25 3 46q0 154 -175 154h-400l15 100h400q262 0 262 -230q0 -32 -5 -70l-98 -700h-70l-16 100q-114 -100 -314 -100h-100q-263 0 -263 231q0 32 5 69q42 300 342 300h100q200 0 286 -100zM514 100q200 0 314 100l28 200q-86 100 -286 100h-100
q-200 0 -228 -200q-3 -25 -3 -46q0 -154 175 -154h100zM883 1300q-12 -83 -78.5 -141.5t-149.5 -58.5t-133 59q-41 47 -41 110q0 15 2 31q11 83 78 141.5t150 58.5t133 -58q41 -48 41 -113q0 -14 -2 -29zM697 1400q-41 0 -75 -29.5t-39 -70.5q-1 -8 -1 -15q0 -32 21 -55
q25 -30 66 -30t74.5 29.5t39.5 70.5q1 7 1 13q0 33 -21 58q-25 29 -66 29z" />
    <glyph glyph-name="ae" unicode="&#xe6;" horiz-adv-x="1550" 
d="M893 450l-21 -150q-3 -25 -3 -46q0 -154 175 -154h370l-14 -100h-370q-182 0 -228 126q-114 -126 -272 -126h-130q-263 0 -263 231q0 32 5 69q42 300 342 300h130q100 0 186 -100l28 200q3 25 3 46q0 154 -175 154h-330l15 100h330q188 0 224 -147q80 147 276 147h120
q262 0 262 -230q0 -32 -5 -70l-35 -250h-620zM470 500q-200 0 -228 -200q-3 -25 -3 -46q0 -154 175 -154h130q150 0 214 100l28 200q-86 100 -186 100h-130zM907 550h520l21 150q3 25 3 46q0 154 -175 154h-120q-200 0 -228 -200z" />
    <glyph glyph-name="ccedilla" unicode="&#xe7;" horiz-adv-x="900" 
d="M242 300q-3 -25 -3 -46q0 -154 175 -154h400l-14 -100h-400q-263 0 -263 231q0 32 5 69l56 400q43 300 343 300h400l-15 -100h-400q-200 0 -228 -200zM436 -100q17 1 32 1q201 0 201 -112q0 -9 -1 -19q-21 -150 -191 -150q-100 0 -176 30l11 80q76 -30 176 -30
q90 0 100 70q1 4 1 8q0 62 -161 62z" />
    <glyph glyph-name="egrave" unicode="&#xe8;" 
d="M263 450l-21 -150q-3 -25 -3 -46q0 -154 175 -154h450l-14 -100h-450q-263 0 -263 231q0 32 5 69l56 400q43 300 343 300h200q262 0 262 -230q0 -32 -5 -70l-35 -250h-700zM277 550h600l21 150q3 25 3 46q0 154 -175 154h-200q-200 0 -228 -200zM612 1100l-48 300h110
l48 -300h-110z" />
    <glyph glyph-name="eacute" unicode="&#xe9;" 
d="M263 450l-21 -150q-3 -25 -3 -46q0 -154 175 -154h450l-14 -100h-450q-263 0 -263 231q0 32 5 69l56 400q43 300 343 300h200q262 0 262 -230q0 -32 -5 -70l-35 -250h-700zM277 550h600l21 150q3 25 3 46q0 154 -175 154h-200q-200 0 -228 -200zM588 1100l132 300h110
l-132 -300h-110z" />
    <glyph glyph-name="ecircumflex" unicode="&#xea;" 
d="M263 450l-21 -150q-3 -25 -3 -46q0 -154 175 -154h450l-14 -100h-450q-263 0 -263 231q0 32 5 69l56 400q43 300 343 300h200q262 0 262 -230q0 -32 -5 -70l-35 -250h-700zM277 550h600l21 150q3 25 3 46q0 154 -175 154h-200q-200 0 -228 -200zM627 1400h140l138 -300
h-120l-102 200l-158 -200h-120z" />
    <glyph glyph-name="edieresis" unicode="&#xeb;" 
d="M263 450l-21 -150q-3 -25 -3 -46q0 -154 175 -154h450l-14 -100h-450q-263 0 -263 231q0 32 5 69l56 400q43 300 343 300h200q262 0 262 -230q0 -32 -5 -70l-35 -250h-700zM277 550h600l21 150q3 25 3 46q0 154 -175 154h-200q-200 0 -228 -200zM455 1100l28 200h100
l-28 -200h-100zM755 1100l28 200h100l-28 -200h-100z" />
    <glyph glyph-name="igrave" unicode="&#xec;" horiz-adv-x="300" 
d="M341 1000l-141 -1000h-100l141 1000h100zM263 1100l-48 300h110l48 -300h-110z" />
    <glyph glyph-name="iacute" unicode="&#xed;" horiz-adv-x="300" 
d="M341 1000l-141 -1000h-100l141 1000h100zM239 1100l132 300h110l-132 -300h-110z" />
    <glyph glyph-name="icircumflex" unicode="&#xee;" horiz-adv-x="300" 
d="M341 1000l-141 -1000h-100l141 1000h100zM278 1400h140l138 -300h-120l-102 200l-158 -200h-120z" />
    <glyph glyph-name="idieresis" unicode="&#xef;" horiz-adv-x="300" 
d="M341 1000l-141 -1000h-100l141 1000h100zM106 1100l28 200h100l-28 -200h-100zM406 1100l28 200h100l-28 -200h-100z" />
    <glyph glyph-name="eth" unicode="&#xf0;" 
d="M962 1150h-200l14 100h200l21 150h100l-21 -150h200l-14 -100h-200l-162 -1150h-70l-16 100q-114 -100 -314 -100h-100q-263 0 -263 231q0 32 5 69l56 400q43 300 343 300h100q200 0 285 -100zM514 100q200 0 314 100l84 600q-86 100 -286 100h-100q-200 0 -228 -200
l-56 -400q-3 -25 -3 -46q0 -154 175 -154h100z" />
    <glyph glyph-name="ntilde" unicode="&#xf1;" 
d="M311 1000l15 -100q115 100 315 100h100q262 0 262 -230q0 -32 -5 -70l-98 -700h-100l98 700q3 25 3 46q0 154 -175 154h-100q-200 0 -314 -100l-112 -800h-100l141 1000h70zM285 1100q35 250 225 250q130 0 184.5 -75t154.5 -75q90 0 111 150h100q-35 -250 -225 -250
q-130 0 -184.5 75t-154.5 75q-90 0 -111 -150h-100z" />
    <glyph glyph-name="ograve" unicode="&#xf2;" 
d="M942 300q-42 -300 -342 -300h-200q-263 0 -263 231q0 32 5 69l56 400q43 300 343 300h200q262 0 262 -230q0 -32 -5 -70zM242 300q-3 -25 -3 -46q0 -154 175 -154h200q200 0 228 200l56 400q3 25 3 46q0 154 -175 154h-200q-200 0 -228 -200zM612 1100l-48 300h110
l48 -300h-110z" />
    <glyph glyph-name="oacute" unicode="&#xf3;" 
d="M942 300q-42 -300 -342 -300h-200q-263 0 -263 231q0 32 5 69l56 400q43 300 343 300h200q262 0 262 -230q0 -32 -5 -70zM242 300q-3 -25 -3 -46q0 -154 175 -154h200q200 0 228 200l56 400q3 25 3 46q0 154 -175 154h-200q-200 0 -228 -200zM588 1100l132 300h110
l-132 -300h-110z" />
    <glyph glyph-name="ocircumflex" unicode="&#xf4;" 
d="M942 300q-42 -300 -342 -300h-200q-263 0 -263 231q0 32 5 69l56 400q43 300 343 300h200q262 0 262 -230q0 -32 -5 -70zM242 300q-3 -25 -3 -46q0 -154 175 -154h200q200 0 228 200l56 400q3 25 3 46q0 154 -175 154h-200q-200 0 -228 -200zM627 1400h140l138 -300h-120
l-102 200l-158 -200h-120z" />
    <glyph glyph-name="otilde" unicode="&#xf5;" 
d="M942 300q-42 -300 -342 -300h-200q-263 0 -263 231q0 32 5 69l56 400q43 300 343 300h200q262 0 262 -230q0 -32 -5 -70zM242 300q-3 -25 -3 -46q0 -154 175 -154h200q200 0 228 200l56 400q3 25 3 46q0 154 -175 154h-200q-200 0 -228 -200zM285 1100q35 250 225 250
q130 0 184.5 -75t154.5 -75q90 0 111 150h100q-35 -250 -225 -250q-130 0 -184.5 75t-154.5 75q-90 0 -111 -150h-100z" />
    <glyph glyph-name="odieresis" unicode="&#xf6;" 
d="M942 300q-42 -300 -342 -300h-200q-263 0 -263 231q0 32 5 69l56 400q43 300 343 300h200q262 0 262 -230q0 -32 -5 -70zM242 300q-3 -25 -3 -46q0 -154 175 -154h200q200 0 228 200l56 400q3 25 3 46q0 154 -175 154h-200q-200 0 -228 -200zM455 1100l28 200h100
l-28 -200h-100zM755 1100l28 200h100l-28 -200h-100z" />
    <glyph glyph-name="divide" unicode="&#xf7;" horiz-adv-x="900" 
d="M905 750l-14 -100h-700l14 100h700zM428 200l28 200h100l-28 -200h-100zM541 1000l28 200h100l-28 -200h-100z" />
    <glyph glyph-name="oslash" unicode="&#xf8;" 
d="M831 992q172 -36 172 -222q0 -32 -5 -70l-56 -400q-42 -300 -342 -300h-195l-93 -200h-100l97 208q-172 36 -172 223q0 32 5 69l56 400q43 300 343 300h194l94 200h100zM242 300q-3 -24 -3 -46q0 -123 112 -148l340 794h-165q-200 0 -228 -200zM898 700q4 25 4 48
q0 121 -112 146l-342 -794h166q200 0 228 200z" />
    <glyph glyph-name="ugrave" unicode="&#xf9;" 
d="M830 0l-16 100q-114 -100 -314 -100h-100q-263 0 -263 231q0 32 5 69l99 700h100l-99 -700q-3 -25 -3 -46q0 -154 175 -154h100q200 0 314 100l113 800h100l-141 -1000h-70zM612 1100l-48 300h110l48 -300h-110z" />
    <glyph glyph-name="uacute" unicode="&#xfa;" 
d="M830 0l-16 100q-114 -100 -314 -100h-100q-263 0 -263 231q0 32 5 69l99 700h100l-99 -700q-3 -25 -3 -46q0 -154 175 -154h100q200 0 314 100l113 800h100l-141 -1000h-70zM588 1100l132 300h110l-132 -300h-110z" />
    <glyph glyph-name="ucircumflex" unicode="&#xfb;" 
d="M830 0l-16 100q-114 -100 -314 -100h-100q-263 0 -263 231q0 32 5 69l99 700h100l-99 -700q-3 -25 -3 -46q0 -154 175 -154h100q200 0 314 100l113 800h100l-141 -1000h-70zM627 1400h140l138 -300h-120l-102 200l-158 -200h-120z" />
    <glyph glyph-name="udieresis" unicode="&#xfc;" 
d="M830 0l-16 100q-114 -100 -314 -100h-100q-263 0 -263 231q0 32 5 69l99 700h100l-99 -700q-3 -25 -3 -46q0 -154 175 -154h100q200 0 314 100l113 800h100l-141 -1000h-70zM455 1100l28 200h100l-28 -200h-100zM755 1100l28 200h100l-28 -200h-100z" />
    <glyph glyph-name="yacute" unicode="&#xfd;" 
d="M144 -400l14 100h400q200 0 228 200l28 200q-114 -100 -314 -100h-100q-263 0 -263 231q0 32 5 69l99 700h100l-99 -700q-3 -25 -3 -46q0 -154 175 -154h100q200 0 314 100l113 800h100l-155 -1100q-42 -300 -342 -300h-400zM588 1100l132 300h110l-132 -300h-110z" />
    <glyph glyph-name="thorn" unicode="&#xfe;" 
d="M44 -400l253 1800h100l-71 -500q115 100 315 100h100q262 0 262 -230q0 -32 -5 -70l-56 -400q-42 -300 -342 -300h-100q-200 0 -286 100l-70 -500h-100zM626 900q-200 0 -314 -100l-84 -600q86 -100 286 -100h100q200 0 228 200l56 400q3 25 3 46q0 154 -175 154h-100z
" />
    <glyph glyph-name="ydieresis" unicode="&#xff;" 
d="M144 -400l14 100h400q200 0 228 200l28 200q-114 -100 -314 -100h-100q-263 0 -263 231q0 32 5 69l99 700h100l-99 -700q-3 -25 -3 -46q0 -154 175 -154h100q200 0 314 100l113 800h100l-155 -1100q-42 -300 -342 -300h-400zM455 1100l28 200h100l-28 -200h-100z
M755 1100l28 200h100l-28 -200h-100z" />
    <glyph glyph-name="dotlessi" unicode="&#x131;" horiz-adv-x="300" 
d="M341 1000l-141 -1000h-100l141 1000h100z" />
    <glyph glyph-name="OE" unicode="&#x152;" horiz-adv-x="1700" 
d="M1705 750l-14 -100h-600l-77 -550h600l-14 -100h-700l13 91q-75 -91 -213 -91h-300q-263 0 -263 231q0 32 5 69l113 800q42 300 342 300h300q138 0 187 -92l13 92h700l-14 -100h-600l-78 -550h600zM242 300q-3 -25 -3 -46q0 -154 175 -154h300q200 0 228 200l113 800
q3 25 3 46q0 154 -175 154h-300q-200 0 -228 -200z" />
    <glyph glyph-name="oe" unicode="&#x153;" horiz-adv-x="1500" 
d="M863 450l-21 -150q-3 -25 -3 -46q0 -154 175 -154h350l-14 -100h-350q-189 0 -231 135q-81 -135 -269 -135h-100q-263 0 -263 231q0 32 5 69l56 400q43 300 343 300h100q188 0 230 -136q81 136 270 136h100q262 0 262 -230q0 -32 -5 -70l-35 -250h-600zM242 300
q-3 -25 -3 -46q0 -154 175 -154h100q200 0 228 200l56 400q3 25 3 46q0 154 -175 154h-100q-200 0 -228 -200zM877 550h500l21 150q3 25 3 46q0 154 -175 154h-100q-200 0 -228 -200z" />
    <glyph glyph-name="Scaron" unicode="&#x160;" horiz-adv-x="1100" 
d="M100 0l14 100h600q200 0 228 200l21 150q3 25 3 46q0 154 -175 154h-300q-262 0 -262 230q0 32 5 70l21 150q42 300 342 300h600l-14 -100h-600q-200 0 -228 -200l-21 -150q-4 -25 -4 -47q0 -153 175 -153h300q263 0 263 -231q0 -32 -5 -69l-21 -150q-42 -300 -342 -300
h-600zM553 1800h120l102 -200l158 200h120l-222 -300h-140z" />
    <glyph glyph-name="scaron" unicode="&#x161;" horiz-adv-x="950" 
d="M100 0l14 100h450q200 0 223 160l5 40q2 17 2 31q0 129 -179 129h-150q-270 0 -270 195q0 21 3 45l6 40q37 260 337 260h450l-15 -100h-450q-200 0 -222 -160l-6 -40q-2 -12 -2 -23q0 -117 183 -117h150q267 0 267 -206q0 -25 -4 -54l-5 -40q-37 -260 -337 -260h-450z
M422 1400h120l102 -200l158 200h120l-222 -300h-140z" />
    <glyph glyph-name="Ydieresis" unicode="&#x178;" 
d="M307 1400l291 -700l489 700h110l-563 -800l-84 -600h-100l84 600l-337 800h110zM511 1500l28 200h100l-28 -200h-100zM811 1500l28 200h100l-28 -200h-100z" />
    <glyph glyph-name="Zcaron" unicode="&#x17d;" horiz-adv-x="1100" 
d="M1197 1400l-14 -100l-949 -1200h780l-14 -100h-900l14 100l949 1200h-780l14 100h900zM553 1800h120l102 -200l158 200h120l-222 -300h-140z" />
    <glyph glyph-name="zcaron" unicode="&#x17e;" 
d="M1041 1000l-15 -100l-782 -800h670l-14 -100h-800l14 100l782 800h-670l15 100h800zM447 1400h120l102 -200l158 200h120l-222 -300h-140z" />
    <glyph glyph-name="florin" unicode="&#x192;" horiz-adv-x="799" 
d="M483 950h350l-15 -100h-350l-133 -950q-42 -300 -342 -300h-100l14 100h100q200 0 228 200l133 950h-150l15 100h150l21 150q42 300 342 300h150l-14 -100h-150q-200 0 -228 -200z" />
    <glyph glyph-name="uni0251" unicode="&#x251;" horiz-adv-x="700" 
d="M477 1400h140l138 -300h-120l-102 200l-158 -200h-120z" />
    <glyph glyph-name="circumflex" unicode="&#x2c6;" horiz-adv-x="700" 
d="M297 1400h120l102 -200l158 200h120l-222 -300h-140z" />
    <glyph glyph-name="caron" unicode="&#x2c7;" horiz-adv-x="700" 
d="M297 1400h100q-4 -31 -4 -58q0 -142 126 -142q150 0 178 200h100q-42 -300 -292 -300q-214 0 -214 220q0 37 6 80z" />
    <glyph glyph-name="breve" unicode="&#x2d8;" horiz-adv-x="300" 
d="M269 1200l28 200h100l-28 -200h-100z" />
    <glyph glyph-name="dotaccent" unicode="&#x2d9;" horiz-adv-x="600" 
d="M683 1300q-12 -83 -78.5 -141.5t-149.5 -58.5t-133 59q-41 47 -41 110q0 15 2 31q11 83 78 141.5t150 58.5t133 -58q41 -48 41 -113q0 -14 -2 -29zM497 1400q-41 0 -75 -29.5t-39 -70.5q-1 -8 -1 -15q0 -32 21 -55q25 -30 66 -30t74.5 29.5t39.5 70.5q1 7 1 13
q0 33 -21 58q-25 29 -66 29z" />
    <glyph glyph-name="ring" unicode="&#x2da;" horiz-adv-x="550" 
d="M286 -100q-128 -60 -138 -130q-1 -7 -1 -13q0 -57 81 -57q100 0 184 30l-11 -80q-84 -30 -184 -30q-151 0 -151 119q0 15 2 31q11 80 118 130h100z" />
    <glyph glyph-name="ogonek" unicode="&#x2db;" horiz-adv-x="940" 
d="M255 1100q35 250 225 250q130 0 184.5 -75t154.5 -75q90 0 111 150h100q-35 -250 -225 -250q-130 0 -184.5 75t-154.5 75q-90 0 -111 -150h-100z" />
    <glyph glyph-name="tilde" unicode="&#x2dc;" horiz-adv-x="600" 
d="M255 1100l132 300h110l-132 -300h-110zM455 1100l132 300h110l-132 -300h-110z" />
    <glyph glyph-name="endash" unicode="&#x2013;" horiz-adv-x="700" 
d="M705 750l-14 -100h-500l14 100h500z" />
    <glyph glyph-name="emdash" unicode="&#x2014;" horiz-adv-x="900" 
d="M905 750l-14 -100h-700l14 100h700z" />
    <glyph glyph-name="quoteleft" unicode="&#x2018;" horiz-adv-x="400" 
d="M397 1400l58 -300h-100l-58 300h100z" />
    <glyph glyph-name="quoteright" unicode="&#x2019;" horiz-adv-x="400" 
d="M497 1400l-142 -300h-100l142 300h100z" />
    <glyph glyph-name="quotesinglbase" unicode="&#x201a;" horiz-adv-x="400" 
d="M328 200l-142 -300h-100l142 300h100z" />
    <glyph glyph-name="quotedblleft" unicode="&#x201c;" horiz-adv-x="600" 
d="M597 1400l58 -300h-100l-58 300h100zM397 1400l58 -300h-100l-58 300h100z" />
    <glyph glyph-name="quotedblright" unicode="&#x201d;" horiz-adv-x="600" 
d="M497 1400l-142 -300h-100l142 300h100zM697 1400l-142 -300h-100l142 300h100z" />
    <glyph glyph-name="quotedblbase" unicode="&#x201e;" horiz-adv-x="600" 
d="M314 100l-142 -300h-100l142 300h100zM514 100l-142 -300h-100l142 300h100z" />
    <glyph glyph-name="dagger" unicode="&#x2020;" horiz-adv-x="1100" 
d="M1141 1000h-400l-141 -1000h-100l141 1000h-400l14 100h400l42 300h100l-42 -300h400z" />
    <glyph glyph-name="daggerdbl" unicode="&#x2021;" horiz-adv-x="1100" 
d="M1042 300h-400l-42 -300h-100l42 300h-400l14 100h400l85 600h-400l14 100h400l42 300h100l-42 -300h400l-14 -100h-400l-85 -600h400z" />
    <glyph glyph-name="bullet" unicode="&#x2022;" horiz-adv-x="500" 
d="M526 900l-42 -300h-300l42 300h300z" />
    <glyph glyph-name="ellipsis" unicode="&#x2026;" horiz-adv-x="900" 
d="M100 0l28 200h100l-28 -200h-100zM400 0l28 200h100l-28 -200h-100zM700 0l28 200h100l-28 -200h-100z" />
    <glyph glyph-name="perthousand" unicode="&#x2030;" horiz-adv-x="2600" 
d="M2100 0q-263 0 -263 231q0 32 5 69l28 200q42 300 342 300h100q263 0 263 -231q0 -32 -5 -69l-28 -200q-42 -300 -342 -300h-100zM926 900q-42 -300 -342 -300h-100q-263 0 -263 231q0 32 5 69l29 200q42 300 342 300h100q263 0 263 -231q0 -32 -5 -69zM1300 0
q-263 0 -263 231q0 32 5 69l28 200q42 300 342 300h100q263 0 263 -231q0 -32 -5 -69l-28 -200q-42 -300 -342 -300h-100zM1142 300q-3 -25 -3 -46q0 -154 175 -154h100q200 0 228 200l28 200q3 25 3 46q0 154 -175 154h-100q-200 0 -228 -200zM1942 300q-3 -25 -3 -46
q0 -154 175 -154h100q200 0 228 200l28 200q3 25 3 46q0 154 -175 154h-100q-200 0 -228 -200zM326 900q-3 -25 -3 -46q0 -154 175 -154h100q200 0 228 200l29 200q3 25 3 46q0 154 -175 154h-100q-200 0 -228 -200zM500 0l887 1400h110l-887 -1400h-110z" />
    <glyph glyph-name="guilsinglleft" unicode="&#x2039;" horiz-adv-x="600" 
d="M191 650l344 450h120l-344 -450l217 -450h-120z" />
    <glyph glyph-name="guilsinglright" unicode="&#x203a;" horiz-adv-x="600" 
d="M248 200h-120l343 450l-216 450h120l216 -450z" />
    <glyph glyph-name="Euro" unicode="&#x20ac;" horiz-adv-x="1100" 
d="M462 800l-28 -200h500l-40 -100h-474l-28 -200q-3 -25 -3 -46q0 -154 175 -154h450l-14 -100h-450q-263 0 -263 231q0 32 5 69l28 200h-150l14 100h150l28 200h-150l14 100h150l29 200q42 300 342 300h450l-14 -100h-450q-200 0 -228 -200l-29 -200h575l-39 -100h-550z
" />
    <glyph glyph-name="trademark" unicode="&#x2122;" horiz-adv-x="1300" 
d="M947 1400l87 -450l213 450h150l-85 -600h-100l64 450l-214 -450h-100l-86 450l-64 -450h-100l85 600h150zM697 1400l-14 -100h-150l-71 -500h-100l71 500h-150l14 100h400z" />
  </font>
</defs>
</svg>
